<svg width="632" height="684" viewBox="0 0 632 684" fill="none" xmlns="http://www.w3.org/2000/svg">
    <path
        d="M61.6075 623.604L83.3995 554.484H100.344L122.136 623.604H110.232L90.4555 561.588H93.0475L73.5115 623.604H61.6075ZM73.7515 608.628V597.828H110.04V608.628H73.7515ZM130.814 623.604V554.484H142.526L174.59 603.204V554.484H186.302V623.604H174.59L142.526 574.884V623.604H130.814ZM194.92 623.604L216.712 554.484H233.656L255.448 623.604H243.544L223.768 561.588H226.36L206.824 623.604H194.92ZM207.064 608.628V597.828H243.352V608.628H207.064ZM265.086 623.604V554.484H276.654V612.756H307.182V623.604H265.086ZM322.551 623.604V595.284L299.031 554.484H312.519L328.407 582.036L344.247 554.484H357.735L334.263 595.284V623.604H322.551ZM383.953 623.604V565.332H361.585V554.484H417.889V565.332H395.521V623.604H383.953ZM426.524 623.604V554.484H438.092V623.604H426.524ZM452.47 623.604V554.484H464.038V586.548L491.638 554.484H505.846L476.134 588.372L507.862 623.604H493.174L464.038 591.348V623.604H452.47ZM509.826 623.604L531.618 554.484H548.562L570.354 623.604H558.45L538.674 561.588H541.266L521.73 623.604H509.826ZM521.97 608.628V597.828H558.258V608.628H521.97Z"
        fill="" />
    <rect x="411.879" y="61.5264" width="510.638" height="142.791" rx="71.3957"
        transform="rotate(115.524 411.879 61.5264)" fill="url(#paint0_linear_453_463)" />
    <rect width="510.638" height="142.791" rx="71.3957"
        transform="matrix(-0.430881 -0.902409 -0.902409 0.430881 570 460.804)" fill="url(#paint1_linear_453_463)" />
    <defs>
        <linearGradient id="paint0_linear_453_463" x1="411.879" y1="132.922" x2="741.339" y2="130.44"
            gradientUnits="userSpaceOnUse">
            <stop stop-color="#1E9646" />
            <stop offset="1" stop-color="#F5EC4D" />
        </linearGradient>
        <linearGradient id="paint1_linear_453_463" x1="1.05859e-08" y1="71.3957" x2="329.46" y2="68.9132"
            gradientUnits="userSpaceOnUse">
            <stop stop-color="#1E9646" />
            <stop offset="1" stop-color="#F5EC4D" />
        </linearGradient>
    </defs>
</svg>