<svg width="718" height="485" viewBox="0 0 718 485" fill="none" xmlns="http://www.w3.org/2000/svg">
<path d="M675.666 440.274C675.666 440.419 533.874 440.526 359.018 440.526C184.161 440.526 42.332 440.419 42.332 440.274C42.332 440.128 184.094 440.021 359.018 440.021C533.941 440.021 675.666 440.138 675.666 440.274Z" fill="#263238"/>
<path d="M479.299 44.3965H223.375V226.077H479.299V44.3965Z" fill="#FAFAFA"/>
<path d="M479.299 226.078C479.299 224.328 479.222 155.209 479.098 44.3973L479.299 44.6149H223.394L223.644 44.3455C223.644 108.957 223.644 170.439 223.644 226.026L223.414 225.778L479.338 226.026L223.414 226.274H223.184V226.026C223.184 170.439 223.184 108.947 223.184 44.3455V44.0762H223.451L479.356 44.1384H479.557V44.3455C479.376 155.209 479.299 224.316 479.299 226.078Z" fill="#263238"/>
<path d="M301.591 144.723L326.76 145.106C326.567 159.61 315.272 171.454 301.591 171.454H301.438L301.591 144.723Z" fill="#455A64"/>
<path d="M343.215 181.617C343.034 181.634 342.851 181.634 342.67 181.617H341.138L335.509 181.689H335.461L335.413 181.628C333.163 178.572 330.273 174.613 327.114 170.303L320.412 161.072L320.546 161.133L313.136 161.061L311.049 161.113C310.804 161.141 310.557 161.141 310.312 161.113C310.556 161.074 310.803 161.056 311.049 161.061H313.118L320.526 160.988H320.603V161.051L327.305 170.261L335.537 181.658L335.423 181.597L341.051 181.669H342.584C342.792 181.623 343.003 181.605 343.215 181.617Z" fill="#263238"/>
<path d="M352.243 184.758C352.243 184.873 348.595 184.965 344.095 184.965C339.596 184.965 335.949 184.873 335.949 184.758C335.949 184.644 339.596 184.551 344.095 184.551C348.595 184.551 352.243 184.644 352.243 184.758Z" fill="#263238"/>
<path d="M352.243 188.051C352.243 188.166 348.595 188.259 344.095 188.259C339.596 188.259 335.949 188.166 335.949 188.051C335.949 187.937 339.596 187.844 344.095 187.844C348.595 187.844 352.243 187.907 352.243 188.051Z" fill="#263238"/>
<path d="M297.607 140.848L297.253 167.579C283.583 167.372 272.43 155.374 272.43 140.848C272.43 126.322 283.794 114.127 297.607 114.127C311.422 114.127 322.786 126.187 322.786 140.848H297.607Z" fill="#6B4BEF"/>
<path d="M287.777 132.102C287.639 132.155 287.494 132.19 287.347 132.205L286.093 132.423L281.575 133.117H281.498L281.441 133.055L275.409 126.704C272.537 123.595 269.904 120.829 268.027 118.788L265.826 116.353C265.542 116.067 265.283 115.755 265.051 115.42C265.367 115.663 265.663 115.937 265.932 116.239L268.22 118.571C270.134 120.56 272.776 123.326 275.677 126.403L281.661 132.806H281.527L286.074 132.267L287.328 132.143C287.474 132.099 287.626 132.086 287.777 132.102Z" fill="#263238"/>
<path d="M258.675 114.262C258.675 114.375 255.027 114.469 250.527 114.469C246.028 114.469 242.391 114.375 242.391 114.262C242.391 114.148 246.028 114.055 250.527 114.055C255.027 114.055 258.675 114.148 258.675 114.262Z" fill="#263238"/>
<path d="M258.675 117.526C258.675 117.639 255.027 117.733 250.527 117.733C246.028 117.733 242.391 117.639 242.391 117.526C242.391 117.412 246.028 117.318 250.527 117.318C255.027 117.318 258.675 117.412 258.675 117.526Z" fill="#263238"/>
<path d="M385.675 88.0483L385.578 71.4707C380.903 71.5628 376.412 73.4587 372.914 76.817C370.678 78.9282 368.954 81.5992 367.89 84.597C366.828 87.5948 366.459 90.8286 366.816 94.0164C366.897 94.8275 367.018 95.6334 367.179 96.4305C367.175 96.4509 367.175 96.4722 367.179 96.4926L385.665 91.9856L385.675 88.0483Z" fill="#6B4BEF"/>
<g opacity="0.3">
<path d="M385.675 88.0483L385.578 71.4707C380.903 71.5628 376.412 73.4587 372.914 76.817C370.678 78.9282 368.954 81.5992 367.89 84.597C366.828 87.5948 366.459 90.8286 366.816 94.0164C366.897 94.8275 367.018 95.6334 367.179 96.4305C367.175 96.4509 367.175 96.4722 367.179 96.4926L385.665 91.9856L385.675 88.0483Z" fill="white"/>
</g>
<path d="M404.734 82.9402C403.384 79.8023 401.293 77.105 398.673 75.1204C396.053 73.1359 392.996 71.9341 389.809 71.6363L389.226 71.5742H388.852C388.489 71.5742 388.115 71.5742 387.741 71.5742H387.637L387.741 88.1519V92.0476L406.305 96.3889C406.591 94.9769 406.728 93.5344 406.716 92.089C406.688 88.9184 406.011 85.7938 404.734 82.9402Z" fill="#6B4BEF"/>
<g opacity="0.3">
<path d="M404.734 82.9402C403.384 79.8023 401.293 77.105 398.673 75.1204C396.053 73.1359 392.996 71.9341 389.809 71.6363L389.226 71.5742H388.852C388.489 71.5742 388.115 71.5742 387.741 71.5742H387.637L387.741 88.1519V92.0476L406.305 96.3889C406.591 94.9769 406.728 93.5344 406.716 92.089C406.688 88.9184 406.011 85.7938 404.734 82.9402Z" fill="black"/>
</g>
<path d="M386.667 94.0254L368.172 98.5325C369.12 103.087 371.476 107.156 374.849 110.065C378.223 112.975 382.413 114.553 386.727 114.537C391.041 114.521 395.221 112.913 398.576 109.979C401.931 107.045 404.262 102.959 405.182 98.3977L386.687 94.0254" fill="#6B4BEF"/>
<path d="M458.64 91.0415C458.64 91.1866 449.066 91.3109 437.291 91.3109C425.516 91.3109 415.934 91.1866 415.934 91.0415C415.934 90.8965 425.506 90.7617 437.291 90.7617C449.076 90.7617 458.64 90.8861 458.64 91.0415Z" fill="#263238"/>
<path d="M458.64 85.7674C458.64 85.9124 449.066 86.0368 437.291 86.0368C425.516 86.0368 415.934 85.9124 415.934 85.7674C415.934 85.6223 425.506 85.498 437.291 85.498C449.076 85.498 458.64 85.6223 458.64 85.7674Z" fill="#263238"/>
<path d="M458.64 80.5038C458.64 80.6488 449.066 80.7731 437.291 80.7731C425.516 80.7731 415.934 80.6488 415.934 80.5038C415.934 80.3586 425.506 80.2344 437.291 80.2344C449.076 80.2344 458.64 80.3484 458.64 80.5038Z" fill="#263238"/>
<path d="M458.64 95.9419C458.64 96.087 449.066 96.2112 437.291 96.2112C425.516 96.2112 415.934 96.087 415.934 95.9419C415.934 95.7968 425.506 95.6621 437.291 95.6621C449.076 95.6621 458.64 95.8383 458.64 95.9419Z" fill="#263238"/>
<path d="M445.419 101.267C445.419 101.423 438.851 101.537 430.753 101.537C422.654 101.537 416.086 101.423 416.086 101.267C416.086 101.112 422.654 100.998 430.753 100.998C438.851 100.998 445.419 101.122 445.419 101.267Z" fill="#263238"/>
<path d="M375.555 139.408H371.16V192.571H375.555V139.408Z" fill="#6B4BEF"/>
<path d="M384.047 157.457H379.652V192.561H384.047V157.457Z" fill="#6B4BEF"/>
<path d="M392.538 146.006H388.145V192.828H392.538V146.006Z" fill="#6B4BEF"/>
<path d="M401.027 141.459H396.633V192.57H401.027V141.459Z" fill="#6B4BEF"/>
<path d="M409.512 158.533H405.117V192.56H409.512V158.533Z" fill="#6B4BEF"/>
<path d="M418.004 165.205H413.609V192.559H418.004V165.205Z" fill="#6B4BEF"/>
<path d="M426.496 144.857H422.102V192.56H426.496V144.857Z" fill="#6B4BEF"/>
<path d="M434.984 153.457H430.59V192.561H434.984V153.457Z" fill="#6B4BEF"/>
<path d="M443.476 146.588H439.082V192.56H443.476V146.588Z" fill="#6B4BEF"/>
<path d="M451.969 161.238H447.574V192.56H451.969V161.238Z" fill="#6B4BEF"/>
<path d="M460.46 155.279H456.066V192.559H460.46V155.279Z" fill="#6B4BEF"/>
<path d="M462.261 196.268C462.261 196.372 441.401 196.464 415.668 196.464C389.935 196.464 369.074 196.372 369.074 196.268C369.074 196.164 389.935 196.07 415.668 196.07C441.401 196.07 462.261 196.154 462.261 196.268Z" fill="#263238"/>
<path d="M377.431 200.486C375.26 200.735 373.072 200.735 370.902 200.486C373.071 200.223 375.261 200.223 377.431 200.486Z" fill="#263238"/>
<path d="M388.259 200.662C385.663 200.925 383.052 200.925 380.457 200.662C383.052 200.399 385.663 200.399 388.259 200.662Z" fill="#263238"/>
<path d="M397.497 200.662C394.903 200.925 392.29 200.925 389.695 200.662C392.29 200.399 394.903 200.399 397.497 200.662Z" fill="#263238"/>
<path d="M406.725 200.662C404.129 200.925 401.518 200.925 398.922 200.662C401.518 200.399 404.129 200.399 406.725 200.662Z" fill="#263238"/>
<path d="M415.962 200.662C413.367 200.925 410.755 200.925 408.16 200.662C410.755 200.399 413.367 200.399 415.962 200.662Z" fill="#263238"/>
<path d="M425.194 200.662C422.598 200.925 419.986 200.925 417.391 200.662C419.986 200.399 422.598 200.399 425.194 200.662Z" fill="#263238"/>
<path d="M434.431 200.662C431.835 200.925 429.223 200.925 426.629 200.662C429.223 200.399 431.835 200.399 434.431 200.662Z" fill="#263238"/>
<path d="M443.639 200.662C441.043 200.925 438.432 200.925 435.836 200.662C438.432 200.399 441.043 200.399 443.639 200.662Z" fill="#263238"/>
<path d="M452.897 200.662C450.301 200.925 447.69 200.925 445.094 200.662C447.69 200.399 450.301 200.399 452.897 200.662Z" fill="#263238"/>
<path d="M462.134 200.662C459.539 200.925 456.927 200.925 454.332 200.662C456.927 200.399 459.539 200.399 462.134 200.662Z" fill="#263238"/>
<g opacity="0.3">
<path d="M384.047 157.457H379.652V192.561H384.047V157.457Z" fill="white"/>
</g>
<g opacity="0.3">
<path d="M401.027 141.459H396.633V192.57H401.027V141.459Z" fill="white"/>
</g>
<g opacity="0.3">
<path d="M418.004 165.205H413.609V192.559H418.004V165.205Z" fill="white"/>
</g>
<g opacity="0.3">
<path d="M434.984 153.457H430.59V192.561H434.984V153.457Z" fill="white"/>
</g>
<g opacity="0.3">
<path d="M451.969 161.238H447.574V192.56H451.969V161.238Z" fill="white"/>
</g>
<path d="M254.47 78.5464C254.472 79.4551 254.225 80.3438 253.759 81.1003C253.294 81.8567 252.632 82.4465 251.857 82.7953C251.082 83.1439 250.227 83.2357 249.404 83.0589C248.581 82.8821 247.824 82.4448 247.23 81.8022C246.636 81.1598 246.232 80.341 246.069 79.4496C245.906 78.5583 245.991 77.6345 246.312 76.7954C246.635 75.9563 247.18 75.2396 247.879 74.736C248.578 74.2325 249.399 73.9648 250.238 73.9668C251.36 73.9668 252.437 74.4493 253.231 75.308C254.024 76.1669 254.47 77.3318 254.47 78.5464Z" fill="#6B4BEF"/>
<path d="M327.258 74.9295C327.258 75.0849 312.984 75.1989 295.379 75.1989C277.774 75.1989 263.5 75.0849 263.5 74.9295C263.5 74.7742 277.764 74.6602 295.379 74.6602C312.993 74.6602 327.258 74.7844 327.258 74.9295Z" fill="#6B4BEF"/>
<path d="M289.088 80.4744C288.776 80.5561 288.453 80.5909 288.131 80.578L285.441 80.6712C283.163 80.6712 280.022 80.7438 276.558 80.7438C273.092 80.7438 269.942 80.7438 267.673 80.6712L264.973 80.578C264.651 80.5899 264.33 80.5551 264.016 80.4744C264.331 80.4 264.652 80.3652 264.973 80.3708C265.615 80.3708 266.533 80.3087 267.673 80.2879C269.942 80.2879 273.082 80.2051 276.558 80.2051C280.032 80.2051 283.163 80.2051 285.441 80.2879C286.58 80.2879 287.499 80.3397 288.131 80.3708C288.453 80.3643 288.774 80.3991 289.088 80.4744Z" fill="#6B4BEF"/>
<path d="M218.159 60.8496H84.2188V226.295H218.159V60.8496Z" fill="#FAFAFA"/>
<path d="M218.168 226.284C218.168 226.284 218.168 226.014 218.168 225.507C218.168 225 218.168 224.212 218.168 223.207C218.168 221.135 218.168 218.181 218.168 214.276C218.168 206.464 218.168 195.035 218.111 180.519C218.111 151.508 218.044 110.178 218.005 60.8496L218.225 61.0879H84.2943L84.5432 60.8185C84.5432 121.814 84.5432 178.695 84.5432 226.253L84.3325 226.025L181.33 226.181L208.499 226.243H215.66H218.129H215.697H208.584L181.463 226.305L84.1794 226.418H83.9688V226.181C83.9688 178.624 83.9688 121.742 83.9688 60.746V60.6113H84.2368H218.168H218.388V60.8496C218.341 110.241 218.302 151.622 218.272 180.675C218.272 195.181 218.225 206.578 218.215 214.369C218.215 218.254 218.215 221.239 218.215 223.258C218.215 224.295 218.215 225.01 218.215 225.528C218.215 226.046 218.168 226.284 218.168 226.284Z" fill="#263238"/>
<path d="M206.65 145.323C206.65 145.427 205.166 144.515 202.342 143.552C198.35 142.204 194.129 141.849 189.992 142.516C187.156 142.989 184.405 143.948 181.846 145.354C178.936 147.04 176.243 149.13 173.832 151.571C171.21 154.078 168.596 156.928 165.59 159.559C162.523 162.396 158.933 164.495 155.06 165.714C153.059 166.286 150.973 166.423 148.923 166.118C146.949 165.793 145.028 165.154 143.227 164.222C139.933 162.367 136.737 160.316 133.654 158.078C130.912 156.098 127.883 154.63 124.693 153.737C121.904 153 119.023 152.758 116.163 153.021C111.997 153.412 107.969 154.829 104.388 157.166C101.861 158.835 100.673 160.088 100.559 160.005C100.806 159.663 101.092 159.357 101.411 159.094C102.265 158.261 103.181 157.505 104.149 156.834C107.176 154.717 110.566 153.279 114.116 152.607C117.666 151.934 121.306 152.04 124.817 152.918C128.097 153.81 131.216 155.288 134.047 157.291C137.1 159.487 140.264 161.501 143.524 163.321C146.987 165.242 150.973 165.75 154.753 164.75C158.531 163.594 162.041 161.588 165.055 158.865C168.022 156.285 170.636 153.456 173.307 150.939C175.782 148.466 178.547 146.355 181.53 144.66C184.759 142.925 188.274 141.903 191.871 141.65C195.469 141.397 199.077 141.92 202.486 143.189C203.575 143.586 204.631 144.078 205.645 144.66C205.999 144.846 206.336 145.069 206.65 145.323Z" fill="#6B4BEF"/>
<path d="M132.468 167.547H121.086V200.878H132.468V167.547Z" fill="#6B4BEF"/>
<path d="M180.792 167.547H169.41V200.878H180.792V167.547Z" fill="#6B4BEF"/>
<path d="M196.898 147.965H185.516V200.869H196.898V147.965Z" fill="#6B4BEF"/>
<path d="M117.734 190.383H106.352V201.604H117.734V190.383Z" fill="#6B4BEF"/>
<path d="M148.591 182.592H137.199V200.869H148.591V182.592Z" fill="#6B4BEF"/>
<path d="M164.684 178.396H153.301V200.87H164.684V178.396Z" fill="#6B4BEF"/>
<path d="M132.936 204.806C132.936 205.075 130.179 205.304 126.781 205.304C123.382 205.304 120.625 205.075 120.625 204.806C120.625 204.537 123.382 204.309 126.781 204.309C130.179 204.309 132.936 204.527 132.936 204.806Z" fill="#263238"/>
<path d="M118.768 204.806C118.768 205.075 116.011 205.304 112.613 205.304C109.214 205.304 106.457 205.075 106.457 204.806C106.457 204.537 109.214 204.309 112.613 204.309C116.011 204.309 118.768 204.527 118.768 204.806Z" fill="#263238"/>
<path d="M199.148 204.806C199.148 205.075 196.036 205.304 192.198 205.304C188.359 205.304 185.238 205.075 185.238 204.806C185.238 204.537 188.349 204.309 192.198 204.309C196.046 204.309 199.148 204.527 199.148 204.806Z" fill="#263238"/>
<path d="M175.278 205.304C179.116 205.304 182.228 205.081 182.228 204.806C182.228 204.531 179.116 204.309 175.278 204.309C171.44 204.309 168.328 204.531 168.328 204.806C168.328 205.081 171.44 205.304 175.278 205.304Z" fill="#263238"/>
<path d="M164.691 204.806C164.691 205.075 161.933 205.304 158.534 205.304C155.137 205.304 152.379 205.075 152.379 204.806C152.379 204.537 155.137 204.309 158.534 204.309C161.933 204.309 164.691 204.527 164.691 204.806Z" fill="#263238"/>
<path d="M148.044 204.806C148.044 205.075 145.296 205.304 141.898 205.304C138.5 205.304 135.742 205.075 135.742 204.806C135.742 204.537 138.5 204.309 141.898 204.309C145.296 204.309 148.044 204.527 148.044 204.806Z" fill="#263238"/>
<path d="M199.145 84.9707H106.082V126.798H199.145V84.9707Z" fill="#E0E0E0"/>
<path d="M125.424 98.1799C125.425 99.1106 125.172 100.021 124.696 100.796C124.219 101.571 123.541 102.175 122.746 102.533C121.953 102.891 121.078 102.985 120.235 102.805C119.391 102.625 118.616 102.177 118.007 101.52C117.398 100.863 116.983 100.024 116.815 99.1118C116.646 98.1989 116.732 97.2527 117.06 96.3924C117.389 95.5323 117.946 94.7971 118.661 94.2798C119.376 93.7625 120.217 93.4863 121.077 93.4863C122.228 93.4863 123.332 93.9805 124.147 94.8604C124.961 95.7403 125.421 96.9341 125.424 98.1799Z" fill="#263238"/>
<path d="M159.99 94.9375H129.758V96.7507H159.99V94.9375Z" fill="#263238"/>
<path d="M188.567 99.0723H129.758V100.885H188.567V99.0723Z" fill="white"/>
<path d="M125.424 112.623C125.425 113.554 125.172 114.465 124.696 115.24C124.219 116.015 123.541 116.618 122.746 116.977C121.953 117.334 121.078 117.429 120.235 117.248C119.391 117.068 118.616 116.621 118.007 115.963C117.398 115.306 116.983 114.467 116.815 113.555C116.646 112.642 116.732 111.696 117.06 110.836C117.389 109.976 117.946 109.241 118.661 108.723C119.376 108.206 120.217 107.93 121.077 107.93C121.647 107.928 122.212 108.049 122.739 108.284C123.267 108.519 123.745 108.865 124.149 109.301C124.553 109.737 124.873 110.255 125.093 110.825C125.31 111.395 125.424 112.006 125.424 112.623Z" fill="#6B4BEF"/>
<path d="M145.19 109.381H129.758V111.194H145.19V109.381Z" fill="#6B4BEF"/>
<path d="M188.567 113.504H129.758V115.317H188.567V113.504Z" fill="white"/>
<path d="M638.937 31.1445H491.852V212.826H638.937V31.1445Z" fill="#FAFAFA"/>
<path d="M638.936 212.826C638.936 212.826 638.936 212.524 638.936 211.965C638.936 211.406 638.936 210.546 638.936 209.438C638.936 207.21 638.936 203.924 638.936 199.636C638.936 191.057 638.936 178.509 638.877 162.574C638.877 130.713 638.811 85.3222 638.773 31.1444L638.993 31.3827H491.917L492.177 31.1133C492.177 98.0974 492.177 160.564 492.128 212.794L491.917 212.567L598.612 212.68L628.434 212.742H636.293H639.013C639.013 212.742 638.112 212.742 636.341 212.742H628.52L598.728 212.918L491.899 213.032H491.688V212.804C491.688 160.575 491.688 98.1078 491.688 31.1237V30.875H491.956H639.031H639.251V31.1133C639.251 85.3533 639.165 130.797 639.137 162.698C639.137 178.623 639.137 191.15 639.08 199.718C639.08 203.977 639.08 207.251 639.08 209.468V211.965C638.936 212.545 638.936 212.826 638.936 212.826Z" fill="#263238"/>
<path d="M622.775 45.6719H503.625V149.126H622.775V45.6719Z" fill="#E0E0E0"/>
<path d="M515.852 130.736H511.945V131.959H515.852V130.736Z" fill="#263238"/>
<path d="M525.798 137.252H520.801V138.475H525.798V137.252Z" fill="#263238"/>
<path d="M543.204 137.252H538.207V138.475H543.204V137.252Z" fill="#263238"/>
<path d="M560.614 137.252H555.617V138.475H560.614V137.252Z" fill="#263238"/>
<path d="M578.02 137.252H573.023V138.475H578.02V137.252Z" fill="#263238"/>
<path d="M595.436 137.252H590.438V138.475H595.436V137.252Z" fill="#263238"/>
<path d="M612.841 137.252H607.844V138.475H612.841V137.252Z" fill="#263238"/>
<path d="M515.852 114.438H511.945V115.66H515.852V114.438Z" fill="#263238"/>
<path d="M515.852 83.7891H511.945V85.0116H515.852V83.7891Z" fill="#263238"/>
<path d="M515.852 68.3828H511.945V69.6055H515.852V68.3828Z" fill="#263238"/>
<path d="M516.051 99.1133H512.145V100.336H516.051V99.1133Z" fill="#263238"/>
<path d="M612.706 131.948C612.566 131.962 612.425 131.962 612.285 131.948H611.059H606.273L588.878 132.042L531.438 132.114H517.652V131.844C517.652 111.122 517.719 92.7935 517.739 79.6765C517.739 73.1491 517.796 67.9064 517.815 64.2697C517.815 62.4875 517.815 61.0992 517.815 60.1253C517.815 59.6694 517.815 59.3171 517.815 59.0891C517.801 58.9688 517.801 58.8468 517.815 58.7266C517.83 58.8468 517.83 58.9688 517.815 59.0891C517.815 59.3585 517.815 59.7108 517.815 60.1253C517.815 61.0992 517.815 62.4875 517.815 64.2697C517.815 67.9064 517.863 73.1491 517.892 79.6765C517.892 92.7935 517.892 111.081 517.977 131.844L517.729 131.585H531.332L588.772 131.669L606.167 131.751L610.953 131.803H612.179L612.706 131.948Z" fill="#263238"/>
<path d="M613.808 99.7245C613.808 99.8696 593.187 99.9938 567.75 99.9938C542.313 99.9938 521.684 99.8696 521.684 99.7245C521.684 99.5795 542.304 99.4551 567.75 99.4551C593.196 99.4551 613.808 99.5795 613.808 99.7245Z" fill="#263238"/>
<path d="M613.808 84.4413C613.808 84.5967 593.187 84.7107 567.75 84.7107C542.313 84.7107 521.684 84.5967 521.684 84.4413C521.684 84.2859 542.304 84.1719 567.75 84.1719C593.196 84.1719 613.808 84.2445 613.808 84.4413Z" fill="#263238"/>
<path d="M613.808 68.9842C613.808 69.1396 593.187 69.2536 567.75 69.2536C542.313 69.2536 521.684 69.1396 521.684 68.9842C521.684 68.8287 542.304 68.7148 567.75 68.7148C593.196 68.7148 613.808 68.8391 613.808 68.9842Z" fill="#263238"/>
<path d="M613.808 115.049C613.808 115.204 593.187 115.318 567.75 115.318C542.313 115.318 521.684 115.204 521.684 115.049C521.684 114.892 542.304 114.779 567.75 114.779C593.196 114.779 613.808 114.904 613.808 115.049Z" fill="#263238"/>
<path d="M522.629 128.653V115.049L530.46 101.891L535.783 106.304L546.687 87.9653L553.121 92.8661L562.071 75.9465L569.348 82.36L580.251 59.918L592.027 85.0021L601.533 72.4548L612.725 68.9839V128.653H522.629Z" fill="#455A64"/>
<path d="M613.806 64.1545C613.806 64.1545 613.739 64.1545 613.604 64.1545H613.021H610.752L602.136 64.227L602.251 64.1649L593.061 77.1887L593.003 77.2715H592.984H569.95L570.152 77.1473C567.117 82.6076 563.852 88.5444 560.472 94.5953L550.957 111.701L550.774 112.033L550.555 111.722C546.017 104.946 541.804 98.6775 538.11 93.1446H538.416L526.976 112.416L523.787 117.711L522.936 119.089C522.744 119.4 522.629 119.555 522.629 119.555C522.629 119.555 522.706 119.379 522.888 119.057L523.683 117.638L526.785 112.281L538.033 92.9996L538.196 92.7199L538.368 92.9893L550.861 111.546H550.459L559.956 94.4295L569.654 76.9918L569.721 76.8674H569.865H592.898L592.745 76.9504L602.021 64.0095V63.9473H602.088L610.704 64.0198H612.973H613.557L613.806 64.1545Z" fill="#870FE6"/>
<path d="M541.987 97.5063C541.994 97.6985 541.949 97.8887 541.855 98.0525C541.763 98.2163 541.627 98.3462 541.465 98.4255C541.303 98.5048 541.123 98.5299 540.948 98.4976C540.772 98.4652 540.61 98.3769 540.481 98.2439C540.354 98.111 540.265 97.9395 540.227 97.7515C540.189 97.5636 540.205 97.3678 540.271 97.1893C540.337 97.0108 540.451 96.8578 540.598 96.7499C540.746 96.6421 540.918 96.5843 541.096 96.5842C541.21 96.5815 541.325 96.6032 541.431 96.648C541.538 96.6929 541.635 96.76 541.718 96.8457C541.801 96.9313 541.868 97.0337 541.913 97.147C541.959 97.2604 541.984 97.3825 541.987 97.5063Z" fill="#870FE6"/>
<path d="M568.553 81.1578C568.563 81.3508 568.518 81.5423 568.427 81.7077C568.334 81.873 568.198 82.0046 568.036 82.0853C567.874 82.1658 567.693 82.1919 567.516 82.1599C567.341 82.128 567.178 82.0395 567.049 81.906C566.92 81.7725 566.831 81.6001 566.793 81.4112C566.756 81.2223 566.772 81.0256 566.84 80.8466C566.907 80.6677 567.022 80.5148 567.171 80.4077C567.319 80.3006 567.494 80.2443 567.672 80.2462C567.9 80.2433 568.12 80.3371 568.284 80.5076C568.45 80.678 568.546 80.9115 568.553 81.1578Z" fill="#870FE6"/>
<path d="M589.213 77.19C589.222 77.3821 589.176 77.5723 589.083 77.7362C588.989 77.8999 588.853 78.0299 588.691 78.1092C588.529 78.1885 588.349 78.2136 588.174 78.1812C587.999 78.1489 587.837 78.0605 587.709 77.9275C587.58 77.7946 587.491 77.6231 587.454 77.4351C587.416 77.2472 587.432 77.0513 587.497 76.8729C587.564 76.6944 587.678 76.5413 587.825 76.4335C587.972 76.3258 588.146 76.268 588.324 76.2678C588.438 76.2651 588.551 76.2868 588.658 76.3316C588.766 76.3764 588.863 76.4437 588.946 76.5292C589.027 76.6149 589.094 76.7173 589.14 76.8308C589.187 76.9441 589.211 77.0662 589.213 77.19Z" fill="#870FE6"/>
<path d="M617.406 164.502C617.406 164.657 592.267 164.771 561.259 164.771C530.25 164.771 505.102 164.657 505.102 164.502C505.102 164.347 530.241 164.232 561.259 164.232C592.276 164.232 617.406 164.357 617.406 164.502Z" fill="#263238"/>
<path d="M617.406 171.07C617.406 171.225 592.267 171.339 561.259 171.339C530.25 171.339 505.102 171.225 505.102 171.07C505.102 170.915 530.241 170.801 561.259 170.801C592.276 170.801 617.406 170.925 617.406 171.07Z" fill="#263238"/>
<path d="M617.406 177.691C617.406 177.836 592.267 177.961 561.259 177.961C530.25 177.961 505.102 177.836 505.102 177.691C505.102 177.546 530.241 177.422 561.259 177.422C592.276 177.422 617.406 177.494 617.406 177.691Z" fill="#263238"/>
<path d="M617.406 184.219C617.406 184.363 592.267 184.488 561.259 184.488C530.25 184.488 505.102 184.363 505.102 184.219C505.102 184.074 530.241 183.949 561.259 183.949C592.276 183.949 617.406 184.063 617.406 184.219Z" fill="#263238"/>
<path d="M566.913 213.216C569.986 207.988 570.886 201.024 571.699 194.99C572.063 192.148 572.714 188.112 570.743 186.328C568.77 184.543 568.445 181.478 566.023 180.013C564.821 179.252 563.429 178.854 562.011 178.865C560.593 178.878 559.208 179.299 558.02 180.081" fill="#263238"/>
<path d="M558.395 231.733C557.282 231.82 556.164 231.678 555.108 231.318C554.05 230.956 553.075 230.383 552.243 229.631C551.409 228.879 550.735 227.965 550.259 226.942C549.782 225.921 549.516 224.812 549.472 223.682C549.3 219.104 549.147 214.487 549.147 214.487C549.147 214.487 542.311 213.836 541.814 206.979C541.316 200.12 541.545 184.29 541.545 184.29C545.295 182.375 549.482 181.509 553.673 181.782C557.863 182.054 561.905 183.457 565.383 185.842L564.961 209.975V222.964C564.914 227.319 562.683 231.403 558.395 231.733Z" fill="#FFBE9D"/>
<path d="M548.551 198.607C549.049 197.875 549.805 197.36 550.663 197.169C551.522 196.978 552.42 197.125 553.176 197.579C553.94 198.12 554.491 198.917 554.731 199.83C554.972 200.743 554.884 201.711 554.486 202.565C554.136 203.198 553.659 203.751 553.088 204.188C552.516 204.625 551.862 204.939 551.165 205.106C550.541 205.247 549.989 205.612 549.613 206.136C549.238 206.66 549.064 207.304 549.126 207.949C549.327 209.665 552.151 210.316 553.424 211.741C555.405 213.953 559.762 214.894 562.701 215.243C565.64 215.593 565.229 215.612 566.903 213.216C568.036 211.592 568.614 209.637 568.55 207.648L568.866 192.477C568.977 190.656 568.861 188.827 568.522 187.036C568.163 185.22 567.135 183.611 565.65 182.535C564.003 181.438 561.916 181.341 560.049 180.731C557.703 179.964 555.712 178.383 553.52 177.248C551.327 176.114 548.638 175.435 546.435 176.55C544.856 177.355 543.793 178.955 542.253 179.838C540.069 181.099 537.093 180.808 536.029 184.077C535.652 185.207 535.652 186.43 536.029 187.56C537.514 192.002 542.932 193.787 546.838 191.866C546.915 192.623 546.187 194.291 546.962 196.667C547.212 197.424 547.306 198.607 548.475 198.607" fill="#263238"/>
<path d="M549.769 202.886C549.826 202.886 550.056 203.245 550.621 203.215C550.978 203.14 551.298 202.943 551.528 202.656C551.758 202.371 551.884 202.013 551.885 201.644C551.901 201.271 551.798 200.901 551.589 200.593C551.379 200.285 551.076 200.054 550.727 199.937C550.162 199.734 549.769 199.84 549.769 199.762C549.769 199.685 550.143 199.452 550.841 199.598C551.249 199.692 551.62 199.907 551.904 200.219C552.253 200.617 552.432 201.141 552.401 201.674C552.417 202.166 552.242 202.645 551.912 203.008C551.582 203.371 551.126 203.587 550.641 203.614C550.495 203.609 550.352 203.573 550.222 203.508C550.092 203.443 549.976 203.349 549.884 203.235C549.74 203.012 549.74 202.896 549.769 202.886Z" fill="#EB996E"/>
<path d="M556.812 182.205C556.812 182.205 556.956 181.944 557.377 181.623C557.989 181.192 558.695 180.916 559.435 180.819C560.539 180.672 561.66 180.843 562.671 181.313C563.893 181.92 564.927 182.856 565.658 184.02C566.897 186.131 567.619 188.513 567.764 190.965C567.906 191.957 567.967 192.96 567.946 193.962C567.683 193.01 567.503 192.035 567.41 191.052C567.176 188.683 566.437 186.392 565.246 184.339C564.563 183.254 563.609 182.37 562.48 181.779C561.584 181.322 560.581 181.124 559.581 181.206C558.582 181.288 557.624 181.647 556.812 182.244V182.205Z" fill="#455A64"/>
<path d="M537.751 189.228C537.666 189.246 537.579 189.246 537.493 189.228C537.254 189.167 537.026 189.062 536.823 188.918C536.494 188.689 536.225 188.383 536.038 188.026C535.779 187.54 535.704 186.974 535.827 186.435C535.975 185.779 536.365 185.206 536.919 184.835C537.575 184.477 538.322 184.327 539.063 184.408C539.784 184.495 540.51 184.308 541.103 183.884C541.704 183.331 542.258 182.727 542.759 182.08C543.895 180.853 545.363 179.995 546.981 179.616C548.278 179.287 549.632 179.253 550.944 179.519C551.827 179.691 552.672 180.019 553.443 180.489C553.731 180.646 553.993 180.849 554.218 181.091C553.174 180.518 552.051 180.106 550.886 179.869C549.612 179.651 548.306 179.713 547.057 180.052C545.543 180.438 544.171 181.256 543.104 182.41C542.581 183.081 542.001 183.704 541.371 184.272C541.026 184.538 540.627 184.721 540.202 184.805C539.813 184.867 539.419 184.886 539.026 184.863C538.371 184.772 537.704 184.879 537.11 185.174C536.635 185.481 536.293 185.959 536.154 186.512C536.056 186.921 536.077 187.349 536.213 187.746C536.348 188.143 536.594 188.492 536.919 188.754C537.183 188.935 537.462 189.094 537.751 189.228Z" fill="#455A64"/>
<path d="M555.867 208.307C555.867 208.258 556.202 208.132 556.758 207.754C557.539 207.218 558.175 206.491 558.605 205.639C558.918 205.024 559.105 204.352 559.159 203.663C559.211 202.974 559.127 202.28 558.912 201.624C558.671 200.846 558.251 200.138 557.686 199.557C557.052 198.944 556.34 198.419 555.57 197.996C554.775 197.53 553.972 197.093 553.244 196.589C552.51 196.105 551.863 195.499 551.329 194.795C550.451 193.611 549.903 192.211 549.739 190.74C549.63 189.764 549.708 188.776 549.97 187.83C550.029 187.571 550.119 187.32 550.238 187.083C550.314 186.908 550.363 186.83 550.372 186.841C550.039 188.105 549.944 189.421 550.095 190.721C550.294 192.113 550.846 193.429 551.693 194.543C552.197 195.19 552.798 195.753 553.473 196.211C554.183 196.686 554.977 197.112 555.78 197.588C556.593 198.035 557.342 198.593 558.001 199.248C558.61 199.884 559.06 200.659 559.313 201.507C559.536 202.223 559.611 202.976 559.535 203.721C559.459 204.467 559.234 205.189 558.873 205.844C558.391 206.712 557.683 207.431 556.825 207.919C556.534 208.111 556.209 208.242 555.867 208.307Z" fill="#455A64"/>
<path d="M567.604 198.24C567.326 198.352 567.031 198.42 566.733 198.443C565.922 198.541 565.106 198.564 564.292 198.511C561.589 198.34 558.982 197.432 556.748 195.882C554.432 194.412 552.682 192.185 551.789 189.568C551.561 188.759 551.528 187.907 551.693 187.085C551.737 186.78 551.852 186.49 552.029 186.24C551.778 187.307 551.813 188.422 552.133 189.471C553.087 191.948 554.802 194.05 557.025 195.466C559.2 196.958 561.707 197.881 564.32 198.152C566.33 198.376 567.595 198.143 567.604 198.24Z" fill="#455A64"/>
<path d="M568.657 193.543C569.802 192.173 571.234 191.078 572.848 190.337C574.463 189.596 576.219 189.227 577.991 189.255C581.514 189.46 584.95 191.933 585.812 195.396C586.463 198.015 585.668 200.74 585.343 203.408C585.017 206.075 585.342 209.228 587.478 210.789C588.78 211.759 590.455 211.915 592.016 212.303C593.576 212.691 595.232 213.477 595.768 215.01C596.381 216.765 595.127 218.754 593.442 219.5C591.691 220.116 589.79 220.144 588.023 219.578C588.372 220.588 588.363 221.688 587.995 222.691C587.628 223.693 586.927 224.534 586.013 225.068C585.078 225.568 584.029 225.808 582.973 225.764C581.918 225.719 580.892 225.393 580.001 224.816C578.228 223.628 576.928 221.841 576.334 219.772C575.176 221.838 572.132 222.274 570.179 220.955C569.238 220.241 568.509 219.28 568.07 218.175C567.632 217.07 567.501 215.864 567.689 214.689C568.098 212.335 569.184 210.155 570.811 208.423C571.638 207.572 572.367 206.629 572.984 205.61C573.288 205.097 573.461 204.514 573.484 203.916C573.507 203.317 573.382 202.722 573.118 202.186C572.974 201.93 572.778 201.708 572.542 201.536C572.306 201.363 572.037 201.243 571.753 201.185C571.468 201.128 571.173 201.133 570.89 201.2C570.607 201.266 570.342 201.395 570.112 201.574" fill="#263238"/>
<path d="M572.745 200.791C572.429 200.946 572.082 201.026 571.73 201.026C571.378 201.026 571.032 200.946 570.715 200.791C569.934 200.46 569.25 199.928 568.733 199.247C568.216 198.567 567.883 197.761 567.767 196.911C567.613 195.971 567.723 195.006 568.083 194.127C568.378 193.418 568.822 192.781 569.385 192.265C569.863 191.759 570.486 191.42 571.166 191.295C570.629 191.681 570.118 192.103 569.633 192.555C569.089 193.117 568.682 193.8 568.443 194.55C568.203 195.298 568.139 196.094 568.256 196.872C568.365 197.647 568.659 198.383 569.11 199.018C569.562 199.654 570.159 200.169 570.849 200.519C571.458 200.734 572.101 200.826 572.745 200.791Z" fill="#870FE6"/>
<path d="M548.924 214.369C548.402 214.448 547.869 214.396 547.372 214.214C546.153 213.87 545.026 213.249 544.078 212.399C543.129 211.548 542.383 210.491 541.897 209.306C541.658 208.832 541.539 208.305 541.552 207.773C541.804 208.22 542.024 208.683 542.212 209.161C542.755 210.262 543.499 211.249 544.405 212.071C545.308 212.873 546.35 213.501 547.478 213.923C547.971 214.034 548.454 214.183 548.924 214.369Z" fill="#EB996E"/>
<path d="M574.983 219.986C574.983 219.986 574.859 219.986 574.648 219.986C574.336 219.901 574.039 219.766 573.768 219.589C572.784 218.883 572.101 217.826 571.852 216.63C571.659 215.814 571.63 214.966 571.767 214.138C571.936 213.2 572.239 212.291 572.666 211.441C573.518 209.627 574.859 207.91 575.855 205.921C576.338 204.964 576.662 203.931 576.811 202.866C576.996 201.53 576.724 200.17 576.039 199.012C575.355 197.854 574.3 196.969 573.05 196.503C571.973 196.124 570.813 196.054 569.698 196.299C568.904 196.464 568.502 196.687 568.483 196.648C568.464 196.609 568.569 196.571 568.76 196.454C569.046 196.31 569.344 196.194 569.651 196.105C571.097 195.69 572.643 195.836 573.988 196.516C575.333 197.196 576.377 198.361 576.917 199.782C577.302 200.78 577.433 201.861 577.301 202.925C577.13 204.049 576.777 205.137 576.256 206.145C575.222 208.201 573.872 209.899 573.03 211.645C572.18 213.127 571.868 214.862 572.149 216.553C572.349 217.696 572.948 218.729 573.835 219.463C574.202 219.67 574.587 219.846 574.983 219.986Z" fill="#455A64"/>
<path d="M585.191 225.04C585.051 225.055 584.909 225.055 584.769 225.04C584.359 225.022 583.954 224.95 583.562 224.827C582.11 224.327 580.866 223.347 580.031 222.042C578.839 220.087 578.309 217.792 578.518 215.504C578.782 212.774 579.217 210.062 579.819 207.386C580.065 206.008 580.161 204.605 580.106 203.206C580.038 201.915 579.743 200.647 579.236 199.462C578.817 198.45 578.163 197.556 577.329 196.858C576.495 196.158 575.507 195.673 574.449 195.446C573.015 195.114 571.527 195.114 570.093 195.446C569.068 195.679 568.533 195.91 568.513 195.862C568.494 195.813 568.638 195.776 568.887 195.659C569.264 195.5 569.651 195.363 570.046 195.251C571.505 194.834 573.041 194.778 574.525 195.086C575.567 195.298 576.548 195.742 577.397 196.386C578.37 197.152 579.136 198.153 579.628 199.296C580.179 200.52 580.504 201.834 580.586 203.176C580.659 204.612 580.565 206.051 580.308 207.464C579.717 210.124 579.269 212.815 578.967 215.524C578.748 217.722 579.224 219.933 580.326 221.839C581.096 223.108 582.252 224.089 583.621 224.633C584.132 224.81 584.658 224.945 585.191 225.04Z" fill="#455A64"/>
<path d="M587.228 256.244L572.82 267.632L578.861 277.701L596.227 264.741L587.228 256.244Z" fill="#FFBE9D"/>
<path d="M548.668 217.958C548.668 217.958 548.744 216.736 545.595 216.562C544.433 216.459 543.267 216.42 542.101 216.445C541.409 215.589 540.897 214.599 540.598 213.535C540.648 212.501 540.874 211.483 541.267 210.528L544.456 210.237L543.594 208.045L541.344 208.2L535.017 208.976L532.499 220.189L515.209 252.878C514.548 253.883 514.108 255.018 513.916 256.209C513.725 257.401 513.789 258.62 514.101 259.785C514.415 260.949 514.97 262.032 515.731 262.961C516.492 263.89 517.441 264.642 518.512 265.168C522.983 267.36 528.966 262.714 530.623 257.97L540.195 221.606L543.565 218.948L548.352 218.055" fill="#FFBE9D"/>
<path d="M509.301 435.53L532.803 298.372C532.86 298.168 532.908 297.974 532.956 297.78C536.967 281.688 543.142 276.537 543.142 276.537L579.148 278.826C582.211 284.404 582.604 297.78 582.604 297.78C583.025 299.42 574.993 432.339 574.993 432.339L562.911 431.961L556.382 306.21L521.334 436.063L509.301 435.53Z" fill="#FFBE9D"/>
<path d="M508.984 436.772L509.032 435.541L521.42 435.899L521.314 439.982H520.549C517.14 440.07 503.211 440.187 500.952 439.479C498.444 438.712 508.984 436.772 508.984 436.772Z" fill="#870FE6"/>
<g opacity="0.6">
<path d="M516.844 439.77C517.071 438.778 517.659 437.908 518.49 437.335C519.331 436.751 520.346 436.48 521.362 436.569L521.266 439.818L516.844 439.77Z" fill="white"/>
</g>
<g opacity="0.6">
<path d="M503.827 437.896C503.827 437.896 500.131 438.789 500.572 439.371C501.012 439.953 515.095 440.341 521.317 439.981V439.72L504.88 439.41C504.88 439.41 504.516 437.944 503.827 437.896Z" fill="white"/>
</g>
<path d="M521.498 439.72H521.288H520.674H518.434C516.52 439.72 513.915 439.72 511.025 439.642C508.134 439.564 505.52 439.448 503.625 439.332L501.384 439.186H500.781C500.637 439.186 500.57 439.186 500.57 439.186H500.781H501.394L503.633 439.283C505.549 439.37 508.143 439.477 511.034 439.554C513.925 439.632 516.539 439.651 518.434 439.671H521.498V439.72Z" fill="#263238"/>
<path d="M504.868 439.593C504.74 438.855 504.336 438.194 503.738 437.75C504.113 437.88 504.425 438.152 504.61 438.507C504.722 438.662 504.802 438.838 504.846 439.025C504.891 439.211 504.898 439.405 504.868 439.593Z" fill="#263238"/>
<path d="M508.563 437.954C508.563 437.954 508.362 437.77 508.189 437.499C508.018 437.227 507.902 436.993 507.941 436.974C507.979 436.955 508.142 437.159 508.314 437.43C508.486 437.702 508.601 437.935 508.563 437.954Z" fill="#263238"/>
<path d="M509.581 437.47C509.581 437.47 509.36 437.364 509.15 437.179C508.939 436.995 508.796 436.82 508.824 436.791C508.987 436.854 509.134 436.953 509.255 437.082C509.465 437.286 509.609 437.47 509.581 437.47Z" fill="#263238"/>
<path d="M510.259 436.403C510.052 436.47 509.834 436.493 509.618 436.47C509.401 436.488 509.182 436.459 508.977 436.383C509.183 436.316 509.402 436.297 509.618 436.325C509.834 436.308 510.052 436.334 510.259 436.403Z" fill="#263238"/>
<path d="M510.48 435.637C510.264 435.771 510.014 435.835 509.762 435.822C509.507 435.857 509.248 435.817 509.016 435.705C509.26 435.685 509.507 435.685 509.752 435.705C509.993 435.661 510.236 435.638 510.48 435.637Z" fill="#263238"/>
<path d="M508.173 436.937C507.912 436.975 507.648 436.975 507.388 436.937C507.103 436.894 506.821 436.829 506.546 436.743C506.38 436.69 506.221 436.621 506.067 436.539C505.975 436.487 505.907 436.4 505.875 436.297C505.865 436.24 505.874 436.182 505.897 436.129C505.921 436.078 505.96 436.035 506.009 436.006C506.313 435.872 506.653 435.843 506.974 435.924C507.296 436.005 507.582 436.19 507.791 436.452C507.91 436.598 507.995 436.771 508.039 436.957C508.039 437.093 508.039 437.16 508.039 437.16C507.967 436.925 507.854 436.705 507.704 436.511C507.523 436.31 507.292 436.161 507.034 436.084C506.727 435.961 506.384 435.961 506.077 436.084C505.952 436.161 506 436.306 506.134 436.384C506.273 436.464 506.421 436.529 506.575 436.578C506.84 436.671 507.111 436.747 507.388 436.802C507.876 436.899 508.173 436.908 508.173 436.937Z" fill="#263238"/>
<path d="M507.971 436.966C507.879 436.809 507.852 436.621 507.895 436.443C507.925 436.245 508.004 436.058 508.125 435.899C508.2 435.79 508.301 435.701 508.417 435.638C508.534 435.575 508.663 435.542 508.795 435.541C508.872 435.555 508.941 435.599 508.986 435.665C509.031 435.73 509.048 435.811 509.034 435.889C509.012 436.009 508.963 436.122 508.89 436.219C508.777 436.383 508.646 436.533 508.498 436.666C508.368 436.795 508.211 436.896 508.038 436.957C508.038 436.957 508.201 436.821 508.422 436.598C508.556 436.465 508.671 436.315 508.766 436.152C508.88 435.996 508.967 435.714 508.766 435.676C508.661 435.687 508.56 435.72 508.469 435.774C508.379 435.827 508.3 435.899 508.239 435.987C508.121 436.122 508.038 436.285 508.001 436.462C507.971 436.629 507.962 436.797 507.971 436.966Z" fill="#263238"/>
<path d="M521.343 436.5C521.343 436.5 520.989 436.5 520.385 436.5C519.667 436.567 518.976 436.814 518.375 437.218C517.803 437.628 517.355 438.193 517.082 438.847C516.882 439.332 516.852 439.672 516.824 439.662C516.809 439.585 516.809 439.506 516.824 439.429C516.852 439.217 516.903 439.009 516.978 438.808C517.23 438.12 517.684 437.528 518.28 437.111C518.898 436.68 519.626 436.435 520.375 436.403C520.598 436.379 520.823 436.379 521.046 436.403C521.152 436.41 521.253 436.443 521.343 436.5Z" fill="#263238"/>
<path d="M515.332 438.595C514.736 438.714 514.129 438.756 513.523 438.722C512.918 438.729 512.314 438.666 511.723 438.537C511.723 438.489 512.537 438.537 513.523 438.537C514.508 438.537 515.322 438.556 515.332 438.595Z" fill="#263238"/>
<path d="M517.747 438.664C517.747 438.664 517.68 438.819 517.593 438.994C517.507 439.168 517.45 439.313 517.412 439.313C517.373 439.313 517.353 439.129 517.412 438.925C517.469 438.722 517.717 438.634 517.747 438.664Z" fill="#263238"/>
<path d="M518.692 437.616C518.692 437.616 518.635 437.761 518.5 437.877C518.366 437.993 518.242 438.071 518.212 438.043C518.184 438.013 518.271 437.896 518.395 437.78C518.519 437.664 518.663 437.586 518.692 437.616Z" fill="#263238"/>
<path d="M520.005 437.159C520.005 437.159 519.832 437.159 519.651 437.247C519.468 437.334 519.334 437.392 519.305 437.364C519.277 437.334 519.382 437.179 519.602 437.111C519.822 437.043 520.023 437.131 520.005 437.159Z" fill="#263238"/>
<path d="M520.944 436.955C520.944 436.955 520.886 437.052 520.782 437.082C520.676 437.11 520.581 437.082 520.571 437.082C520.562 437.082 520.628 436.985 520.733 436.955C520.839 436.927 520.925 436.916 520.944 436.955Z" fill="#263238"/>
<path d="M569.488 221.82C572.915 222.364 576.184 223.662 579.062 225.623C590.444 233.102 609.486 248.903 607.906 256.246C606.527 262.474 591.632 270.049 591.632 270.049L582.058 258.292L587.965 254.868L573.442 245.071L569.488 221.82Z" fill="#263238"/>
<path d="M575.98 245.633L575.512 247.379L573.836 255.488L573.443 267.37C582.059 278.642 582.212 288.128 582.212 288.128L538.587 293.289C538.587 284.559 541.736 273.559 541.736 273.559C544.254 269.222 544.139 256.244 543.651 255.769C540.932 253.034 540.271 251.025 542.445 247.524C542.445 247.524 528.917 261.919 527.53 263.209C522.742 267.652 518.147 266.41 516.042 264.48C510.068 259.077 516.195 252.113 516.195 252.113L538.979 225.66C540.528 223.847 542.596 222.569 544.896 222.004C546.507 221.63 548.138 221.337 549.778 221.131L564.99 221.256C566.512 221.308 568.029 221.496 569.518 221.819C571.235 222.521 572.747 223.655 573.91 225.116C575.072 226.575 575.847 228.312 576.161 230.161C577.493 236.787 575.98 245.633 575.98 245.633Z" fill="#263238"/>
<path d="M576.457 235.031C576.535 235.453 576.568 235.883 576.553 236.312C576.553 237.137 576.553 238.34 576.467 239.814C576.203 243.647 575.7 247.46 574.964 251.23C574.687 252.734 574.38 254.189 574.065 255.537V255.489C573.93 258.923 573.796 261.891 573.681 264.006C573.614 264.976 573.567 265.81 573.528 266.47C573.526 266.77 573.487 267.07 573.414 267.362C573.359 267.067 573.343 266.767 573.365 266.47C573.365 265.8 573.365 264.976 573.365 263.995C573.365 261.881 573.471 258.904 573.576 255.47V255.421C573.872 254.092 574.169 252.637 574.447 251.133C575.28 246.729 575.835 242.705 576.093 239.775C576.219 238.31 576.286 237.126 576.333 236.303C576.336 235.876 576.377 235.45 576.457 235.031Z" fill="#455A64"/>
<path d="M576.602 246.912C582.004 250.291 587.229 253.953 592.254 257.883C589.507 256.271 586.848 254.509 584.289 252.607C581.631 250.846 579.065 248.945 576.602 246.912Z" fill="#455A64"/>
<path d="M548.398 229.588C548.398 229.588 548.494 229.637 548.628 229.762C548.824 229.947 549.003 230.148 549.163 230.364C549.757 231.174 550.164 232.109 550.351 233.099C550.633 234.576 550.547 236.099 550.102 237.533C549.531 239.265 548.704 240.9 547.651 242.383C547.11 243.146 546.508 243.863 545.852 244.526C545.219 245.176 544.54 245.709 543.936 246.263C542.73 247.358 541.696 248.397 540.834 249.289C539.973 250.182 539.294 250.908 538.824 251.413C538.356 251.917 538.088 252.209 538.059 252.18C538.231 251.859 538.441 251.56 538.68 251.287C539.103 250.744 539.744 249.968 540.596 249.037C541.448 248.106 542.443 247.097 543.649 245.923C544.253 245.351 544.914 244.808 545.565 244.177C546.2 243.527 546.782 242.827 547.306 242.081C548.325 240.654 549.136 239.086 549.719 237.425C550.162 236.064 550.28 234.615 550.064 233.196C549.82 231.87 549.247 230.628 548.398 229.588Z" fill="#455A64"/>
<path d="M543.324 268.671L543.832 262.734H573.585L573.423 267.371L543.324 268.671Z" fill="#455A64"/>
<path d="M517.917 250.948C517.329 251.495 516.775 252.078 516.26 252.694C515.065 254.205 514.45 256.103 514.528 258.037C514.604 259.971 515.37 261.812 516.682 263.219C517.25 263.788 517.847 264.325 518.472 264.829C518.472 264.829 518.232 264.829 517.858 264.567C517.337 264.268 516.858 263.899 516.432 263.471C514.973 262.047 514.111 260.107 514.03 258.057C513.948 256.005 514.65 254.001 515.992 252.461C516.379 251.998 516.826 251.59 517.323 251.249C517.706 251.017 517.917 250.92 517.917 250.948Z" fill="#455A64"/>
<path d="M574.953 432.301L578.333 440.254L563.227 440.07L562.91 431.961L574.953 432.301Z" fill="#870FE6"/>
<path d="M563.121 438.693C563.82 438.783 564.523 438.819 565.228 438.8C566.538 438.8 568.348 438.8 570.34 438.8L575.433 438.693C576.14 438.706 576.847 438.667 577.548 438.577C576.846 438.493 576.139 438.461 575.433 438.48C574.121 438.48 572.321 438.48 570.33 438.48L565.228 438.577C564.523 438.573 563.821 438.612 563.121 438.693Z" fill="#263238"/>
<path d="M569.41 432.125C569.229 433.189 569.209 434.275 569.353 435.345C569.331 436.427 569.47 437.506 569.764 438.545C569.947 437.482 569.966 436.395 569.822 435.326C569.843 434.243 569.704 433.165 569.41 432.125Z" fill="#263238"/>
<path opacity="0.6" d="M578.305 440.42L563.217 439.906L563.121 438.451L577.548 438.577L578.313 440.245" fill="white"/>
<path d="M581.226 280.466C592.59 316.793 577.942 360.889 581.456 403.22C581.8 407.381 583.466 412.347 579.627 414.714C578.579 415.336 577.374 415.636 576.161 415.577C573.098 415.471 570.532 413.86 567.794 412.755C562.537 410.65 556.731 410.421 551.328 412.105C547.71 413.25 544.11 415.277 540.357 414.704C535.37 413.938 532.143 408.943 527.557 406.827C523.259 404.889 518.3 405.587 513.58 405.471H513.437C511.843 405.405 510.283 404.978 508.875 404.216C507.467 403.455 506.247 402.381 505.306 401.076C504.365 399.77 503.728 398.265 503.441 396.674C503.155 395.084 503.228 393.448 503.653 391.891C510.517 366.438 533.254 283.774 543.325 268.701L573.442 267.371C576.2 270.766 579.761 275.84 581.226 280.466Z" fill="#5478F6"/>
<path d="M570.686 297.566C570.209 298.315 569.66 299.013 569.048 299.652C567.668 301.284 566.184 302.824 564.606 304.261C562.991 305.662 561.232 306.885 559.36 307.907C558.606 308.371 557.803 308.749 556.967 309.032C556.861 308.857 560.547 307.092 564.271 303.871C566.128 302.242 567.651 300.584 568.79 299.411C569.362 298.735 569.996 298.118 570.686 297.566Z" fill="#263238"/>
<g opacity="0.1">
<path d="M557.398 311.273C547.911 336.061 546.159 363.2 552.382 389.029C552.917 391.249 553.472 393.772 552.219 395.683C550.61 398.147 546.695 397.981 544.484 396.042C542.271 394.101 541.391 391.066 540.835 388.156C536.7 366.486 544.187 344.7 552.266 324.203" fill="black"/>
</g>
<path d="M386.684 323.514H329.637V326.327H386.684V323.514Z" fill="#263238"/>
<path d="M320.791 326.327L310.098 285.703H354.633L364.321 326.327H320.791Z" fill="#263238"/>
<path d="M361.654 323.253H321.867L312.609 287.576H352.597L361.654 323.253Z" fill="#F5F5F5"/>
<path d="M313.27 290.147H353.258L352.579 287.576H312.609L313.27 290.147Z" fill="#EBEBEB"/>
<path d="M317.586 288.866C317.586 288.954 317.611 289.041 317.66 289.114C317.709 289.188 317.777 289.245 317.857 289.278C317.938 289.312 318.026 289.321 318.112 289.303C318.198 289.286 318.276 289.244 318.338 289.181C318.399 289.119 318.441 289.04 318.459 288.953C318.476 288.866 318.466 288.777 318.433 288.695C318.4 288.614 318.343 288.544 318.271 288.495C318.198 288.446 318.113 288.42 318.026 288.42C317.91 288.42 317.798 288.467 317.715 288.551C317.632 288.634 317.586 288.747 317.586 288.866Z" fill="#FAFAFA"/>
<path d="M316.082 288.866C316.082 288.954 316.108 289.041 316.156 289.114C316.205 289.188 316.273 289.245 316.353 289.278C316.434 289.312 316.523 289.321 316.608 289.303C316.693 289.286 316.772 289.244 316.833 289.181C316.895 289.119 316.938 289.04 316.955 288.953C316.97 288.866 316.962 288.777 316.929 288.695C316.896 288.614 316.839 288.544 316.767 288.495C316.694 288.446 316.609 288.42 316.523 288.42C316.406 288.42 316.294 288.467 316.211 288.551C316.128 288.634 316.082 288.747 316.082 288.866Z" fill="#FAFAFA"/>
<path d="M314.582 288.866C314.584 288.983 314.632 289.093 314.713 289.175C314.796 289.256 314.907 289.303 315.023 289.302C315.126 289.287 315.222 289.234 315.29 289.153C315.36 289.072 315.397 288.968 315.397 288.862C315.397 288.754 315.36 288.65 315.29 288.569C315.222 288.488 315.126 288.436 315.023 288.42C314.964 288.42 314.907 288.431 314.853 288.454C314.8 288.476 314.751 288.509 314.711 288.551C314.67 288.592 314.637 288.641 314.615 288.695C314.593 288.75 314.582 288.808 314.582 288.866Z" fill="#FAFAFA"/>
<path d="M343.33 305.773L347.715 310.855C348.533 310.283 349.202 309.52 349.667 308.63C350.132 307.741 350.379 306.75 350.386 305.744C350.386 302.193 347.17 299.283 343.292 299.303C339.415 299.322 336.227 302.213 336.246 305.802L343.33 305.773Z" fill="#870FE6"/>
<path d="M342.773 306.589C343.228 306.972 343.648 307.398 344.028 307.859C344.813 308.713 345.942 309.954 347.263 311.468L347.416 311.642L347.225 311.778C346.161 312.536 344.924 313.001 343.63 313.13C342.336 313.259 341.032 313.048 339.844 312.515C338.626 311.987 337.573 311.132 336.799 310.042C336.121 309.06 335.733 307.903 335.68 306.705V306.521H335.9C337.997 306.521 339.728 306.521 340.936 306.521C341.553 306.499 342.17 306.529 342.783 306.607C342.149 306.708 341.509 306.759 340.869 306.762C339.662 306.821 337.997 306.879 335.91 306.937L336.12 306.705C336.201 307.811 336.578 308.875 337.211 309.78C337.944 310.794 338.937 311.586 340.083 312.069C341.197 312.565 342.418 312.77 343.63 312.662C344.843 312.556 346.01 312.142 347.024 311.457V311.769C345.751 310.265 344.707 308.993 343.979 308.092C343.541 307.622 343.137 307.12 342.773 306.589Z" fill="#263238"/>
<path d="M339.91 301.941C339.913 302.049 339.955 302.151 340.031 302.227C340.105 302.303 340.206 302.346 340.312 302.349C340.418 302.346 340.517 302.302 340.59 302.225C340.663 302.15 340.705 302.047 340.705 301.941C340.705 301.889 340.694 301.837 340.674 301.79C340.655 301.74 340.626 301.697 340.589 301.661C340.553 301.623 340.51 301.594 340.463 301.574C340.415 301.554 340.364 301.543 340.312 301.543C340.259 301.542 340.207 301.552 340.158 301.572C340.11 301.591 340.066 301.62 340.028 301.656C339.99 301.694 339.961 301.738 339.941 301.787C339.92 301.835 339.91 301.888 339.91 301.941Z" fill="#263238"/>
<path d="M332.031 299.04C333.596 298.779 335.184 298.688 336.77 298.768H337.497L337.573 298.837C338.594 299.768 339.513 300.809 340.311 301.941C339.187 301.14 338.151 300.22 337.219 299.195L337.402 299.264H336.77C335.187 299.354 333.599 299.28 332.031 299.04Z" fill="#263238"/>
<path d="M323.082 304.114C322.882 303.502 322.727 302.877 322.623 302.241C322.354 301.01 321.981 299.215 321.541 297.013L321.492 296.77H321.742L331.64 296.684C331.583 296.684 332.11 297.081 331.89 296.897V297.003V297.12V297.363L331.975 297.837C332.033 298.158 332.1 298.468 332.158 298.807C332.272 299.428 332.378 300.04 332.492 300.641C332.712 301.834 332.913 302.978 333.115 304.065L333.163 304.336H332.895C329.917 304.336 327.419 304.288 325.676 304.259L323.675 304.201C323.448 304.21 323.219 304.19 322.996 304.142C323.248 304.1 323.505 304.081 323.762 304.084L325.81 304.017C327.562 303.968 330.004 303.91 332.895 303.881L332.675 304.153L332.1 300.699C331.985 300.107 331.87 299.497 331.756 298.876C331.698 298.565 331.631 298.245 331.573 297.906L331.487 297.43L331.44 297.188V297.072V296.975C331.219 296.79 331.736 297.227 331.679 297.188H321.742L321.942 296.945C322.316 299.07 322.603 300.825 322.804 302.105C323.005 303.386 323.101 304.084 323.082 304.114Z" fill="#263238"/>
<path d="M339.328 310.021C339.343 310.118 339.392 310.204 339.465 310.268C339.538 310.331 339.63 310.366 339.726 310.366C339.821 310.366 339.915 310.331 339.987 310.268C340.06 310.204 340.108 310.118 340.123 310.021C340.123 309.913 340.08 309.81 340.005 309.733C339.929 309.657 339.827 309.613 339.721 309.613C339.669 309.613 339.617 309.625 339.568 309.645C339.52 309.666 339.477 309.695 339.44 309.734C339.404 309.772 339.374 309.816 339.355 309.867C339.337 309.916 339.327 309.968 339.328 310.021Z" fill="#263238"/>
<path d="M332.531 310.051C333.712 309.789 334.924 309.698 336.131 309.779C337.332 309.687 338.542 309.769 339.721 310.021C338.542 310.275 337.333 310.364 336.131 310.283C334.926 310.37 333.715 310.293 332.531 310.051Z" fill="#263238"/>
<path d="M323.109 313.212C322.931 312.779 322.786 312.33 322.678 311.874C322.42 310.981 322.047 309.662 321.596 307.994L321.539 307.761H321.778C324.478 307.712 328.068 307.673 331.993 307.664L332.232 307.848V307.925V308.013V308.188L332.319 308.537L332.49 309.216C332.606 309.671 332.72 310.118 332.826 310.555C333.047 311.428 333.257 312.281 333.458 313.096L333.535 313.387H333.238C330.212 313.387 327.627 313.387 325.828 313.309L323.741 313.251C323.5 313.258 323.259 313.239 323.023 313.193C323.289 313.151 323.558 313.128 323.827 313.125L325.961 313.057C327.771 312.999 330.289 312.95 333.238 312.921L333.008 313.212C332.797 312.398 332.577 311.553 332.357 310.68L332.012 309.342L331.839 308.653L331.754 308.313L331.705 308.139V308.052V307.984C331.648 307.984 332.165 308.343 331.945 308.178C328.021 308.178 324.431 308.178 321.74 308.178L321.913 307.936C322.295 309.526 322.582 310.846 322.783 311.747C322.929 312.226 323.038 312.716 323.109 313.212Z" fill="#263238"/>
<path d="M323.867 299.158C324.976 298.91 326.114 298.821 327.247 298.896C328.382 298.804 329.525 298.885 330.636 299.139C329.525 299.388 328.383 299.476 327.247 299.401C326.115 299.493 324.976 299.411 323.867 299.158Z" fill="#263238"/>
<path d="M323.941 300.282C325.06 300.034 326.207 299.946 327.35 300.021C328.492 299.934 329.639 300.012 330.758 300.253C328.499 300.597 326.201 300.597 323.941 300.253V300.282Z" fill="#263238"/>
<path d="M324.145 301.37C325.222 301.109 326.333 301.018 327.438 301.098C328.538 301.018 329.644 301.1 330.721 301.341C329.646 301.602 328.539 301.694 327.438 301.613C326.334 301.693 325.224 301.611 324.145 301.37Z" fill="#263238"/>
<path d="M324.066 309.953C325.123 309.703 326.209 309.615 327.293 309.691C328.373 309.599 329.462 309.68 330.519 309.934C329.461 310.181 328.374 310.27 327.293 310.196C326.211 310.287 325.122 310.206 324.066 309.953Z" fill="#263238"/>
<path d="M324.461 311.196C326.284 310.859 328.152 310.859 329.975 311.196C328.152 311.532 326.284 311.532 324.461 311.196Z" fill="#263238"/>
<path d="M262.078 326.201V331.527H265.525V439.4H272.589V331.527H310.088V439.4H317.154V331.527H479.833V439.372H486.908V331.527H489.962V326.201H262.078Z" fill="#263238"/>
<path d="M415.293 366.388C418.351 366.659 421.425 366.659 424.483 366.388C421.425 366.129 418.351 366.129 415.293 366.388Z" fill="#263238"/>
<path d="M348.365 367.494C348.503 367.494 348.615 367.438 348.615 367.368C348.615 367.298 348.503 367.242 348.365 367.242C348.228 367.242 348.117 367.298 348.117 367.368C348.117 367.438 348.228 367.494 348.365 367.494Z" fill="#455A64"/>
<path d="M393.387 271.473L367.004 244.313L366.43 241.403C366.324 240.87 366.209 240.269 366.103 239.579C365.99 238.787 366.006 237.981 366.151 237.193C366.29 236.21 366.565 235.25 366.965 234.341C367.406 233.556 366.697 232.606 365.96 232.936C365.222 233.265 363.949 235.389 363.672 238.329C363.395 241.267 360.924 237.359 360.005 235.962C359.087 234.565 356.023 230.364 355.381 230.317C354.424 230.239 354.214 231.287 355.162 232.645C356.109 234.003 358.703 238.368 357.975 238.823C357.255 238.697 356.513 238.807 355.857 239.136C355.201 239.465 354.665 239.998 354.328 240.657C353.658 241.946 352.921 243.789 353.524 244.634C354.831 246.23 356.238 247.74 357.737 249.154L358.617 249.92C358.617 249.92 381.449 283.443 386.428 284.54C389.52 285.208 437.368 289.234 437.368 289.234L440.976 275.877L393.387 271.473Z" fill="#B78876"/>
<path d="M353.258 244.032L355.699 246.408C355.97 246.699 356.295 246.933 356.657 247.098C356.833 247.174 357.028 247.199 357.218 247.168C357.408 247.136 357.584 247.052 357.729 246.923C357.829 246.785 357.894 246.625 357.92 246.456C357.944 246.287 357.928 246.114 357.872 245.953C357.737 245.63 357.546 245.334 357.308 245.08L354.934 242.17" fill="#B78876"/>
<path d="M354.934 242.16C354.991 242.112 355.441 242.567 356.14 243.353C356.531 243.8 356.934 244.255 357.346 244.74C357.611 245.017 357.838 245.326 358.026 245.662C358.139 245.874 358.193 246.114 358.18 246.356C358.169 246.597 358.092 246.829 357.959 247.029C357.793 247.215 357.577 247.344 357.337 247.399C357.097 247.455 356.845 247.434 356.618 247.339C356.254 247.187 355.928 246.955 355.661 246.66L354.387 245.341C353.669 244.585 353.248 244.091 353.297 244.032C353.788 244.317 354.236 244.674 354.627 245.089L355.976 246.322C356.203 246.561 356.477 246.751 356.781 246.874C356.912 246.928 357.057 246.941 357.196 246.914C357.335 246.886 357.464 246.819 357.566 246.719C357.639 246.591 357.678 246.446 357.678 246.298C357.678 246.149 357.639 246.003 357.566 245.875C357.402 245.573 357.206 245.29 356.982 245.031C356.59 244.537 356.216 244.061 355.852 243.576C355.478 243.154 355.167 242.677 354.934 242.16Z" fill="#AA6550"/>
<path d="M355.027 242.306L357.469 244.682C357.739 244.973 358.065 245.203 358.426 245.361C358.602 245.445 358.797 245.474 358.99 245.443C359.181 245.412 359.358 245.322 359.498 245.186C359.601 245.05 359.666 244.889 359.692 244.72C359.717 244.55 359.7 244.378 359.642 244.216C359.506 243.892 359.315 243.593 359.077 243.334L356.703 240.424" fill="#B78876"/>
<path d="M356.663 240.424C356.721 240.424 357.17 240.84 357.869 241.627L359.075 243.004C359.339 243.28 359.568 243.589 359.754 243.925C359.869 244.139 359.922 244.381 359.91 244.623C359.898 244.866 359.821 245.102 359.688 245.302C359.523 245.488 359.307 245.617 359.066 245.672C358.826 245.728 358.575 245.707 358.348 245.613C357.984 245.46 357.656 245.228 357.39 244.934L356.127 243.615C355.703 243.233 355.336 242.793 355.035 242.306C355.526 242.589 355.975 242.941 356.366 243.353L357.716 244.595C357.942 244.834 358.216 245.023 358.52 245.147C358.652 245.201 358.796 245.214 358.935 245.187C359.074 245.16 359.203 245.092 359.305 244.992C359.378 244.862 359.416 244.716 359.416 244.565C359.416 244.416 359.378 244.268 359.305 244.138C359.141 243.838 358.942 243.558 358.712 243.304L357.592 241.849C357.209 241.428 356.896 240.946 356.663 240.424Z" fill="#AA6550"/>
<path d="M356.934 240.889L359.375 243.265C359.64 243.562 359.967 243.794 360.331 243.944C360.494 244.038 360.682 244.075 360.867 244.052C361.052 244.028 361.225 243.946 361.36 243.814C361.495 243.684 361.585 243.514 361.616 243.328C361.649 243.141 361.621 242.95 361.539 242.78C361.405 242.454 361.212 242.155 360.974 241.898C360.188 240.928 359.394 239.958 358.608 238.988" fill="#B78876"/>
<path d="M358.57 239.008C359.024 239.348 359.429 239.75 359.776 240.2L360.982 241.588C361.243 241.864 361.468 242.175 361.652 242.509C361.772 242.722 361.827 242.964 361.815 243.208C361.804 243.452 361.724 243.688 361.585 243.886C361.423 244.072 361.208 244.201 360.97 244.257C360.731 244.313 360.48 244.293 360.255 244.197C359.89 244.044 359.564 243.812 359.297 243.518L358.043 242.199C357.621 241.82 357.255 241.378 356.961 240.89C357.454 241.17 357.902 241.524 358.292 241.937L359.642 243.179C359.867 243.416 360.137 243.604 360.437 243.731C360.568 243.786 360.713 243.801 360.852 243.773C360.991 243.746 361.12 243.677 361.221 243.576C361.299 243.448 361.341 243.301 361.341 243.149C361.341 242.999 361.299 242.851 361.221 242.722C361.057 242.425 360.861 242.145 360.637 241.888L359.518 240.433C359.128 240.013 358.808 239.532 358.57 239.008Z" fill="#AA6550"/>
<path d="M360.789 245.003C360.789 244.915 361.393 244.798 362.273 245.07L361.995 245.313C361.86 244.757 361.837 244.18 361.928 243.615C362.058 242.853 362.389 242.138 362.886 241.549C363.26 241.103 363.575 240.929 363.614 240.976C363.082 241.809 362.694 242.728 362.465 243.692C362.388 244.201 362.388 244.717 362.465 245.225L362.512 245.613L362.187 245.468C361.364 245.138 360.779 245.1 360.789 245.003Z" fill="#AA6550"/>
<path d="M427.929 230.744L428.043 267.963L413.683 268.652L413.109 259.737C413.109 259.737 406.198 260.795 404.752 255.527C403.794 252.162 404.062 226.166 404.062 226.166L427.929 230.744Z" fill="#B78876"/>
<path d="M400.567 229.832C401.629 232.063 406.685 236.127 406.685 236.127L408.972 242.326C410.954 240.754 413.615 240.841 414.123 244.372C414.486 246.933 411.356 247.447 411.356 247.447C413.176 250.59 414.41 253.131 417.1 256.119C419.972 259.359 421.58 259.678 424.701 259.737H428.138C428.138 259.737 435.165 253.781 433.777 238.106C432.389 222.43 418.44 226.98 415.118 223.1C409.738 216.707 397.024 222.411 400.567 229.832Z" fill="#263238"/>
<path d="M432.953 251.23C432.389 251.305 431.816 251.278 431.259 251.153C429.727 250.824 428.31 250.087 427.152 249.019C425.496 247.394 424.098 245.519 423.007 243.46C421.666 241.239 420.202 238.659 417.742 236.933C415.281 235.206 412.322 234.905 409.805 234.381C407.511 234.068 405.319 233.222 403.401 231.908C402.129 230.953 401.223 229.582 400.835 228.028C400.686 227.468 400.663 226.881 400.768 226.311C400.726 226.881 400.775 227.454 400.911 228.009C401.325 229.522 402.233 230.849 403.486 231.772C405.398 233.05 407.573 233.87 409.844 234.168C412.352 234.682 415.3 235.012 417.856 236.739C420.413 238.465 421.829 241.113 423.159 243.335C424.239 245.382 425.616 247.253 427.247 248.883C428.381 249.944 429.766 250.69 431.268 251.046C431.678 251.136 432.094 251.188 432.513 251.201L432.953 251.23Z" fill="#455A64"/>
<path d="M433.769 238.465L433.032 238.232C432.326 238.005 431.602 237.843 430.868 237.747C429.709 237.58 428.531 237.85 427.555 238.504C427.257 238.706 427 238.966 426.802 239.269C426.604 239.572 426.466 239.912 426.397 240.269C426.32 240.666 426.341 241.077 426.458 241.465C426.574 241.852 426.784 242.204 427.067 242.49C427.391 242.772 427.799 242.936 428.226 242.955C428.675 242.962 429.117 242.838 429.499 242.597C430.331 242.095 430.949 241.296 431.232 240.356C431.493 239.568 431.576 238.732 431.475 237.907C431.374 237.082 431.091 236.291 430.646 235.593C430.202 234.894 429.608 234.305 428.91 233.87C428.21 233.436 427.424 233.166 426.607 233.081C425.406 233.011 424.201 233.17 423.056 233.546C421.851 233.941 420.62 234.242 419.37 234.449C418.074 234.624 416.761 234.624 415.465 234.449C414.162 234.292 412.89 233.936 411.692 233.391C411.095 233.145 410.556 232.772 410.112 232.296C409.667 231.821 409.328 231.255 409.117 230.636C408.943 230.025 408.932 229.377 409.086 228.758C409.239 228.139 409.551 227.573 409.989 227.116C410.439 226.705 411 226.438 411.6 226.35C412.199 226.262 412.811 226.357 413.358 226.621C413.895 226.859 414.334 227.277 414.603 227.804C414.853 228.322 414.947 228.902 414.871 229.472C414.794 230.011 414.606 230.527 414.317 230.986C414.028 231.444 413.646 231.835 413.195 232.13C412.331 232.667 411.336 232.945 410.323 232.936C409.413 232.945 408.509 232.803 407.644 232.518C406.15 232.033 404.797 231.188 403.698 230.054C402.865 229.212 402.184 228.227 401.688 227.144C401.375 226.462 401.134 225.746 400.97 225.01C400.885 224.506 400.855 224.234 400.855 224.234C400.855 224.234 400.913 224.497 401.009 225.001C401.188 225.726 401.438 226.431 401.756 227.106C402.251 228.191 402.935 229.177 403.775 230.016C404.863 231.129 406.205 231.956 407.681 232.421C408.534 232.703 409.426 232.841 410.323 232.829C411.29 232.826 412.238 232.555 413.061 232.043C413.491 231.76 413.855 231.386 414.129 230.948C414.404 230.51 414.581 230.017 414.651 229.502C414.737 228.962 414.646 228.409 414.392 227.927C414.137 227.446 413.734 227.061 413.244 226.834C412.729 226.587 412.155 226.502 411.593 226.586C411.03 226.671 410.505 226.923 410.085 227.31C409.671 227.74 409.378 228.274 409.233 228.856C409.088 229.439 409.098 230.05 409.261 230.627C409.468 231.217 409.795 231.757 410.224 232.21C410.651 232.663 411.168 233.02 411.74 233.255C412.93 233.784 414.192 234.12 415.483 234.255C416.755 234.427 418.042 234.427 419.313 234.255C420.553 234.056 421.775 233.761 422.97 233.372C424.142 232.98 425.376 232.819 426.607 232.897C427.452 232.985 428.266 233.263 428.989 233.713C429.713 234.163 430.328 234.772 430.786 235.494C431.246 236.218 431.54 237.036 431.645 237.89C431.75 238.742 431.665 239.609 431.395 240.424C431.091 241.398 430.443 242.223 429.575 242.742C429.169 242.993 428.7 243.121 428.226 243.111C427.762 243.097 427.318 242.919 426.971 242.606C426.675 242.303 426.456 241.931 426.335 241.521C426.213 241.112 426.191 240.679 426.273 240.259C426.422 239.507 426.859 238.844 427.488 238.416C428.494 237.764 429.697 237.502 430.878 237.679C431.615 237.777 432.34 237.952 433.041 238.202C433.52 238.358 433.769 238.465 433.769 238.465Z" fill="#455A64"/>
<path d="M415.558 430.312L410.886 424.23L422.079 415.277L429.019 424.104L428.358 424.706C425.41 427.344 413.156 437.946 410.599 438.965C407.747 440.099 415.558 430.312 415.558 430.312Z" fill="#870FE6"/>
<g opacity="0.4">
<path d="M411.873 435.259C411.873 435.259 409.297 438.906 410.149 439.139C411.001 439.372 423.772 429.128 429.018 424.113L428.798 423.871L413.997 435.938C413.997 435.938 412.542 434.764 411.873 435.259Z" fill="white"/>
</g>
<path d="M428.971 423.715C428.92 423.78 428.861 423.838 428.798 423.889L428.271 424.364L426.309 426.082C424.634 427.517 422.307 429.477 419.684 431.581C417.06 433.686 414.648 435.539 412.888 436.849L410.781 438.401L410.207 438.808L409.996 438.934L410.187 438.778L410.742 438.342L412.811 436.752C414.552 435.413 416.956 433.551 419.578 431.445C422.202 429.341 424.537 427.401 426.223 425.985L428.224 424.316L428.769 423.86L428.971 423.715Z" fill="#263238"/>
<path d="M414.142 436.102C413.786 435.833 413.401 435.604 412.994 435.423C412.57 435.294 412.133 435.215 411.691 435.19C412.138 435.044 412.621 435.068 413.051 435.259C413.506 435.393 413.894 435.695 414.142 436.102Z" fill="#263238"/>
<path d="M416.124 431.757C416.124 431.806 415.799 431.757 415.426 431.612C415.052 431.466 414.774 431.34 414.794 431.291C414.813 431.243 415.119 431.292 415.483 431.447C415.716 431.501 415.935 431.607 416.124 431.757Z" fill="#263238"/>
<path d="M416.649 430.544C416.649 430.592 416.372 430.622 416.047 430.602C415.721 430.583 415.453 430.525 415.453 430.476C415.453 430.428 415.721 430.398 416.056 430.428C416.26 430.419 416.463 430.459 416.649 430.544Z" fill="#263238"/>
<path d="M416.384 429.023C416.384 429.023 416.183 429.303 415.857 429.566C415.532 429.827 415.254 430.011 415.225 429.972C415.196 429.933 415.436 429.692 415.752 429.429C416.067 429.168 416.354 428.984 416.384 429.023Z" fill="#263238"/>
<path d="M415.99 428.109C415.873 428.38 415.701 428.623 415.487 428.823C415.273 429.023 415.021 429.176 414.746 429.273C414.746 429.225 415.033 429.012 415.378 428.691C415.722 428.372 415.952 428.081 415.99 428.109Z" fill="#263238"/>
<path d="M414.967 431.079C414.764 431.313 414.52 431.507 414.249 431.651C413.962 431.823 413.66 431.969 413.348 432.088C413.162 432.17 412.965 432.228 412.764 432.262C412.64 432.274 412.515 432.243 412.41 432.174C412.357 432.13 412.318 432.071 412.297 432.003C412.276 431.936 412.276 431.864 412.296 431.796C412.462 431.444 412.744 431.161 413.093 430.996C413.442 430.829 413.836 430.79 414.21 430.884C414.433 430.935 414.642 431.034 414.823 431.176C414.947 431.282 415.005 431.351 414.995 431.36C414.748 431.19 414.472 431.069 414.182 431C413.861 430.931 413.527 430.96 413.224 431.088C412.866 431.218 412.573 431.486 412.41 431.836C412.41 432.01 412.516 432.116 412.707 432.088C412.89 432.052 413.068 432.003 413.244 431.942C413.55 431.828 413.851 431.694 414.143 431.545C414.68 431.273 414.947 431.049 414.967 431.079Z" fill="#263238"/>
<path d="M414.813 431.262C414.813 431.262 414.554 431.174 414.334 430.825C414.207 430.614 414.132 430.374 414.113 430.127C414.094 429.972 414.111 429.814 414.164 429.667C414.218 429.521 414.306 429.388 414.42 429.283C414.505 429.239 414.605 429.23 414.696 429.259C414.787 429.288 414.864 429.353 414.908 429.439C414.983 429.57 415.028 429.715 415.043 429.865C415.071 430.1 415.071 430.338 415.043 430.573C415.034 430.795 414.971 431.012 414.86 431.204C414.86 431.204 414.86 430.952 414.918 430.564C414.944 430.338 414.944 430.111 414.918 429.885C414.918 429.652 414.746 429.322 414.544 429.439C414.456 429.528 414.39 429.636 414.349 429.756C414.31 429.874 414.298 430.002 414.315 430.127C414.323 430.347 414.379 430.563 414.477 430.758C414.574 430.936 414.686 431.105 414.813 431.262Z" fill="#263238"/>
<path d="M426.322 420.795C426.322 420.795 425.976 421.019 425.527 421.484C424.926 422.087 424.505 422.849 424.313 423.682C424.119 424.516 424.162 425.388 424.436 426.198C424.646 426.819 424.886 427.168 424.857 427.168C424.828 427.168 424.78 427.1 424.674 426.945C424.537 426.72 424.419 426.483 424.32 426.237C424.011 425.408 423.949 424.504 424.139 423.638C424.337 422.771 424.791 421.986 425.441 421.387C425.631 421.207 425.84 421.048 426.063 420.911C426.142 420.859 426.23 420.819 426.322 420.795Z" fill="#263238"/>
<path d="M421.484 417.004C422.163 417.717 422.802 418.468 423.399 419.254C424.414 420.535 425.208 421.591 425.179 421.621C424.498 420.91 423.857 420.159 423.265 419.371C422.62 418.622 422.025 417.832 421.484 417.004Z" fill="#263238"/>
<path d="M422.615 427.285C422.183 427.844 421.677 428.339 421.112 428.759C420.586 429.224 420.003 429.619 419.379 429.932C419.379 429.932 420.116 429.35 421.006 428.613C421.897 427.876 422.586 427.246 422.615 427.285Z" fill="#263238"/>
<path d="M424.809 425.52C424.857 425.52 424.876 425.723 424.934 425.956C424.991 426.189 425.067 426.373 425.029 426.402C424.991 426.432 424.828 426.266 424.761 425.995C424.694 425.723 424.771 425.51 424.809 425.52Z" fill="#263238"/>
<path d="M424.827 423.821C424.876 423.821 424.894 423.995 424.827 424.209C424.761 424.422 424.751 424.588 424.703 424.588C424.656 424.588 424.636 424.403 424.656 424.189C424.674 423.976 424.78 423.812 424.827 423.821Z" fill="#263238"/>
<path d="M425.632 422.396C425.632 422.396 425.508 422.56 425.392 422.745C425.278 422.929 425.22 423.124 425.172 423.114C425.124 423.104 425.095 422.881 425.239 422.648C425.382 422.415 425.622 422.347 425.632 422.396Z" fill="#263238"/>
<path d="M426.303 421.494C426.303 421.494 426.303 421.63 426.303 421.737C426.303 421.843 426.149 421.922 426.111 421.902C426.073 421.883 426.111 421.765 426.111 421.649C426.111 421.533 426.264 421.475 426.303 421.494Z" fill="#263238"/>
<g opacity="0.3">
<path d="M426.072 420.504L414.747 429.273L413.703 427.886L425.602 419.719L426.072 420.504Z" fill="black"/>
</g>
<path d="M364.094 436.423V428.711L378.358 428.652L378.444 439.943L377.554 440.001C373.619 440.244 357.536 440.923 354.903 440.128C351.984 439.236 364.094 436.423 364.094 436.423Z" fill="#870FE6"/>
<g opacity="0.4">
<path d="M358.175 438.014C358.175 438.014 353.925 439.264 354.461 439.954C354.997 440.642 371.281 440.594 378.461 439.954V439.634L359.467 439.876C359.467 439.876 358.999 438.042 358.175 438.014Z" fill="white"/>
</g>
<path d="M378.664 439.613H378.416H377.708L375.123 439.74C372.93 439.826 369.905 439.914 366.564 439.934C363.222 439.953 360.189 439.934 357.996 439.826L355.411 439.729H354.703H354.453H355.411H358.005C360.189 439.729 363.222 439.798 366.564 439.788C369.905 439.779 372.93 439.701 375.113 439.643L377.708 439.574H378.664V439.613Z" fill="#263238"/>
<path d="M359.449 440.089C359.33 439.654 359.163 439.234 358.951 438.837C358.696 438.48 358.4 438.155 358.07 437.867C358.514 438.032 358.882 438.357 359.105 438.779C359.371 439.16 359.493 439.625 359.449 440.089Z" fill="#263238"/>
<path d="M363.641 437.908C363.641 437.908 363.403 437.684 363.192 437.354C362.982 437.024 362.847 436.733 362.886 436.714C362.923 436.695 363.125 436.927 363.336 437.266C363.546 437.606 363.68 437.888 363.641 437.908Z" fill="#263238"/>
<path d="M364.801 437.285C364.801 437.285 364.543 437.169 364.294 436.946C364.045 436.722 363.872 436.519 363.902 436.481C363.93 436.442 364.16 436.597 364.409 436.819C364.657 437.043 364.83 437.246 364.801 437.285Z" fill="#263238"/>
<path d="M365.519 435.919C365.285 436.011 365.032 436.044 364.782 436.016C364.53 436.05 364.275 436.024 364.035 435.938C364.271 435.852 364.522 435.818 364.773 435.841C365.023 435.813 365.279 435.839 365.519 435.919Z" fill="#263238"/>
<path d="M365.768 434.957C365.519 435.119 365.23 435.204 364.934 435.2C364.647 435.254 364.349 435.216 364.082 435.093C364.361 435.044 364.643 435.021 364.925 435.026C365.203 434.978 365.485 434.956 365.768 434.957Z" fill="#263238"/>
<path d="M363.156 436.656C362.84 436.713 362.516 436.713 362.2 436.656C361.874 436.617 361.553 436.545 361.242 436.443C361.048 436.39 360.862 436.316 360.687 436.219C360.579 436.153 360.497 436.05 360.457 435.928C360.442 435.859 360.448 435.787 360.474 435.722C360.5 435.656 360.543 435.6 360.601 435.559C360.949 435.383 361.345 435.336 361.725 435.425C362.104 435.512 362.441 435.733 362.678 436.044C362.819 436.228 362.921 436.439 362.975 436.666C362.993 436.748 362.993 436.835 362.975 436.917C362.881 436.63 362.739 436.36 362.554 436.122C362.344 435.88 362.072 435.702 361.769 435.608C361.59 435.548 361.401 435.524 361.214 435.539C361.027 435.555 360.844 435.607 360.677 435.696C360.534 435.802 360.591 435.977 360.754 436.074C360.917 436.166 361.09 436.238 361.27 436.287C361.581 436.399 361.902 436.484 362.228 436.539C362.831 436.627 363.156 436.626 363.156 436.656Z" fill="#263238"/>
<path d="M362.917 436.694C362.811 436.498 362.773 436.272 362.812 436.053C362.839 435.81 362.924 435.576 363.06 435.374C363.139 435.239 363.249 435.126 363.381 435.042C363.513 434.959 363.662 434.91 363.817 434.898C363.863 434.908 363.908 434.925 363.948 434.951C363.989 434.977 364.023 435.01 364.049 435.05C364.076 435.09 364.096 435.136 364.104 435.183C364.114 435.229 364.114 435.278 364.104 435.325C364.082 435.475 364.03 435.616 363.951 435.743C363.832 435.948 363.687 436.138 363.52 436.306C363.233 436.586 363.013 436.703 362.993 436.683C362.975 436.664 363.176 436.519 363.434 436.218C363.58 436.048 363.708 435.862 363.817 435.665C363.941 435.461 364.018 435.112 363.817 435.073C363.616 435.034 363.357 435.277 363.223 435.461C363.093 435.642 363.004 435.852 362.965 436.073C362.938 436.278 362.923 436.486 362.917 436.694Z" fill="#263238"/>
<path d="M378.347 435.655C378.347 435.655 377.944 435.655 377.293 435.655C376.459 435.765 375.668 436.099 375.006 436.625C374.35 437.166 373.855 437.881 373.579 438.692C373.472 439.033 373.382 439.379 373.311 439.729C373.292 439.633 373.292 439.535 373.311 439.438C373.329 439.172 373.377 438.908 373.455 438.653C373.718 437.807 374.217 437.055 374.891 436.489C375.574 435.93 376.409 435.592 377.284 435.519C377.545 435.488 377.808 435.488 378.069 435.519C378.171 435.543 378.266 435.59 378.347 435.655Z" fill="#263238"/>
<path d="M376.845 429.652C376.952 430.638 377.001 431.629 376.989 432.621C377.043 433.609 377.043 434.6 376.989 435.589C376.883 434.603 376.838 433.612 376.855 432.621C376.797 431.632 376.793 430.641 376.845 429.652Z" fill="#263238"/>
<path d="M371.446 438.439C370.764 438.599 370.067 438.671 369.368 438.653C368.669 438.688 367.968 438.636 367.281 438.498C367.281 438.449 368.238 438.498 369.368 438.498C370.498 438.498 371.446 438.439 371.446 438.439Z" fill="#263238"/>
<path d="M374.318 438.439C374.318 438.439 374.251 438.643 374.155 438.856C374.058 439.069 374.001 439.263 373.954 439.263C373.905 439.263 373.887 439.031 373.954 438.789C374.021 438.546 374.251 438.439 374.318 438.439Z" fill="#263238"/>
<path d="M375.334 437.102C375.334 437.102 375.276 437.286 375.132 437.432C374.988 437.577 374.836 437.684 374.797 437.655C374.76 437.626 374.855 437.46 375.008 437.315C375.161 437.169 375.276 437.063 375.334 437.102Z" fill="#263238"/>
<path d="M376.835 436.501C376.835 436.501 376.633 436.501 376.423 436.626C376.212 436.753 376.069 436.82 376.031 436.781C375.992 436.743 376.107 436.549 376.375 436.462C376.643 436.374 376.853 436.442 376.835 436.501Z" fill="#263238"/>
<path d="M377.906 436.19C377.906 436.238 377.839 436.316 377.724 436.365C377.609 436.413 377.494 436.413 377.475 436.365C377.456 436.316 377.542 436.248 377.657 436.199C377.772 436.151 377.887 436.151 377.906 436.19Z" fill="#263238"/>
<g opacity="0.3">
<path d="M378.462 435.073L364.082 435.092L364.092 433.346L378.404 433.26L378.462 435.073Z" fill="black"/>
</g>
<path d="M399.293 303.26L393.548 320.72C392.007 325.424 387.948 326.23 383.017 326.23H351.34V319.013L380.365 314.812L387.278 296.906L399.293 303.26Z" fill="#B78876"/>
<path d="M347.827 317.472L345.309 316.268C345.309 316.268 342.59 310.943 341.967 311.157C341.345 311.37 341.154 312.932 342.245 315.386L338.904 314.416C338.904 314.416 331.638 317.811 331.964 318.296C332.061 318.528 332.208 318.735 332.395 318.902C332.582 319.07 332.802 319.192 333.042 319.261C333.282 319.332 333.532 319.346 333.778 319.305C334.024 319.264 334.258 319.168 334.462 319.024C336.042 318.199 338.109 317.238 338.109 317.238L342.024 318.373L336.98 319.024L332.193 323.398C332.611 323.713 333.121 323.876 333.642 323.862C334.163 323.848 334.664 323.657 335.065 323.32L347.51 325.978L351.34 326.192V318.975L347.827 317.472Z" fill="#B78876"/>
<path d="M335.133 323.293C335.191 323.293 335.42 322.963 335.861 322.468C336.121 322.187 336.425 321.951 336.761 321.769C337.179 321.567 337.63 321.446 338.091 321.411C339.342 321.332 340.581 321.118 341.787 320.771C340.534 320.727 339.28 320.812 338.044 321.023C337.531 321.064 337.032 321.212 336.579 321.459C336.207 321.668 335.881 321.952 335.622 322.293C335.384 322.583 335.217 322.925 335.133 323.293Z" fill="#AA6550"/>
<path d="M337.068 323.794C337.116 323.794 337.154 323.533 337.498 323.455C337.844 323.378 338.409 323.329 338.993 323.271C339.718 323.257 340.442 323.183 341.157 323.048C340.45 322.798 339.69 322.738 338.954 322.873C338.426 322.92 337.905 323.031 337.403 323.203C337.317 323.235 337.238 323.288 337.173 323.355C337.109 323.421 337.06 323.502 337.03 323.591C336.982 323.727 337.04 323.794 337.068 323.794Z" fill="#AA6550"/>
<path d="M401.985 299.458L399.544 307.848L384.035 300.7C384.601 298.943 387.166 291.125 392.068 278.72C393.408 275.317 395.591 272.32 398.407 270.019C401.222 267.72 404.575 266.193 408.142 265.586C413.044 264.688 418.009 264.195 422.99 264.111C431.692 264.208 444.491 269.718 446.205 278.351C447.526 284.947 446.253 296.587 446.253 310.73L445.161 337.782L400.598 339.306L401.985 299.458Z" fill="#5478F6"/>
<g opacity="0.3">
<path d="M446.204 304.502C440.786 305.627 435.215 304.502 429.69 304.162C426.34 303.959 422.625 303.59 419.974 305.675C417.877 307.334 417.035 310.118 416.421 312.737C414.114 322.747 413.693 329.45 413.176 339.713L439.982 341.362L446.204 304.502Z" fill="black"/>
</g>
<path d="M400.844 270.135C400.844 270.135 401.294 270.203 402.031 270.494C403.06 270.946 403.947 271.673 404.597 272.599C405.545 273.985 406.077 275.618 406.129 277.304C406.19 279.377 406.033 281.452 405.659 283.492C405.028 287.224 404.196 290.919 403.171 294.561C402.807 295.919 402.5 297.034 402.27 297.887C402.139 298.289 402.042 298.701 401.983 299.119C402.163 298.736 402.308 298.337 402.414 297.926C402.663 297.15 403.017 296.034 403.429 294.637C404.546 291.006 405.418 287.302 406.043 283.551C406.419 281.482 406.566 279.376 406.483 277.275C406.409 275.528 405.83 273.841 404.817 272.425C404.119 271.48 403.169 270.757 402.079 270.339C401.783 270.241 401.478 270.169 401.17 270.126C400.959 270.126 400.844 270.115 400.844 270.135Z" fill="#263238"/>
<path d="M384.523 298.594C385.216 299.076 385.945 299.502 386.705 299.865C388.084 300.592 390.008 301.553 392.172 302.542C394.336 303.532 396.327 304.356 397.782 304.918C398.55 305.265 399.347 305.538 400.166 305.733C399.429 305.324 398.663 304.968 397.878 304.666C396.46 304.036 394.489 303.172 392.335 302.183C390.181 301.193 388.238 300.243 386.83 299.613C386.087 299.216 385.316 298.874 384.523 298.594Z" fill="#263238"/>
<path d="M377.419 341.363C373.768 343.381 371.046 346.769 369.834 350.799C368.622 354.829 369.019 359.179 370.938 362.917L409.738 430.39L427.631 419.438L397.514 358.522L419.312 344.079" fill="#263238"/>
<path d="M424.644 338.016L371.397 339.956C367.242 340.105 363.31 341.9 360.447 344.954C357.582 348.008 356.014 352.078 356.08 356.29L358.291 433.338H380.683L379.936 360.491L424.644 359.297V338.016Z" fill="#263238"/>
<path d="M379.935 363.041C379.98 363.278 380.003 363.518 380.002 363.759C380.002 364.277 380.031 364.956 380.088 365.796C380.155 367.571 380.222 370.141 380.289 373.323C380.424 379.677 380.509 388.455 380.558 398.146C380.605 407.836 380.653 416.576 380.682 422.968C380.682 426.11 380.682 428.662 380.73 430.495C380.73 431.348 380.73 432.027 380.73 432.542C380.753 432.781 380.753 433.021 380.73 433.26C380.686 433.024 380.664 432.783 380.663 432.542C380.663 432.027 380.615 431.348 380.576 430.495C380.509 428.72 380.442 426.149 380.375 422.978C380.242 416.624 380.155 407.846 380.108 398.146C380.06 388.446 380.012 379.716 379.984 373.323C379.984 370.19 379.984 367.639 379.984 365.806V363.75C379.945 363.516 379.929 363.278 379.935 363.041Z" fill="#455A64"/>
<path d="M447.709 289.127H431.596C428.483 289.127 425.498 290.38 423.297 292.611C421.097 294.841 419.859 297.866 419.859 301.019V357.93H387.722C385.567 357.93 383.499 358.797 381.974 360.342C380.451 361.886 379.594 363.981 379.594 366.164H453.07C454.798 366.093 456.432 365.345 457.629 364.08C458.827 362.814 459.495 361.128 459.493 359.374V301.019C459.493 299.454 459.188 297.904 458.596 296.458C458.002 295.012 457.134 293.699 456.039 292.594C454.944 291.488 453.644 290.614 452.214 290.019C450.785 289.424 449.253 289.121 447.709 289.127Z" fill="#455A64"/>
<path d="M424.537 291C424.671 291 424.787 307.732 424.787 328.374C424.787 349.016 424.671 365.748 424.537 365.748C424.403 365.748 424.289 349.016 424.289 328.374C424.289 307.732 424.403 291 424.537 291Z" fill="#263238"/>
<path d="M422.5 425.965V366.232H417.264V425.965C414.066 432.348 406.551 436.635 397.398 440.205H444.078C434.63 436.305 426.014 433.307 422.5 425.965Z" fill="#455A64"/>
<path d="M127.582 418.225L127.735 417.876L128.204 416.858C128.77 415.545 129.231 414.19 129.583 412.803C130.683 407.636 130.64 402.286 129.458 397.137C128.725 393.57 127.766 390.055 126.586 386.613C125.371 382.878 123.964 378.921 122.757 374.633C121.459 370.162 120.833 365.519 120.9 360.859C121.072 356.009 122.499 351.159 124.059 346.309C125.619 341.459 127.237 336.726 127.725 331.953C128.262 327.366 127.351 322.723 125.121 318.693C123.054 314.813 120.45 311.516 118.497 308.091C116.672 304.914 115.326 301.477 114.505 297.896C113.333 292.708 113.249 287.329 114.256 282.104C114.613 280.195 115.159 278.327 115.883 276.527C115.86 276.653 115.828 276.775 115.788 276.896C115.702 277.157 115.596 277.508 115.453 277.963C115.063 279.336 114.744 280.728 114.495 282.134C113.559 287.324 113.69 292.653 114.878 297.79C115.711 301.329 117.059 304.722 118.88 307.858C120.795 311.244 123.447 314.542 125.581 318.461C127.865 322.566 128.804 327.301 128.262 331.983C127.773 336.833 126.146 341.605 124.586 346.445C123.026 351.286 121.618 356.145 121.436 360.888C121.37 365.5 121.983 370.097 123.254 374.526C124.395 378.785 125.782 382.753 126.988 386.497C128.157 389.957 129.098 393.492 129.803 397.079C130.974 402.272 130.974 407.667 129.803 412.861C129.419 414.254 128.91 415.607 128.28 416.906C128.06 417.322 127.898 417.652 127.764 417.876C127.719 418 127.659 418.118 127.582 418.225Z" fill="#263238"/>
<path d="M121.208 311.438C121.208 311.438 117.245 298.604 124.348 291.068C124.404 291.006 124.474 290.963 124.553 290.94C124.632 290.918 124.715 290.918 124.794 290.942C124.872 290.965 124.943 291.009 124.998 291.071C125.052 291.133 125.09 291.209 125.105 291.29C125.477 293.424 125.957 299.884 121.208 311.438Z" fill="#5773F5"/>
<path d="M123.581 295.365C123.57 296.162 123.48 296.954 123.314 297.732C123.045 299.362 122.739 301.282 122.356 303.397C121.973 305.511 121.724 307.432 121.475 309.062C121.402 309.851 121.261 310.634 121.054 311.4C120.981 310.604 121.003 309.803 121.121 309.014C121.255 307.548 121.504 305.531 121.868 303.319C122.232 301.108 122.604 299.109 122.921 297.665C123.048 296.874 123.27 296.101 123.581 295.365Z" fill="#263238"/>
<path d="M125.859 341.722C125.859 341.722 128.281 328.501 138.036 325.232C138.113 325.204 138.197 325.197 138.276 325.215C138.356 325.232 138.429 325.272 138.486 325.33C138.545 325.389 138.586 325.462 138.604 325.542C138.623 325.623 138.619 325.707 138.592 325.785C137.951 327.86 135.394 333.758 125.859 341.722Z" fill="#5773F5"/>
<path d="M135.378 328.637C135.001 329.328 134.556 329.978 134.047 330.577L130.64 335.155L127.241 339.734C126.817 340.405 126.33 341.031 125.785 341.606C126.092 340.869 126.484 340.172 126.953 339.529C127.748 338.298 128.868 336.62 130.237 334.845C131.606 333.07 132.841 331.478 133.77 330.353C134.238 329.72 134.777 329.143 135.378 328.637Z" fill="#263238"/>
<path d="M123.219 374.895C123.219 374.895 121.754 361.528 130.141 355.495C130.207 355.447 130.285 355.417 130.366 355.411C130.448 355.406 130.53 355.423 130.603 355.46C130.676 355.499 130.735 355.557 130.778 355.628C130.819 355.699 130.841 355.781 130.84 355.863C130.811 358.046 130.065 364.477 123.219 374.895Z" fill="#5773F5"/>
<path d="M128.577 359.578C128.418 360.358 128.181 361.118 127.869 361.848L125.955 367.232C125.227 369.25 124.576 371.112 124.039 372.625C123.82 373.386 123.536 374.126 123.188 374.836C123.265 374.041 123.438 373.26 123.705 372.509C124.106 371.093 124.739 369.162 125.505 367.057C126.27 364.952 127.027 363.07 127.601 361.722C127.844 360.971 128.171 360.251 128.577 359.578Z" fill="#263238"/>
<path d="M130.571 408.272C130.571 408.272 129.613 394.858 138.172 389.163C138.238 389.115 138.317 389.087 138.399 389.082C138.481 389.079 138.562 389.098 138.633 389.138C138.705 389.179 138.764 389.24 138.801 389.313C138.84 389.386 138.857 389.469 138.851 389.551C138.747 391.705 137.769 398.098 130.571 408.272Z" fill="#5773F5"/>
<path d="M136.467 393.15C136.277 393.926 136.01 394.68 135.672 395.401C135.06 396.933 134.332 398.728 133.538 400.707C132.743 402.686 132.015 404.49 131.403 406.023C131.155 406.781 130.835 407.511 130.445 408.205C130.56 407.415 130.762 406.64 131.049 405.897C131.499 404.501 132.198 402.598 133.05 400.522C133.901 398.447 134.706 396.585 135.328 395.256C135.627 394.512 136.009 393.805 136.467 393.15Z" fill="#263238"/>
<path d="M115.513 300.166C115.513 300.166 103.748 293.91 103.508 283.531C103.505 283.447 103.524 283.365 103.564 283.293C103.604 283.22 103.663 283.161 103.734 283.12C103.806 283.08 103.887 283.061 103.969 283.065C104.051 283.069 104.13 283.096 104.198 283.143C105.949 284.365 110.794 288.594 115.513 300.166Z" fill="#5773F5"/>
<path d="M105.957 287.119C106.506 287.692 106.997 288.319 107.422 288.991L110.734 293.638L114.066 298.274C114.573 298.876 115.022 299.525 115.406 300.214C114.797 299.706 114.254 299.123 113.788 298.477C112.831 297.352 111.624 295.743 110.332 293.919C109.04 292.096 107.919 290.417 107.135 289.176C106.667 288.538 106.272 287.847 105.957 287.119Z" fill="#263238"/>
<path d="M128.15 327.734C128.15 327.734 116.031 322.245 115.179 311.866C115.169 311.784 115.183 311.701 115.219 311.627C115.254 311.552 115.31 311.49 115.379 311.445C115.448 311.402 115.528 311.379 115.609 311.379C115.691 311.38 115.77 311.404 115.839 311.449C117.658 312.563 122.742 316.473 128.15 327.734Z" fill="#5773F5"/>
<path d="M117.828 315.25C118.408 315.785 118.933 316.376 119.398 317.015L122.988 321.458C124.338 323.107 125.553 324.601 126.588 325.881C127.128 326.455 127.615 327.078 128.043 327.744C127.409 327.271 126.835 326.725 126.33 326.114C125.372 325.047 124.003 323.514 122.605 321.768C121.207 320.022 119.982 318.421 119.121 317.238C118.618 316.626 118.184 315.96 117.828 315.25Z" fill="#263238"/>
<path d="M121.171 358.493C121.171 358.493 112.852 348.007 116.758 338.376C116.787 338.298 116.836 338.231 116.901 338.18C116.966 338.13 117.044 338.101 117.125 338.094C117.206 338.086 117.287 338.103 117.36 338.141C117.432 338.178 117.492 338.236 117.534 338.307C118.654 340.141 121.43 345.97 121.171 358.493Z" fill="#5773F5"/>
<path d="M117.578 342.643C117.855 343.39 118.057 344.163 118.181 344.951C118.536 346.561 118.938 348.463 119.388 350.558C119.838 352.653 120.249 354.535 120.603 356.155C120.828 356.918 120.982 357.7 121.063 358.492C120.703 357.78 120.436 357.024 120.268 356.242C119.857 354.826 119.368 352.857 118.899 350.655C118.43 348.453 118.066 346.464 117.837 345.02C117.663 344.239 117.576 343.443 117.578 342.643Z" fill="#263238"/>
<path d="M129.412 394.684C129.412 394.684 117.388 388.97 116.708 378.591C116.703 378.51 116.72 378.428 116.758 378.356C116.795 378.284 116.852 378.223 116.921 378.181C116.99 378.139 117.069 378.117 117.15 378.117C117.23 378.118 117.309 378.141 117.378 378.183C119.178 379.328 124.204 383.324 129.412 394.684Z" fill="#5773F5"/>
<path d="M119.305 382.053C119.875 382.603 120.391 383.208 120.846 383.858L124.369 388.349C125.681 390.026 126.877 391.54 127.892 392.83C128.423 393.434 128.9 394.082 129.318 394.77C128.693 394.282 128.123 393.721 127.624 393.102C126.667 392.015 125.345 390.463 123.976 388.698C122.607 386.932 121.411 385.312 120.568 384.109C120.071 383.476 119.647 382.785 119.305 382.053Z" fill="#263238"/>
<path d="M153.367 341.789C153.367 341.789 153.367 341.896 153.367 342.09C153.367 342.284 153.367 342.604 153.367 342.953C153.329 343.755 153.28 344.842 153.223 346.212C153.07 349.122 152.849 353.08 152.591 357.852C151.73 362.702 149.289 368.106 145.996 373.372C143.582 377.252 141.065 380.744 138.883 384.042C136.9 386.893 135.119 389.882 133.55 392.986C132.515 395.087 131.678 397.282 131.051 399.543C130.841 400.347 130.678 400.968 130.591 401.395C130.551 401.618 130.49 401.835 130.41 402.045C130.411 401.821 130.437 401.596 130.487 401.377C130.554 400.94 130.678 400.309 130.86 399.495C131.425 397.197 132.221 394.964 133.233 392.83C134.764 389.688 136.524 386.666 138.499 383.79C140.663 380.501 143.181 377 145.575 373.12C148.848 367.911 151.319 362.595 152.17 357.803C152.495 353.022 152.773 349.073 152.975 346.163C153.079 344.805 153.166 343.719 153.233 342.914C153.233 342.574 153.3 342.293 153.319 342.061C153.324 341.968 153.34 341.877 153.367 341.789Z" fill="#263238"/>
<path d="M146.204 372.383C146.204 372.383 151.297 359.967 144.892 351.829C144.844 351.762 144.779 351.71 144.702 351.679C144.626 351.649 144.544 351.64 144.463 351.656C144.383 351.671 144.309 351.709 144.249 351.766C144.19 351.822 144.147 351.895 144.126 351.975C143.599 354.05 142.508 360.442 146.204 372.383Z" fill="#5773F5"/>
<path d="M145.285 356.156C145.501 356.921 145.636 357.708 145.686 358.503C145.867 359.968 146.069 361.985 146.223 364.225C146.375 366.467 146.461 368.504 146.452 369.969C146.497 370.767 146.452 371.567 146.318 372.354C146.173 371.575 146.102 370.782 146.107 369.987C145.993 368.338 145.867 366.399 145.724 364.265C145.58 362.131 145.446 360.191 145.332 358.542C145.231 357.75 145.215 356.951 145.285 356.156Z" fill="#263238"/>
<g opacity="0.3">
<path d="M146.204 372.383C146.204 372.383 151.297 359.967 144.892 351.829C144.844 351.762 144.779 351.71 144.702 351.679C144.626 351.649 144.544 351.64 144.463 351.656C144.383 351.671 144.309 351.709 144.249 351.766C144.19 351.822 144.147 351.895 144.126 351.975C143.599 354.05 142.508 360.442 146.204 372.383Z" fill="black"/>
</g>
<path d="M130.436 402.318C130.436 402.318 134.515 389.524 127.478 381.948C127.422 381.887 127.353 381.843 127.274 381.82C127.196 381.797 127.113 381.797 127.035 381.82C126.956 381.842 126.886 381.885 126.831 381.945C126.775 382.006 126.737 382.08 126.722 382.161C126.367 384.267 125.783 390.716 130.436 402.318Z" fill="#5773F5"/>
<path d="M128.205 386.225C128.49 386.968 128.689 387.742 128.799 388.532C129.096 389.968 129.46 391.967 129.756 394.188C130.053 396.41 130.331 398.427 130.445 399.891C130.543 400.683 130.543 401.486 130.445 402.278C130.247 401.508 130.115 400.723 130.053 399.93C129.814 398.301 129.526 396.38 129.22 394.265C128.914 392.151 128.617 390.22 128.368 388.59C128.235 387.81 128.181 387.017 128.205 386.225Z" fill="#263238"/>
<g opacity="0.3">
<path d="M130.436 402.318C130.436 402.318 134.515 389.524 127.478 381.948C127.422 381.887 127.353 381.843 127.274 381.82C127.196 381.797 127.113 381.797 127.035 381.82C126.956 381.842 126.886 381.885 126.831 381.945C126.775 382.006 126.737 382.08 126.722 382.161C126.367 384.267 125.783 390.716 130.436 402.318Z" fill="black"/>
</g>
<path d="M152.695 357.202C152.695 357.202 163.571 349.491 162.47 339.14C162.463 339.059 162.432 338.982 162.383 338.917C162.335 338.852 162.269 338.801 162.194 338.771C162.118 338.741 162.037 338.733 161.958 338.747C161.877 338.76 161.803 338.796 161.742 338.849C160.163 340.295 155.903 345.116 152.695 357.202Z" fill="#5773F5"/>
<g opacity="0.3">
<path d="M152.695 357.202C152.695 357.202 163.571 349.491 162.47 339.14C162.463 339.059 162.432 338.982 162.383 338.917C162.335 338.852 162.269 338.801 162.194 338.771C162.118 338.741 162.037 338.733 161.958 338.747C161.877 338.76 161.803 338.796 161.742 338.849C160.163 340.295 155.903 345.116 152.695 357.202Z" fill="black"/>
</g>
<path d="M160.508 343.002C160.284 343.768 159.98 344.506 159.597 345.204C158.985 346.533 158.085 348.356 157.032 350.326C155.979 352.295 154.964 354.061 154.16 355.303C153.785 356.007 153.322 356.658 152.781 357.243C153.083 356.508 153.446 355.8 153.863 355.127C154.648 353.682 155.558 351.984 156.572 350.102C157.587 348.221 158.488 346.515 159.272 345.06C159.611 344.331 160.026 343.642 160.508 343.002Z" fill="#263238"/>
<path d="M134.82 389.629C134.82 389.629 147.937 387.553 151.45 377.776C151.479 377.698 151.486 377.615 151.472 377.534C151.457 377.453 151.421 377.377 151.366 377.316C151.311 377.254 151.241 377.21 151.163 377.187C151.085 377.163 151.002 377.162 150.923 377.183C148.875 377.785 142.948 380.24 134.82 389.629Z" fill="#5773F5"/>
<g opacity="0.3">
<path d="M134.82 389.629C134.82 389.629 147.937 387.553 151.45 377.776C151.479 377.698 151.486 377.615 151.472 377.534C151.457 377.453 151.421 377.377 151.366 377.316C151.311 377.254 151.241 377.21 151.163 377.187C151.085 377.163 151.002 377.162 150.923 377.183C148.875 377.785 142.948 380.24 134.82 389.629Z" fill="black"/>
</g>
<path d="M148.005 380.367C147.474 380.959 146.881 381.49 146.233 381.948C145.104 382.86 143.505 384.091 141.696 385.391C139.887 386.69 138.221 387.816 136.986 388.592C136.339 389.052 135.638 389.427 134.898 389.708C135.489 389.171 136.13 388.697 136.814 388.292L141.427 384.984L146.042 381.657C146.654 381.164 147.311 380.732 148.005 380.367Z" fill="#263238"/>
<path d="M122.31 414.094L118.48 440.187H142.328L139.236 414.094H122.31Z" fill="#455A64"/>
<path d="M140.182 422.175C136.998 422.428 133.802 422.512 130.609 422.427C127.415 422.512 124.22 422.428 121.035 422.175C124.22 421.926 127.415 421.841 130.609 421.922C133.802 421.841 136.998 421.926 140.182 422.175Z" fill="#263238"/>
<path d="M140.662 424.248C137.355 424.504 134.039 424.588 130.724 424.502C127.413 424.588 124.1 424.505 120.797 424.248C120.797 424.113 125.239 423.996 130.724 423.996C136.21 423.996 140.662 424.113 140.662 424.248Z" fill="#263238"/>
</svg>
