<svg width="590" height="425" viewBox="0 0 590 425" fill="none" xmlns="http://www.w3.org/2000/svg">
<path d="M555.214 385.807C555.214 385.934 438.7 386.028 295.016 386.028C151.331 386.028 34.7864 385.934 34.7864 385.807C34.7864 385.679 151.276 385.586 295.016 385.586C438.755 385.586 555.214 385.688 555.214 385.807Z" fill="#263238"/>
<path d="M393.854 38.9042H183.554V198.109H393.854V38.9042Z" fill="#FAFAFA"/>
<path d="M393.854 198.109C393.854 196.575 393.791 136.007 393.689 38.9041L393.854 39.0948H183.57L183.775 38.8587C183.775 95.477 183.775 149.353 183.775 198.063L183.586 197.846L393.886 198.063L183.586 198.281H183.397V198.063C183.397 149.353 183.397 95.4679 183.397 38.8587V38.6227H183.617L393.901 38.6772H394.066V38.8587C393.917 136.007 393.854 196.565 393.854 198.109Z" fill="#263238"/>
<path d="M247.825 126.819L268.507 127.155C268.349 139.865 259.067 150.243 247.825 150.243H247.699L247.825 126.819Z" fill="#455A64"/>
<path d="M282.029 159.15C281.88 159.165 281.73 159.165 281.581 159.15H280.322L275.697 159.213H275.657L275.618 159.159C273.769 156.481 271.394 153.012 268.798 149.235L263.291 141.146L263.401 141.2L257.312 141.137L255.597 141.182C255.396 141.207 255.193 141.207 254.992 141.182C255.192 141.148 255.395 141.132 255.597 141.137H257.297L263.385 141.073H263.448V141.128L268.955 149.199L275.72 159.186L275.626 159.132L280.251 159.195H281.51C281.681 159.155 281.855 159.139 282.029 159.15Z" fill="#263238"/>
<path d="M289.448 161.901C289.448 162.001 286.45 162.082 282.753 162.082C279.056 162.082 276.059 162.001 276.059 161.901C276.059 161.801 279.056 161.719 282.753 161.719C286.45 161.719 289.448 161.801 289.448 161.901Z" fill="#263238"/>
<path d="M289.448 164.788C289.448 164.888 286.45 164.97 282.753 164.97C279.056 164.97 276.059 164.888 276.059 164.788C276.059 164.688 279.056 164.606 282.753 164.606C286.45 164.606 289.448 164.661 289.448 164.788Z" fill="#263238"/>
<path d="M244.552 123.423L244.261 146.847C233.028 146.666 223.863 136.152 223.863 123.423C223.863 110.694 233.201 100.008 244.552 100.008C255.904 100.008 265.242 110.576 265.242 123.423H244.552Z" fill="#319E47"/>
<path d="M236.473 115.76C236.359 115.807 236.24 115.837 236.119 115.851L235.089 116.042L231.376 116.65H231.313L231.266 116.595L226.31 111.03C223.95 108.306 221.786 105.882 220.244 104.093L218.435 101.96C218.202 101.709 217.989 101.436 217.798 101.142C218.058 101.355 218.301 101.595 218.522 101.86L220.402 103.903C221.975 105.646 224.146 108.07 226.53 110.766L231.447 116.377H231.337L235.073 115.905L236.104 115.796C236.224 115.758 236.349 115.746 236.473 115.76Z" fill="#263238"/>
<path d="M212.559 100.126C212.559 100.225 209.562 100.307 205.864 100.307C202.167 100.307 199.178 100.225 199.178 100.126C199.178 100.026 202.167 99.944 205.864 99.944C209.562 99.944 212.559 100.026 212.559 100.126Z" fill="#263238"/>
<path d="M212.559 102.986C212.559 103.085 209.562 103.167 205.864 103.167C202.167 103.167 199.178 103.085 199.178 102.986C199.178 102.886 202.167 102.804 205.864 102.804C209.562 102.804 212.559 102.886 212.559 102.986Z" fill="#263238"/>
<path d="M316.918 77.155L316.839 62.6282C312.997 62.7089 309.307 64.3703 306.432 67.3131C304.595 69.1631 303.178 71.5037 302.304 74.1306C301.431 76.7576 301.128 79.5913 301.421 82.3847C301.488 83.0955 301.587 83.8017 301.72 84.5002C301.716 84.5181 301.716 84.5367 301.72 84.5546L316.91 80.6052L316.918 77.155Z" fill="#319E47"/>
<g opacity="0.3">
<path d="M316.918 77.155L316.839 62.6282C312.997 62.7089 309.307 64.3703 306.432 67.3131C304.595 69.1631 303.178 71.5037 302.304 74.1306C301.431 76.7576 301.128 79.5913 301.421 82.3847C301.488 83.0955 301.587 83.8017 301.72 84.5002C301.716 84.5181 301.716 84.5367 301.72 84.5546L316.91 80.6052L316.918 77.155Z" fill="white"/>
</g>
<path d="M332.58 72.679C331.471 69.9293 329.753 67.5657 327.6 65.8266C325.447 64.0876 322.935 63.0345 320.316 62.7735L319.837 62.7191H319.53C319.231 62.7191 318.924 62.7191 318.617 62.7191H318.531L318.617 77.2459V80.6597L333.871 84.4639C334.106 83.2266 334.219 81.9626 334.209 80.696C334.186 77.9176 333.63 75.1796 332.58 72.679Z" fill="#319E47"/>
<g opacity="0.3">
<path d="M332.58 72.679C331.471 69.9293 329.753 67.5657 327.6 65.8266C325.447 64.0876 322.935 63.0345 320.316 62.7735L319.837 62.7191H319.53C319.231 62.7191 318.924 62.7191 318.617 62.7191H318.531L318.617 77.2459V80.6597L333.871 84.4639C334.106 83.2266 334.219 81.9626 334.209 80.696C334.186 77.9176 333.63 75.1796 332.58 72.679Z" fill="black"/>
</g>
<path d="M317.736 82.3938L302.538 86.3433C303.317 90.3345 305.253 93.8996 308.025 96.4495C310.797 98.9994 314.24 100.382 317.785 100.368C321.33 100.354 324.765 98.9452 327.522 96.3738C330.279 93.8025 332.194 90.2225 332.95 86.2252L317.752 82.3938" fill="#319E47"/>
<path d="M376.878 79.779C376.878 79.9061 369.011 80.015 359.335 80.015C349.659 80.015 341.785 79.9061 341.785 79.779C341.785 79.6519 349.651 79.5338 359.335 79.5338C369.019 79.5338 376.878 79.6428 376.878 79.779Z" fill="#263238"/>
<path d="M376.878 75.1576C376.878 75.2847 369.011 75.3937 359.335 75.3937C349.659 75.3937 341.785 75.2847 341.785 75.1576C341.785 75.0305 349.651 74.9216 359.335 74.9216C369.019 74.9216 376.878 75.0305 376.878 75.1576Z" fill="#263238"/>
<path d="M376.878 70.5454C376.878 70.6725 369.011 70.7814 359.335 70.7814C349.659 70.7814 341.785 70.6725 341.785 70.5454C341.785 70.4182 349.651 70.3093 359.335 70.3093C369.019 70.3093 376.878 70.4092 376.878 70.5454Z" fill="#263238"/>
<path d="M376.878 84.0735C376.878 84.2006 369.011 84.3095 359.335 84.3095C349.659 84.3095 341.785 84.2006 341.785 84.0735C341.785 83.9463 349.651 83.8283 359.335 83.8283C369.019 83.8283 376.878 83.9827 376.878 84.0735Z" fill="#263238"/>
<path d="M366.014 88.7402C366.014 88.8763 360.617 88.9762 353.962 88.9762C347.307 88.9762 341.91 88.8763 341.91 88.7402C341.91 88.604 347.307 88.5041 353.962 88.5041C360.617 88.5041 366.014 88.613 366.014 88.7402Z" fill="#263238"/>
<path d="M308.603 122.161H304.992V168.747H308.603V122.161Z" fill="#319E47"/>
<path d="M315.581 137.977H311.97V168.738H315.581V137.977Z" fill="#319E47"/>
<path d="M322.558 127.944H318.948V168.974H322.558V127.944Z" fill="#319E47"/>
<path d="M329.536 123.959H325.925V168.747H329.536V123.959Z" fill="#319E47"/>
<path d="M336.506 138.921H332.895V168.738H336.506V138.921Z" fill="#319E47"/>
<path d="M343.484 144.768H339.873V168.738H343.484V144.768Z" fill="#319E47"/>
<path d="M350.462 126.937H346.851V168.738H350.462V126.937Z" fill="#319E47"/>
<path d="M357.439 134.472H353.828V168.738H357.439V134.472Z" fill="#319E47"/>
<path d="M364.417 128.453H360.806V168.738H364.417V128.453Z" fill="#319E47"/>
<path d="M371.395 141.291H367.784V168.738H371.395V141.291Z" fill="#319E47"/>
<path d="M378.372 136.07H374.762V168.738H378.372V136.07Z" fill="#319E47"/>
<path d="M379.851 171.988C379.851 172.079 362.71 172.16 341.564 172.16C320.419 172.16 303.277 172.079 303.277 171.988C303.277 171.897 320.419 171.815 341.564 171.815C362.71 171.815 379.851 171.888 379.851 171.988Z" fill="#263238"/>
<path d="M310.145 175.683C308.361 175.901 306.563 175.901 304.78 175.683C306.562 175.453 308.362 175.453 310.145 175.683Z" fill="#263238"/>
<path d="M319.042 175.837C316.909 176.068 314.763 176.068 312.631 175.837C314.763 175.607 316.909 175.607 319.042 175.837Z" fill="#263238"/>
<path d="M326.633 175.837C324.501 176.068 322.354 176.068 320.222 175.837C322.354 175.607 324.501 175.607 326.633 175.837Z" fill="#263238"/>
<path d="M334.217 175.837C332.084 176.068 329.938 176.068 327.805 175.837C329.938 175.607 332.084 175.607 334.217 175.837Z" fill="#263238"/>
<path d="M341.808 175.837C339.676 176.068 337.529 176.068 335.397 175.837C337.529 175.607 339.676 175.607 341.808 175.837Z" fill="#263238"/>
<path d="M349.392 175.837C347.259 176.068 345.113 176.068 342.98 175.837C345.113 175.607 347.259 175.607 349.392 175.837Z" fill="#263238"/>
<path d="M356.983 175.837C354.85 176.068 352.704 176.068 350.572 175.837C352.704 175.607 354.85 175.607 356.983 175.837Z" fill="#263238"/>
<path d="M364.551 175.837C362.418 176.068 360.272 176.068 358.139 175.837C360.272 175.607 362.418 175.607 364.551 175.837Z" fill="#263238"/>
<path d="M372.158 175.837C370.025 176.068 367.879 176.068 365.746 175.837C367.879 175.607 370.025 175.607 372.158 175.837Z" fill="#263238"/>
<path d="M379.749 175.837C377.617 176.068 375.47 176.068 373.338 175.837C375.47 175.607 377.617 175.607 379.749 175.837Z" fill="#263238"/>
<g opacity="0.3">
<path d="M315.581 137.977H311.97V168.738H315.581V137.977Z" fill="white"/>
</g>
<g opacity="0.3">
<path d="M329.536 123.959H325.925V168.747H329.536V123.959Z" fill="white"/>
</g>
<g opacity="0.3">
<path d="M343.484 144.768H339.873V168.738H343.484V144.768Z" fill="white"/>
</g>
<g opacity="0.3">
<path d="M357.439 134.472H353.828V168.738H357.439V134.472Z" fill="white"/>
</g>
<g opacity="0.3">
<path d="M371.395 141.291H367.784V168.738H371.395V141.291Z" fill="white"/>
</g>
<path d="M209.105 68.8294C209.107 69.6257 208.904 70.4045 208.521 71.0674C208.139 71.7302 207.595 72.2471 206.958 72.5527C206.321 72.8582 205.619 72.9386 204.942 72.7837C204.266 72.6288 203.644 72.2456 203.156 71.6825C202.668 71.1195 202.336 70.402 202.202 69.6209C202.068 68.8399 202.138 68.0304 202.402 67.2951C202.667 66.5598 203.115 65.9317 203.689 65.4904C204.264 65.0492 204.938 64.8146 205.628 64.8164C206.55 64.8164 207.435 65.2392 208.087 65.9917C208.739 66.7443 209.105 67.7651 209.105 68.8294Z" fill="#319E47"/>
<path d="M268.916 65.6607C268.916 65.7969 257.186 65.8968 242.72 65.8968C228.253 65.8968 216.524 65.7969 216.524 65.6607C216.524 65.5246 228.245 65.4247 242.72 65.4247C257.194 65.4247 268.916 65.5336 268.916 65.6607Z" fill="#319E47"/>
<path d="M237.551 70.5181C237.294 70.5897 237.029 70.6202 236.764 70.6089L234.554 70.6906C232.682 70.6906 230.101 70.7542 227.254 70.7542C224.406 70.7542 221.818 70.7542 219.953 70.6906L217.735 70.6089C217.47 70.6193 217.206 70.5888 216.948 70.5181C217.207 70.4529 217.471 70.4224 217.735 70.4273C218.262 70.4273 219.017 70.3729 219.953 70.3547C221.818 70.3547 224.398 70.2821 227.254 70.2821C230.109 70.2821 232.682 70.2821 234.554 70.3547C235.49 70.3547 236.245 70.4001 236.764 70.4273C237.029 70.4216 237.293 70.4521 237.551 70.5181Z" fill="#319E47"/>
<path d="M179.267 53.322H69.2046V198.3H179.267V53.322Z" fill="#FAFAFA"/>
<path d="M179.275 198.29C179.275 198.29 179.275 198.054 179.275 197.609C179.275 197.165 179.275 196.475 179.275 195.594C179.275 193.778 179.275 191.19 179.275 187.768C179.275 180.922 179.275 170.907 179.228 158.187C179.228 132.765 179.173 96.5483 179.141 53.322L179.322 53.5308H69.2675L69.472 53.2947C69.472 106.744 69.472 156.589 69.472 198.263L69.2989 198.063L149.004 198.2L171.33 198.254H177.214H179.243H177.245H171.4L149.114 198.309L69.1731 198.408H69V198.2C69 156.526 69 106.681 69 53.2312V53.1132H69.2203H179.275H179.456V53.322C179.417 96.6028 179.385 132.865 179.361 158.324C179.361 171.035 179.322 181.022 179.314 187.849C179.314 191.254 179.314 193.869 179.314 195.639C179.314 196.547 179.314 197.174 179.314 197.628C179.314 198.082 179.275 198.29 179.275 198.29Z" fill="#263238"/>
<path d="M169.811 127.345C169.811 127.436 168.592 126.637 166.271 125.793C162.991 124.612 159.522 124.301 156.123 124.885C153.792 125.3 151.532 126.14 149.429 127.372C147.038 128.85 144.825 130.681 142.844 132.82C140.689 135.017 138.541 137.514 136.071 139.82C133.551 142.306 130.601 144.145 127.418 145.213C125.774 145.715 124.06 145.835 122.375 145.567C120.753 145.283 119.175 144.723 117.695 143.906C114.988 142.28 112.362 140.483 109.828 138.522C107.575 136.787 105.086 135.501 102.465 134.718C100.173 134.072 97.806 133.86 95.4556 134.091C92.0323 134.433 88.7223 135.675 85.7796 137.723C83.7028 139.185 82.7273 140.283 82.6329 140.211C82.8364 139.911 83.0716 139.643 83.3331 139.412C84.035 138.682 84.7874 138.02 85.5829 137.432C88.0707 135.577 90.8559 134.317 93.7733 133.728C96.6908 133.138 99.6812 133.231 102.567 134C105.262 134.782 107.825 136.077 110.151 137.832C112.66 139.757 115.26 141.522 117.939 143.116C120.784 144.8 124.06 145.245 127.166 144.369C130.27 143.356 133.155 141.598 135.631 139.212C138.069 136.951 140.217 134.472 142.412 132.266C144.446 130.099 146.718 128.249 149.169 126.764C151.823 125.244 154.711 124.348 157.667 124.126C160.623 123.905 163.588 124.363 166.389 125.475C167.284 125.823 168.152 126.254 168.985 126.764C169.276 126.927 169.553 127.122 169.811 127.345Z" fill="#319E47"/>
<path d="M108.852 146.82H99.499V176.028H108.852V146.82Z" fill="#319E47"/>
<path d="M148.563 146.82H139.21V176.028H148.563V146.82Z" fill="#319E47"/>
<path d="M161.795 129.66H152.442V176.019H161.795V129.66Z" fill="#319E47"/>
<path d="M96.7457 166.831H87.3922V176.664H96.7457V166.831Z" fill="#319E47"/>
<path d="M122.1 160.003H112.739V176.019H122.1V160.003Z" fill="#319E47"/>
<path d="M135.324 156.326H125.97V176.019H135.324V156.326Z" fill="#319E47"/>
<path d="M109.238 179.469C109.238 179.705 106.972 179.905 104.18 179.905C101.387 179.905 99.1215 179.705 99.1215 179.469C99.1215 179.233 101.387 179.033 104.18 179.033C106.972 179.033 109.238 179.224 109.238 179.469Z" fill="#263238"/>
<path d="M97.5953 179.469C97.5953 179.705 95.3297 179.905 92.537 179.905C89.7444 179.905 87.4788 179.705 87.4788 179.469C87.4788 179.233 89.7444 179.033 92.537 179.033C95.3297 179.033 97.5953 179.224 97.5953 179.469Z" fill="#263238"/>
<path d="M163.644 179.469C163.644 179.705 161.087 179.905 157.933 179.905C154.778 179.905 152.214 179.705 152.214 179.469C152.214 179.233 154.77 179.033 157.933 179.033C161.095 179.033 163.644 179.224 163.644 179.469Z" fill="#263238"/>
<path d="M144.032 179.905C147.186 179.905 149.743 179.71 149.743 179.469C149.743 179.228 147.186 179.033 144.032 179.033C140.878 179.033 138.321 179.228 138.321 179.469C138.321 179.71 140.878 179.905 144.032 179.905Z" fill="#263238"/>
<path d="M135.332 179.469C135.332 179.705 133.066 179.905 130.273 179.905C127.481 179.905 125.215 179.705 125.215 179.469C125.215 179.233 127.481 179.033 130.273 179.033C133.066 179.033 135.332 179.224 135.332 179.469Z" fill="#263238"/>
<path d="M121.652 179.469C121.652 179.705 119.394 179.905 116.601 179.905C113.809 179.905 111.543 179.705 111.543 179.469C111.543 179.233 113.809 179.033 116.601 179.033C119.394 179.033 121.652 179.224 121.652 179.469Z" fill="#263238"/>
<path d="M163.644 74.4585H87.172V111.111H163.644V74.4585Z" fill="#E0E0E0"/>
<path d="M103.063 86.0346C103.064 86.8502 102.856 87.648 102.465 88.3271C102.073 89.0061 101.516 89.5359 100.863 89.8492C100.211 90.1626 99.4925 90.2456 98.7992 90.0875C98.1059 89.9295 97.4688 89.5376 96.9685 88.9615C96.4683 88.3854 96.1273 87.651 95.9889 86.8512C95.8504 86.0513 95.9207 85.2221 96.1908 84.4683C96.4609 83.7146 96.9186 83.0703 97.5061 82.617C98.0936 82.1637 98.7844 81.9217 99.4911 81.9217C100.437 81.9217 101.344 82.3547 102.014 83.1258C102.683 83.8968 103.061 84.9429 103.063 86.0346Z" fill="#263238"/>
<path d="M131.469 83.1927H106.626V84.7816H131.469V83.1927Z" fill="#263238"/>
<path d="M154.951 86.8154H106.626V88.4042H154.951V86.8154Z" fill="white"/>
<path d="M103.063 98.691C103.064 99.5067 102.856 100.305 102.465 100.984C102.073 101.663 101.516 102.192 100.863 102.506C100.211 102.819 99.4925 102.902 98.7992 102.744C98.1059 102.586 97.4688 102.194 96.9685 101.618C96.4683 101.042 96.1273 100.307 95.9889 99.5076C95.8504 98.7078 95.9207 97.8785 96.1908 97.1248C96.4609 96.3711 96.9186 95.7268 97.5061 95.2734C98.0936 94.8201 98.7844 94.5781 99.4911 94.5781C99.9598 94.5769 100.424 94.6824 100.857 94.8886C101.291 95.0948 101.684 95.3975 102.016 95.7796C102.348 96.1616 102.611 96.6154 102.791 97.115C102.97 97.6146 103.063 98.1502 103.063 98.691Z" fill="#319E47"/>
<path d="M119.307 95.8492H106.626V97.4381H119.307V95.8492Z" fill="#319E47"/>
<path d="M154.951 99.4628H106.626V101.052H154.951V99.4628Z" fill="white"/>
<path d="M525.031 27.2918H404.167V186.497H525.031V27.2918Z" fill="#FAFAFA"/>
<path d="M525.031 186.497C525.031 186.497 525.031 186.233 525.031 185.743C525.031 185.253 525.031 184.499 525.031 183.528C525.031 181.576 525.031 178.697 525.031 174.939C525.031 167.421 525.031 156.426 524.983 142.462C524.983 114.543 524.928 74.7672 524.897 27.2918L525.078 27.5006H404.222L404.435 27.2645C404.435 85.9619 404.435 140.701 404.395 186.469L404.222 186.27L491.896 186.369L516.401 186.424H522.859H525.094C525.094 186.424 524.354 186.424 522.899 186.424H516.472L491.991 186.578L404.207 186.678H404.033V186.478C404.033 140.71 404.033 85.971 404.033 27.2736V27.0557H404.254H525.109H525.29V27.2645C525.29 74.7944 525.219 114.616 525.196 142.571C525.196 156.526 525.196 167.503 525.149 175.011C525.149 178.743 525.149 181.612 525.149 183.555V185.743C525.031 186.251 525.031 186.497 525.031 186.497Z" fill="#263238"/>
<path d="M511.752 40.0209H413.843V130.677H511.752V40.0209Z" fill="#E0E0E0"/>
<path d="M423.889 114.562H420.679V115.633H423.889V114.562Z" fill="#263238"/>
<path d="M432.062 120.272H427.956V121.344H432.062V120.272Z" fill="#263238"/>
<path d="M446.364 120.272H442.258V121.344H446.364V120.272Z" fill="#263238"/>
<path d="M460.673 120.272H456.567V121.344H460.673V120.272Z" fill="#263238"/>
<path d="M474.975 120.272H470.869V121.344H474.975V120.272Z" fill="#263238"/>
<path d="M489.285 120.272H485.178V121.344H489.285V120.272Z" fill="#263238"/>
<path d="M503.586 120.272H499.48V121.344H503.586V120.272Z" fill="#263238"/>
<path d="M423.889 100.28H420.679V101.351H423.889V100.28Z" fill="#263238"/>
<path d="M423.889 73.4235H420.679V74.4948H423.889V73.4235Z" fill="#263238"/>
<path d="M423.889 59.9226H420.679V60.994H423.889V59.9226Z" fill="#263238"/>
<path d="M424.054 86.8517H420.844V87.9231H424.054V86.8517Z" fill="#263238"/>
<path d="M503.476 115.624C503.361 115.636 503.245 115.636 503.13 115.624H502.123H498.19L483.896 115.706L436.696 115.769H425.368V115.533C425.368 97.3746 425.423 81.3133 425.439 69.819C425.439 64.0991 425.486 59.505 425.502 56.3182C425.502 54.7565 425.502 53.5399 425.502 52.6865C425.502 52.287 425.502 51.9783 425.502 51.7785C425.49 51.6731 425.49 51.5662 425.502 51.4608C425.514 51.5662 425.514 51.6731 425.502 51.7785C425.502 52.0146 425.502 52.3233 425.502 52.6865C425.502 53.5399 425.502 54.7565 425.502 56.3182C425.502 59.505 425.541 64.0991 425.565 69.819C425.565 81.3133 425.565 97.3382 425.635 115.533L425.431 115.306H436.609L483.809 115.379L498.103 115.451L502.036 115.497H503.043L503.476 115.624Z" fill="#263238"/>
<path d="M504.381 87.3874C504.381 87.5145 487.436 87.6234 466.534 87.6234C445.632 87.6234 428.68 87.5145 428.68 87.3874C428.68 87.2603 445.624 87.1513 466.534 87.1513C487.444 87.1513 504.381 87.2603 504.381 87.3874Z" fill="#263238"/>
<path d="M504.381 73.9955C504.381 74.1317 487.436 74.2316 466.534 74.2316C445.632 74.2316 428.68 74.1317 428.68 73.9955C428.68 73.8593 445.624 73.7594 466.534 73.7594C487.444 73.7594 504.381 73.823 504.381 73.9955Z" fill="#263238"/>
<path d="M504.381 60.4492C504.381 60.5854 487.436 60.6853 466.534 60.6853C445.632 60.6853 428.68 60.5854 428.68 60.4492C428.68 60.313 445.624 60.2132 466.534 60.2132C487.444 60.2132 504.381 60.3221 504.381 60.4492Z" fill="#263238"/>
<path d="M504.381 100.816C504.381 100.952 487.436 101.052 466.534 101.052C445.632 101.052 428.68 100.952 428.68 100.816C428.68 100.679 445.624 100.58 466.534 100.58C487.444 100.58 504.381 100.689 504.381 100.816Z" fill="#263238"/>
<path d="M429.458 112.737V100.816L435.893 89.285L440.267 93.1527L449.227 77.0825L454.514 81.377L461.869 66.5505L467.848 72.1706L476.808 52.5049L486.484 74.4858L494.296 63.4908L503.492 60.4493V112.737H429.458Z" fill="#455A64"/>
<path d="M504.381 56.2183C504.381 56.2183 504.326 56.2183 504.215 56.2183H503.736H501.871L494.791 56.2818L494.886 56.2274L487.334 67.64L487.286 67.7126H487.271H468.343L468.509 67.6037C466.015 72.3885 463.332 77.5909 460.555 82.8932L452.736 97.883L452.586 98.1735L452.406 97.9012C448.677 91.9633 445.215 86.4704 442.179 81.622H442.431L433.03 98.5095L430.41 103.149L429.71 104.357C429.553 104.629 429.458 104.765 429.458 104.765C429.458 104.765 429.521 104.611 429.671 104.329L430.324 103.085L432.873 98.3914L442.116 81.4949L442.25 81.2498L442.391 81.4859L452.657 97.7468H452.327L460.131 82.7479L468.1 67.4675L468.155 67.3585H468.273H487.2L487.074 67.4312L494.697 56.0912V56.0367H494.752L501.832 56.1003H503.696H504.176L504.381 56.2183Z" fill="#319E47"/>
<path d="M445.365 85.4444C445.371 85.6128 445.334 85.7795 445.257 85.923C445.181 86.0666 445.069 86.1804 444.936 86.2499C444.803 86.3194 444.655 86.3414 444.511 86.3131C444.367 86.2847 444.234 86.2073 444.128 86.0908C444.023 85.9743 443.95 85.824 443.919 85.6593C443.888 85.4946 443.901 85.323 443.955 85.1666C444.009 85.0102 444.103 84.8761 444.224 84.7816C444.345 84.6871 444.487 84.6365 444.633 84.6364C444.727 84.634 444.821 84.653 444.908 84.6923C444.996 84.7316 445.076 84.7904 445.144 84.8655C445.212 84.9405 445.267 85.0303 445.304 85.1296C445.342 85.2289 445.363 85.3359 445.365 85.4444Z" fill="#319E47"/>
<path d="M467.195 71.1173C467.203 71.2864 467.166 71.4542 467.091 71.5991C467.015 71.744 466.903 71.8593 466.77 71.93C466.637 72.0006 466.488 72.0234 466.343 71.9954C466.199 71.9674 466.065 71.8899 465.959 71.7729C465.853 71.6559 465.78 71.5048 465.749 71.3393C465.718 71.1738 465.731 71.0014 465.787 70.8446C465.842 70.6878 465.937 70.5538 466.059 70.46C466.181 70.3661 466.325 70.3168 466.471 70.3184C466.658 70.3159 466.839 70.3981 466.974 70.5475C467.11 70.6968 467.189 70.9014 467.195 71.1173Z" fill="#319E47"/>
<path d="M484.171 67.64C484.178 67.8083 484.14 67.975 484.064 68.1186C483.987 68.2621 483.875 68.376 483.742 68.4455C483.609 68.515 483.461 68.537 483.317 68.5086C483.173 68.4803 483.04 68.4028 482.935 68.2863C482.829 68.1698 482.756 68.0195 482.725 67.8548C482.694 67.6901 482.707 67.5185 482.761 67.3621C482.816 67.2057 482.909 67.0716 483.03 66.9771C483.151 66.8827 483.294 66.8321 483.44 66.8319C483.534 66.8295 483.627 66.8485 483.715 66.8878C483.803 66.9271 483.883 66.986 483.951 67.061C484.018 67.1361 484.073 67.2258 484.111 67.3252C484.149 67.4245 484.169 67.5315 484.171 67.64Z" fill="#319E47"/>
<path d="M507.339 144.151C507.339 144.287 486.681 144.387 461.201 144.387C435.72 144.387 415.055 144.287 415.055 144.151C415.055 144.015 435.713 143.915 461.201 143.915C486.689 143.915 507.339 144.024 507.339 144.151Z" fill="#263238"/>
<path d="M507.339 149.907C507.339 150.043 486.681 150.143 461.201 150.143C435.72 150.143 415.055 150.043 415.055 149.907C415.055 149.771 435.713 149.671 461.201 149.671C486.689 149.671 507.339 149.78 507.339 149.907Z" fill="#263238"/>
<path d="M507.339 155.709C507.339 155.836 486.681 155.945 461.201 155.945C435.72 155.945 415.055 155.836 415.055 155.709C415.055 155.582 435.713 155.473 461.201 155.473C486.689 155.473 507.339 155.536 507.339 155.709Z" fill="#263238"/>
<path d="M507.339 161.429C507.339 161.556 486.681 161.665 461.201 161.665C435.72 161.665 415.055 161.556 415.055 161.429C415.055 161.302 435.713 161.193 461.201 161.193C486.689 161.193 507.339 161.293 507.339 161.429Z" fill="#263238"/>
<path d="M465.848 186.838C468.373 182.257 469.113 176.154 469.781 170.867C470.08 168.376 470.615 164.84 468.995 163.276C467.374 161.712 467.107 159.026 465.117 157.743C464.129 157.076 462.985 156.727 461.82 156.737C460.655 156.748 459.517 157.117 458.54 157.802" fill="#263238"/>
<path d="M458.847 203.065C457.933 203.141 457.014 203.017 456.146 202.701C455.277 202.384 454.476 201.882 453.792 201.223C453.107 200.564 452.553 199.763 452.162 198.867C451.77 197.972 451.551 197 451.515 196.01C451.374 191.998 451.248 187.952 451.248 187.952C451.248 187.952 445.631 187.382 445.222 181.373C444.813 175.363 445.001 161.491 445.001 161.491C448.083 159.813 451.523 159.054 454.967 159.293C458.41 159.532 461.732 160.761 464.59 162.851L464.243 183.999V195.381C464.204 199.197 462.371 202.776 458.847 203.065Z" fill="#FFBE9D"/>
<path d="M450.76 174.037C451.169 173.395 451.79 172.944 452.495 172.777C453.201 172.609 453.939 172.738 454.56 173.136C455.188 173.61 455.641 174.308 455.838 175.108C456.036 175.908 455.964 176.757 455.637 177.505C455.349 178.06 454.957 178.544 454.488 178.927C454.018 179.31 453.48 179.585 452.908 179.732C452.395 179.855 451.941 180.175 451.632 180.634C451.324 181.093 451.181 181.658 451.232 182.223C451.397 183.727 453.718 184.297 454.764 185.546C456.392 187.484 459.972 188.309 462.387 188.615C464.802 188.921 464.464 188.938 465.84 186.838C466.771 185.415 467.246 183.702 467.193 181.959L467.453 168.665C467.544 167.069 467.449 165.467 467.17 163.897C466.875 162.306 466.031 160.896 464.81 159.953C463.457 158.992 461.742 158.907 460.208 158.372C458.28 157.7 456.644 156.315 454.843 155.32C453.041 154.326 450.831 153.731 449.021 154.708C447.723 155.414 446.85 156.816 445.584 157.59C443.79 158.695 441.344 158.44 440.47 161.304C440.16 162.294 440.16 163.366 440.47 164.356C441.69 168.249 446.142 169.813 449.352 168.13C449.415 168.793 448.817 170.255 449.454 172.337C449.659 173 449.737 174.037 450.697 174.037" fill="#263238"/>
<path d="M451.759 177.786C451.806 177.786 451.995 178.101 452.459 178.075C452.752 178.009 453.015 177.836 453.204 177.585C453.393 177.335 453.497 177.021 453.498 176.698C453.511 176.371 453.426 176.047 453.254 175.777C453.082 175.507 452.833 175.305 452.546 175.202C452.082 175.024 451.759 175.117 451.759 175.049C451.759 174.981 452.066 174.777 452.64 174.905C452.975 174.987 453.28 175.176 453.513 175.449C453.8 175.798 453.947 176.257 453.922 176.724C453.935 177.155 453.791 177.575 453.52 177.893C453.249 178.211 452.874 178.401 452.475 178.424C452.355 178.42 452.238 178.388 452.131 178.331C452.024 178.274 451.929 178.192 451.853 178.092C451.735 177.897 451.735 177.795 451.759 177.786Z" fill="#EB996E"/>
<path d="M457.549 159.664C457.549 159.664 457.667 159.435 458.013 159.154C458.516 158.776 459.096 158.534 459.704 158.449C460.611 158.32 461.532 158.47 462.363 158.882C463.367 159.414 464.217 160.234 464.818 161.254C465.836 163.104 466.429 165.191 466.548 167.34C466.665 168.209 466.715 169.088 466.698 169.966C466.482 169.132 466.334 168.278 466.257 167.416C466.065 165.34 465.458 163.333 464.479 161.534C463.918 160.583 463.134 159.808 462.206 159.29C461.47 158.89 460.646 158.716 459.824 158.788C459.003 158.86 458.216 159.175 457.549 159.698V159.664Z" fill="#455A64"/>
<path d="M441.886 165.818C441.816 165.833 441.744 165.833 441.674 165.818C441.477 165.764 441.29 165.672 441.123 165.546C440.853 165.345 440.632 165.077 440.478 164.764C440.265 164.338 440.204 163.842 440.305 163.37C440.426 162.795 440.747 162.293 441.202 161.968C441.741 161.654 442.355 161.523 442.964 161.594C443.556 161.67 444.153 161.506 444.64 161.135C445.134 160.65 445.589 160.121 446.001 159.554C446.934 158.479 448.141 157.727 449.47 157.395C450.536 157.106 451.649 157.077 452.727 157.31C453.452 157.46 454.147 157.748 454.78 158.16C455.017 158.297 455.232 158.475 455.417 158.687C454.559 158.185 453.636 157.824 452.679 157.616C451.632 157.425 450.559 157.48 449.533 157.777C448.289 158.115 447.161 158.832 446.284 159.843C445.855 160.431 445.378 160.977 444.86 161.475C444.577 161.708 444.249 161.868 443.9 161.942C443.58 161.996 443.256 162.013 442.933 161.993C442.395 161.913 441.847 162.007 441.359 162.265C440.969 162.534 440.688 162.953 440.573 163.438C440.493 163.796 440.51 164.171 440.622 164.519C440.733 164.867 440.935 165.173 441.202 165.402C441.419 165.561 441.648 165.7 441.886 165.818Z" fill="#455A64"/>
<path d="M456.77 182.538C456.77 182.495 457.045 182.384 457.502 182.053C458.144 181.583 458.667 180.946 459.02 180.2C459.277 179.661 459.431 179.072 459.475 178.468C459.518 177.864 459.449 177.256 459.272 176.681C459.074 176 458.729 175.379 458.265 174.87C457.744 174.333 457.159 173.873 456.526 173.502C455.873 173.094 455.213 172.711 454.615 172.269C454.012 171.845 453.48 171.314 453.041 170.697C452.32 169.66 451.869 168.433 451.735 167.144C451.645 166.289 451.709 165.423 451.924 164.594C451.973 164.367 452.047 164.147 452.145 163.939C452.207 163.786 452.247 163.718 452.255 163.727C451.981 164.835 451.903 165.988 452.027 167.127C452.191 168.347 452.644 169.5 453.34 170.476C453.754 171.043 454.248 171.537 454.803 171.938C455.386 172.354 456.039 172.728 456.699 173.145C457.367 173.536 457.982 174.025 458.524 174.599C459.024 175.157 459.394 175.836 459.602 176.579C459.785 177.206 459.847 177.866 459.784 178.519C459.722 179.173 459.537 179.805 459.24 180.379C458.844 181.14 458.262 181.77 457.557 182.198C457.318 182.366 457.051 182.481 456.77 182.538Z" fill="#455A64"/>
<path d="M466.415 173.715C466.186 173.813 465.944 173.873 465.699 173.893C465.033 173.979 464.362 173.999 463.693 173.953C461.472 173.803 459.33 173.007 457.494 171.649C455.591 170.361 454.153 168.409 453.419 166.116C453.232 165.407 453.205 164.661 453.34 163.94C453.376 163.673 453.471 163.419 453.616 163.2C453.41 164.135 453.439 165.112 453.702 166.031C454.486 168.202 455.895 170.044 457.722 171.284C459.509 172.592 461.569 173.401 463.716 173.638C465.368 173.834 466.407 173.63 466.415 173.715Z" fill="#455A64"/>
<path d="M467.28 169.6C468.221 168.4 469.398 167.44 470.724 166.791C472.051 166.141 473.494 165.818 474.95 165.843C477.845 166.022 480.669 168.189 481.377 171.224C481.912 173.519 481.259 175.907 480.992 178.245C480.724 180.582 480.991 183.345 482.746 184.713C483.816 185.563 485.192 185.699 486.475 186.039C487.757 186.379 489.118 187.068 489.558 188.411C490.062 189.949 489.031 191.692 487.647 192.346C486.208 192.886 484.646 192.91 483.194 192.414C483.481 193.299 483.473 194.263 483.171 195.142C482.869 196.02 482.293 196.757 481.542 197.225C480.774 197.663 479.912 197.874 479.044 197.835C478.177 197.796 477.334 197.51 476.602 197.004C475.145 195.963 474.077 194.397 473.589 192.584C472.637 194.395 470.136 194.777 468.531 193.621C467.758 192.995 467.159 192.153 466.798 191.185C466.438 190.217 466.33 189.16 466.485 188.13C466.821 186.067 467.713 184.157 469.05 182.639C469.73 181.894 470.329 181.067 470.836 180.174C471.086 179.725 471.228 179.214 471.247 178.69C471.266 178.165 471.163 177.644 470.946 177.174C470.828 176.95 470.667 176.755 470.473 176.604C470.279 176.453 470.058 176.348 469.824 176.297C469.59 176.247 469.348 176.251 469.115 176.31C468.883 176.368 468.665 176.481 468.476 176.638" fill="#263238"/>
<path d="M470.639 175.95C470.379 176.086 470.094 176.156 469.805 176.156C469.516 176.156 469.231 176.086 468.971 175.95C468.329 175.66 467.767 175.194 467.342 174.597C466.917 174.001 466.644 173.295 466.548 172.55C466.422 171.727 466.512 170.881 466.808 170.111C467.05 169.489 467.415 168.931 467.878 168.479C468.271 168.036 468.783 167.739 469.341 167.629C468.9 167.967 468.48 168.337 468.082 168.733C467.635 169.226 467.3 169.824 467.104 170.481C466.907 171.137 466.854 171.834 466.95 172.516C467.04 173.195 467.281 173.84 467.652 174.397C468.023 174.954 468.514 175.405 469.081 175.712C469.581 175.9 470.11 175.981 470.639 175.95Z" fill="#319E47"/>
<path d="M451.067 187.85C450.638 187.919 450.2 187.873 449.792 187.714C448.79 187.412 447.864 186.868 447.085 186.123C446.305 185.378 445.692 184.451 445.293 183.413C445.096 182.998 444.999 182.536 445.009 182.07C445.216 182.461 445.397 182.867 445.552 183.286C445.998 184.251 446.609 185.116 447.354 185.836C448.096 186.539 448.952 187.089 449.879 187.459C450.284 187.556 450.681 187.687 451.067 187.85Z" fill="#EB996E"/>
<path d="M472.48 192.771C472.48 192.771 472.378 192.771 472.204 192.771C471.948 192.696 471.704 192.578 471.481 192.423C470.673 191.804 470.111 190.878 469.907 189.83C469.748 189.115 469.724 188.372 469.837 187.646C469.976 186.824 470.225 186.028 470.576 185.283C471.276 183.693 472.378 182.189 473.196 180.446C473.593 179.607 473.859 178.702 473.982 177.769C474.134 176.598 473.91 175.406 473.347 174.391C472.785 173.377 471.918 172.601 470.891 172.193C470.006 171.861 469.053 171.799 468.137 172.014C467.484 172.159 467.154 172.354 467.138 172.32C467.123 172.286 467.209 172.252 467.366 172.15C467.601 172.024 467.846 171.922 468.098 171.844C469.286 171.48 470.557 171.608 471.662 172.204C472.767 172.8 473.625 173.821 474.069 175.066C474.385 175.941 474.493 176.888 474.384 177.82C474.244 178.805 473.954 179.759 473.526 180.642C472.676 182.444 471.567 183.932 470.875 185.462C470.176 186.76 469.92 188.281 470.151 189.762C470.315 190.764 470.807 191.669 471.536 192.312C471.838 192.494 472.154 192.648 472.48 192.771Z" fill="#455A64"/>
<path d="M480.866 197.2C480.751 197.213 480.635 197.213 480.52 197.2C480.183 197.184 479.85 197.121 479.528 197.013C478.335 196.575 477.312 195.716 476.626 194.573C475.647 192.86 475.211 190.849 475.383 188.844C475.6 186.451 475.957 184.075 476.452 181.73C476.654 180.522 476.733 179.293 476.688 178.067C476.632 176.936 476.39 175.825 475.973 174.786C475.629 173.899 475.091 173.116 474.406 172.504C473.721 171.891 472.909 171.466 472.039 171.267C470.861 170.976 469.638 170.976 468.46 171.267C467.618 171.471 467.178 171.674 467.162 171.632C467.146 171.589 467.264 171.556 467.469 171.454C467.779 171.314 468.097 171.194 468.421 171.096C469.62 170.731 470.882 170.682 472.102 170.952C472.958 171.137 473.764 171.526 474.462 172.091C475.261 172.762 475.891 173.639 476.295 174.641C476.748 175.713 477.015 176.865 477.082 178.041C477.142 179.299 477.065 180.56 476.854 181.798C476.368 184.129 476 186.487 475.752 188.861C475.572 190.787 475.963 192.725 476.869 194.395C477.501 195.507 478.451 196.367 479.576 196.843C479.996 196.998 480.428 197.117 480.866 197.2Z" fill="#455A64"/>
<path d="M482.541 224.544L470.702 234.523L475.666 243.346L489.936 231.99L482.541 224.544Z" fill="#FFBE9D"/>
<path d="M450.854 190.995C450.854 190.995 450.917 189.924 448.329 189.771C447.374 189.681 446.416 189.647 445.458 189.669C444.889 188.919 444.469 188.051 444.223 187.119C444.264 186.213 444.45 185.321 444.773 184.484L447.393 184.229L446.685 182.308L444.836 182.444L439.637 183.124L437.568 192.95L423.36 221.595C422.817 222.475 422.455 223.47 422.298 224.514C422.141 225.558 422.193 226.626 422.45 227.647C422.708 228.667 423.164 229.616 423.789 230.43C424.414 231.244 425.194 231.903 426.074 232.364C429.748 234.285 434.665 230.214 436.026 226.057L443.892 194.191L446.661 191.862L450.595 191.08" fill="#FFBE9D"/>
<path d="M418.507 381.65L437.819 261.46C437.866 261.281 437.906 261.111 437.945 260.941C441.241 246.84 446.315 242.326 446.315 242.326L475.902 244.332C478.419 249.22 478.742 260.941 478.742 260.941C479.088 262.378 472.488 378.853 472.488 378.853L462.56 378.522L457.195 268.328L428.395 382.117L418.507 381.65Z" fill="#FFBE9D"/>
<path d="M418.247 382.738L418.286 381.659L428.466 381.973L428.379 385.551H427.75C424.949 385.628 413.503 385.73 411.647 385.11C409.586 384.438 418.247 382.738 418.247 382.738Z" fill="#319E47"/>
<g opacity="0.6">
<path d="M424.706 385.365C424.893 384.495 425.376 383.733 426.059 383.231C426.75 382.719 427.584 382.482 428.419 382.56L428.34 385.407L424.706 385.365Z" fill="white"/>
</g>
<g opacity="0.6">
<path d="M414.007 383.724C414.007 383.724 410.97 384.506 411.332 385.016C411.694 385.526 423.266 385.866 428.379 385.551V385.322L414.872 385.05C414.872 385.05 414.573 383.766 414.007 383.724Z" fill="white"/>
</g>
<path d="M428.529 385.322H428.356H427.852H426.011C424.438 385.322 422.298 385.322 419.923 385.254C417.547 385.186 415.399 385.084 413.842 384.982L412.001 384.854H411.505C411.387 384.854 411.332 384.854 411.332 384.854H411.505H412.009L413.849 384.939C415.423 385.016 417.555 385.109 419.93 385.177C422.306 385.245 424.454 385.262 426.011 385.279H428.529V385.322Z" fill="#263238"/>
<path d="M414.864 385.211C414.759 384.564 414.427 383.985 413.936 383.596C414.244 383.71 414.5 383.948 414.652 384.259C414.744 384.395 414.81 384.549 414.846 384.713C414.883 384.876 414.889 385.046 414.864 385.211Z" fill="#263238"/>
<path d="M417.901 383.775C417.901 383.775 417.736 383.614 417.594 383.376C417.453 383.138 417.358 382.933 417.39 382.916C417.421 382.899 417.555 383.078 417.696 383.316C417.838 383.554 417.932 383.758 417.901 383.775Z" fill="#263238"/>
<path d="M418.735 383.35C418.735 383.35 418.554 383.257 418.381 383.095C418.208 382.934 418.09 382.78 418.113 382.755C418.247 382.81 418.368 382.897 418.467 383.01C418.64 383.189 418.758 383.35 418.735 383.35Z" fill="#263238"/>
<path d="M419.293 382.415C419.123 382.474 418.944 382.494 418.766 382.474C418.588 382.49 418.408 382.464 418.239 382.398C418.409 382.339 418.589 382.322 418.766 382.347C418.944 382.332 419.123 382.355 419.293 382.415Z" fill="#263238"/>
<path d="M419.474 381.743C419.297 381.861 419.091 381.917 418.884 381.905C418.675 381.936 418.462 381.901 418.271 381.803C418.472 381.785 418.675 381.785 418.876 381.803C419.074 381.764 419.274 381.744 419.474 381.743Z" fill="#263238"/>
<path d="M417.578 382.883C417.364 382.916 417.147 382.916 416.933 382.883C416.699 382.845 416.467 382.788 416.241 382.713C416.105 382.666 415.974 382.606 415.848 382.534C415.772 382.488 415.716 382.412 415.69 382.322C415.682 382.272 415.689 382.221 415.708 382.175C415.728 382.13 415.76 382.092 415.8 382.067C416.05 381.949 416.329 381.924 416.593 381.995C416.858 382.066 417.093 382.228 417.264 382.458C417.362 382.586 417.432 382.737 417.468 382.9C417.468 383.019 417.468 383.078 417.468 383.078C417.409 382.872 417.316 382.679 417.193 382.509C417.044 382.333 416.854 382.203 416.642 382.135C416.39 382.027 416.108 382.027 415.856 382.135C415.753 382.203 415.793 382.33 415.903 382.398C416.017 382.468 416.139 382.525 416.265 382.568C416.483 382.65 416.706 382.716 416.933 382.764C417.334 382.849 417.578 382.857 417.578 382.883Z" fill="#263238"/>
<path d="M417.413 382.908C417.337 382.77 417.315 382.605 417.35 382.449C417.375 382.276 417.44 382.112 417.539 381.973C417.601 381.877 417.684 381.799 417.779 381.744C417.875 381.689 417.981 381.66 418.09 381.659C418.153 381.671 418.21 381.71 418.247 381.768C418.284 381.825 418.298 381.896 418.286 381.964C418.268 382.069 418.228 382.168 418.168 382.253C418.075 382.397 417.967 382.528 417.846 382.645C417.739 382.758 417.61 382.846 417.468 382.9C417.468 382.9 417.602 382.781 417.783 382.585C417.893 382.469 417.988 382.337 418.066 382.194C418.16 382.058 418.231 381.811 418.066 381.777C417.98 381.787 417.897 381.816 417.822 381.863C417.748 381.91 417.683 381.973 417.633 382.05C417.536 382.168 417.468 382.311 417.437 382.466C417.413 382.612 417.405 382.76 417.413 382.908Z" fill="#263238"/>
<path d="M428.403 382.5C428.403 382.5 428.112 382.5 427.616 382.5C427.026 382.559 426.458 382.775 425.964 383.129C425.494 383.489 425.126 383.984 424.902 384.557C424.737 384.982 424.713 385.28 424.69 385.271C424.677 385.204 424.677 385.134 424.69 385.067C424.713 384.881 424.755 384.699 424.816 384.523C425.023 383.92 425.396 383.401 425.886 383.036C426.394 382.658 426.992 382.443 427.608 382.415C427.791 382.394 427.976 382.394 428.159 382.415C428.246 382.421 428.329 382.45 428.403 382.5Z" fill="#263238"/>
<path d="M423.463 384.336C422.973 384.44 422.474 384.477 421.976 384.447C421.479 384.453 420.983 384.398 420.497 384.285C420.497 384.243 421.166 384.285 421.976 384.285C422.786 384.285 423.455 384.302 423.463 384.336Z" fill="#263238"/>
<path d="M425.445 384.396C425.445 384.396 425.39 384.532 425.319 384.685C425.248 384.838 425.201 384.965 425.17 384.965C425.138 384.965 425.122 384.804 425.17 384.625C425.217 384.447 425.421 384.37 425.445 384.396Z" fill="#263238"/>
<path d="M426.224 383.478C426.224 383.478 426.177 383.605 426.066 383.707C425.956 383.809 425.854 383.877 425.83 383.852C425.807 383.826 425.878 383.724 425.98 383.622C426.082 383.52 426.2 383.452 426.224 383.478Z" fill="#263238"/>
<path d="M427.302 383.078C427.302 383.078 427.16 383.078 427.011 383.155C426.861 383.231 426.751 383.282 426.727 383.257C426.704 383.231 426.79 383.095 426.971 383.036C427.152 382.976 427.317 383.053 427.302 383.078Z" fill="#263238"/>
<path d="M428.072 382.899C428.072 382.899 428.025 382.984 427.939 383.01C427.852 383.035 427.774 383.01 427.766 383.01C427.758 383.01 427.813 382.925 427.899 382.899C427.986 382.874 428.057 382.865 428.072 382.899Z" fill="#263238"/>
<path d="M467.964 194.378C470.78 194.854 473.466 195.992 475.831 197.71C485.184 204.264 500.831 218.11 499.533 224.545C498.4 230.002 486.16 236.64 486.16 236.64L478.293 226.338L483.147 223.337L471.213 214.752L467.964 194.378Z" fill="#263238"/>
<path d="M473.298 215.246L472.913 216.776L471.536 223.882L471.213 234.294C478.293 244.171 478.419 252.484 478.419 252.484L442.571 257.006C442.571 249.356 445.159 239.717 445.159 239.717C447.228 235.917 447.133 224.544 446.732 224.128C444.498 221.731 443.955 219.971 445.741 216.903C445.741 216.903 434.625 229.517 433.485 230.648C429.551 234.541 425.775 233.453 424.045 231.761C419.136 227.027 424.171 220.924 424.171 220.924L442.893 197.744C444.166 196.155 445.865 195.035 447.755 194.54C449.079 194.212 450.419 193.956 451.767 193.775L464.267 193.885C465.518 193.93 466.764 194.095 467.988 194.378C469.399 194.993 470.641 195.987 471.597 197.267C472.552 198.546 473.189 200.068 473.447 201.688C474.541 207.494 473.298 215.246 473.298 215.246Z" fill="#263238"/>
<path d="M473.691 205.955C473.755 206.325 473.782 206.701 473.77 207.077C473.77 207.8 473.77 208.854 473.699 210.146C473.482 213.505 473.069 216.846 472.464 220.15C472.236 221.468 471.984 222.743 471.725 223.924V223.882C471.614 226.891 471.504 229.492 471.41 231.345C471.355 232.195 471.316 232.926 471.284 233.504C471.282 233.767 471.25 234.03 471.19 234.286C471.145 234.028 471.132 233.765 471.15 233.504C471.15 232.917 471.15 232.195 471.15 231.336C471.15 229.483 471.237 226.874 471.323 223.865V223.822C471.567 222.658 471.811 221.383 472.039 220.065C472.724 216.206 473.18 212.679 473.392 210.112C473.495 208.828 473.55 207.791 473.589 207.069C473.591 206.695 473.625 206.322 473.691 205.955Z" fill="#455A64"/>
<path d="M473.809 216.367C478.248 219.328 482.542 222.537 486.671 225.981C484.414 224.568 482.229 223.024 480.126 221.357C477.942 219.814 475.833 218.148 473.809 216.367Z" fill="#455A64"/>
<path d="M450.634 201.186C450.634 201.186 450.713 201.229 450.823 201.339C450.984 201.501 451.131 201.677 451.263 201.866C451.751 202.576 452.085 203.395 452.239 204.263C452.471 205.557 452.4 206.892 452.034 208.148C451.565 209.666 450.886 211.099 450.02 212.398C449.576 213.067 449.081 213.695 448.542 214.276C448.022 214.846 447.464 215.313 446.968 215.798C445.977 216.758 445.127 217.668 444.419 218.45C443.711 219.232 443.153 219.869 442.767 220.311C442.382 220.753 442.162 221.009 442.138 220.983C442.28 220.702 442.452 220.44 442.649 220.201C442.996 219.725 443.523 219.045 444.223 218.229C444.923 217.413 445.741 216.529 446.732 215.5C447.228 214.999 447.771 214.523 448.306 213.97C448.828 213.401 449.306 212.787 449.737 212.134C450.574 210.883 451.241 209.509 451.72 208.054C452.084 206.861 452.181 205.591 452.003 204.348C451.803 203.186 451.332 202.097 450.634 201.186Z" fill="#455A64"/>
<path d="M446.465 235.433L446.882 230.231H471.331L471.198 234.294L446.465 235.433Z" fill="#455A64"/>
<path d="M425.587 219.903C425.104 220.382 424.649 220.893 424.226 221.433C423.244 222.757 422.738 224.42 422.802 226.115C422.865 227.81 423.494 229.423 424.572 230.656C425.039 231.154 425.53 231.625 426.043 232.067C426.043 232.067 425.846 232.067 425.539 231.837C425.111 231.575 424.717 231.252 424.367 230.877C423.168 229.629 422.46 227.929 422.393 226.132C422.326 224.334 422.903 222.578 424.005 221.229C424.323 220.823 424.691 220.465 425.099 220.167C425.414 219.963 425.587 219.878 425.587 219.903Z" fill="#455A64"/>
<path d="M472.456 378.82L475.233 385.789L462.82 385.628L462.56 378.522L472.456 378.82Z" fill="#319E47"/>
<path d="M462.733 384.421C463.307 384.5 463.885 384.531 464.464 384.515C465.541 384.515 467.028 384.515 468.665 384.515L472.85 384.421C473.431 384.432 474.012 384.398 474.588 384.319C474.011 384.246 473.43 384.218 472.85 384.234C471.772 384.234 470.293 384.234 468.657 384.234L464.464 384.319C463.885 384.316 463.308 384.35 462.733 384.421Z" fill="#263238"/>
<path d="M467.901 378.667C467.752 379.599 467.736 380.551 467.854 381.489C467.836 382.437 467.95 383.382 468.192 384.293C468.342 383.361 468.358 382.409 468.24 381.472C468.257 380.523 468.143 379.578 467.901 378.667Z" fill="#263238"/>
<path opacity="0.6" d="M475.21 385.934L462.812 385.484L462.733 384.209L474.588 384.319L475.217 385.781" fill="white"/>
<path d="M477.609 245.769C486.947 277.602 474.911 316.243 477.798 353.337C478.081 356.983 479.45 361.335 476.295 363.409C475.434 363.954 474.444 364.217 473.447 364.165C470.93 364.072 468.822 362.661 466.572 361.692C462.252 359.848 457.481 359.647 453.041 361.123C450.068 362.126 447.11 363.902 444.026 363.4C439.928 362.729 437.276 358.352 433.508 356.498C429.976 354.799 425.901 355.411 422.023 355.309H421.905C420.595 355.252 419.313 354.877 418.156 354.21C416.999 353.543 415.997 352.602 415.224 351.458C414.45 350.314 413.927 348.995 413.691 347.601C413.456 346.207 413.516 344.774 413.865 343.409C419.506 321.105 438.189 248.668 446.465 235.459L471.213 234.294C473.479 237.269 476.405 241.715 477.609 245.769Z" fill="#319E47"/>
<path d="M468.948 260.754C468.556 261.41 468.105 262.022 467.602 262.582C466.468 264.012 465.249 265.361 463.952 266.62C462.625 267.848 461.18 268.92 459.641 269.815C459.022 270.222 458.362 270.553 457.675 270.801C457.588 270.648 460.617 269.101 463.677 266.279C465.203 264.851 466.454 263.398 467.39 262.37C467.86 261.778 468.381 261.237 468.948 260.754Z" fill="#263238"/>
<g opacity="0.1">
<path d="M458.029 272.765C450.233 294.486 448.794 318.268 453.907 340.901C454.347 342.847 454.803 345.058 453.773 346.732C452.451 348.891 449.234 348.746 447.417 347.047C445.599 345.346 444.876 342.686 444.419 340.136C441.021 321.147 447.173 302.056 453.812 284.095" fill="black"/>
</g>
<path d="M317.75 283.492H270.873V285.957H317.75V283.492Z" fill="#263238"/>
<path d="M263.604 285.957L254.817 250.359H291.413L299.374 285.957H263.604Z" fill="#263238"/>
<path d="M297.179 283.262H264.485L256.878 251.999H289.737L297.179 283.262Z" fill="#F5F5F5"/>
<path d="M257.421 254.252H290.28L289.722 251.999H256.878L257.421 254.252Z" fill="#EBEBEB"/>
<path d="M260.969 253.13C260.969 253.207 260.99 253.283 261.03 253.347C261.07 253.412 261.126 253.462 261.192 253.491C261.258 253.521 261.331 253.529 261.401 253.513C261.472 253.498 261.536 253.461 261.587 253.406C261.637 253.352 261.672 253.282 261.686 253.206C261.7 253.13 261.692 253.052 261.665 252.98C261.638 252.909 261.591 252.848 261.532 252.805C261.472 252.762 261.402 252.739 261.331 252.739C261.235 252.739 261.143 252.78 261.075 252.854C261.007 252.927 260.969 253.026 260.969 253.13Z" fill="#FAFAFA"/>
<path d="M259.734 253.13C259.734 253.207 259.755 253.283 259.795 253.347C259.835 253.412 259.891 253.462 259.957 253.491C260.023 253.521 260.096 253.529 260.166 253.513C260.236 253.498 260.301 253.461 260.351 253.406C260.402 253.352 260.437 253.282 260.451 253.206C260.464 253.13 260.457 253.052 260.43 252.98C260.403 252.909 260.356 252.848 260.297 252.805C260.237 252.762 260.167 252.739 260.096 252.739C260 252.739 259.908 252.78 259.84 252.854C259.772 252.927 259.734 253.026 259.734 253.13Z" fill="#FAFAFA"/>
<path d="M258.499 253.13C258.501 253.232 258.54 253.329 258.607 253.401C258.675 253.472 258.766 253.513 258.861 253.512C258.946 253.499 259.025 253.452 259.081 253.381C259.138 253.31 259.169 253.219 259.169 253.126C259.169 253.032 259.138 252.941 259.081 252.87C259.025 252.799 258.946 252.753 258.861 252.739C258.813 252.739 258.766 252.749 258.722 252.769C258.678 252.788 258.638 252.817 258.605 252.854C258.571 252.89 258.544 252.933 258.526 252.98C258.508 253.028 258.499 253.079 258.499 253.13Z" fill="#FAFAFA"/>
<path d="M282.122 267.946L285.725 272.399C286.397 271.898 286.947 271.229 287.329 270.449C287.711 269.67 287.914 268.802 287.92 267.92C287.92 264.809 285.277 262.259 282.091 262.276C278.905 262.293 276.285 264.826 276.301 267.971L282.122 267.946Z" fill="#319E47"/>
<path d="M281.666 268.66C282.04 268.996 282.385 269.369 282.697 269.773C283.342 270.521 284.27 271.609 285.355 272.935L285.481 273.088L285.324 273.207C284.45 273.871 283.433 274.279 282.37 274.392C281.307 274.505 280.235 274.32 279.259 273.853C278.258 273.39 277.393 272.641 276.757 271.686C276.2 270.825 275.881 269.811 275.837 268.762V268.6H276.018C277.741 268.6 279.164 268.6 280.156 268.6C280.663 268.581 281.17 268.607 281.674 268.676C281.153 268.764 280.627 268.809 280.101 268.812C279.109 268.863 277.741 268.914 276.026 268.965L276.199 268.762C276.265 269.731 276.575 270.663 277.095 271.456C277.698 272.345 278.514 273.039 279.455 273.462C280.371 273.897 281.374 274.076 282.37 273.982C283.367 273.889 284.326 273.526 285.159 272.926V273.199C284.113 271.881 283.255 270.767 282.657 269.977C282.297 269.565 281.965 269.125 281.666 268.66Z" fill="#263238"/>
<path d="M279.314 264.588C279.316 264.682 279.351 264.772 279.413 264.838C279.474 264.905 279.557 264.943 279.644 264.945C279.731 264.943 279.813 264.904 279.873 264.837C279.933 264.771 279.967 264.681 279.967 264.588C279.967 264.542 279.958 264.497 279.942 264.455C279.926 264.412 279.902 264.374 279.872 264.342C279.842 264.309 279.807 264.284 279.768 264.266C279.729 264.249 279.687 264.239 279.644 264.239C279.601 264.238 279.558 264.247 279.518 264.264C279.478 264.281 279.442 264.306 279.411 264.338C279.38 264.371 279.356 264.41 279.339 264.453C279.322 264.495 279.314 264.541 279.314 264.588Z" fill="#263238"/>
<path d="M272.84 262.046C274.126 261.817 275.431 261.738 276.734 261.808H277.331L277.394 261.868C278.233 262.684 278.988 263.596 279.644 264.588C278.72 263.886 277.869 263.08 277.103 262.182L277.253 262.242H276.734C275.433 262.321 274.128 262.256 272.84 262.046Z" fill="#263238"/>
<path d="M265.484 266.492C265.32 265.956 265.193 265.408 265.107 264.851C264.886 263.772 264.58 262.199 264.218 260.27L264.178 260.057H264.383L272.517 259.981C272.47 259.981 272.903 260.329 272.722 260.168V260.261V260.363V260.576L272.792 260.992C272.84 261.273 272.895 261.545 272.942 261.842C273.036 262.386 273.123 262.922 273.217 263.449C273.398 264.494 273.563 265.497 273.729 266.449L273.768 266.687H273.548C271.101 266.687 269.048 266.645 267.616 266.619L265.972 266.568C265.785 266.576 265.597 266.559 265.414 266.517C265.621 266.48 265.832 266.463 266.043 266.466L267.726 266.407C269.166 266.364 271.172 266.313 273.548 266.288L273.367 266.526L272.895 263.5C272.8 262.981 272.706 262.446 272.612 261.902C272.564 261.63 272.509 261.349 272.462 261.052L272.391 260.635L272.352 260.423V260.321V260.236C272.171 260.074 272.596 260.457 272.549 260.423H264.383L264.548 260.21C264.855 262.072 265.091 263.61 265.256 264.732C265.421 265.854 265.5 266.466 265.484 266.492Z" fill="#263238"/>
<path d="M278.834 271.668C278.846 271.753 278.886 271.829 278.946 271.885C279.006 271.94 279.082 271.971 279.161 271.971C279.239 271.971 279.316 271.94 279.375 271.885C279.435 271.829 279.475 271.753 279.487 271.668C279.487 271.574 279.452 271.483 279.39 271.416C279.328 271.349 279.244 271.311 279.157 271.311C279.114 271.311 279.071 271.321 279.031 271.339C278.992 271.357 278.956 271.383 278.926 271.417C278.896 271.45 278.872 271.489 278.856 271.533C278.841 271.576 278.833 271.622 278.834 271.668Z" fill="#263238"/>
<path d="M273.249 271.694C274.219 271.465 275.215 271.385 276.207 271.456C277.194 271.375 278.188 271.447 279.157 271.668C278.188 271.891 277.195 271.969 276.207 271.898C275.217 271.974 274.222 271.906 273.249 271.694Z" fill="#263238"/>
<path d="M265.508 274.465C265.362 274.085 265.243 273.692 265.154 273.292C264.942 272.51 264.635 271.354 264.265 269.892L264.218 269.688H264.414C266.633 269.645 269.583 269.611 272.808 269.603L273.005 269.764V269.832V269.909V270.062L273.076 270.368L273.217 270.963C273.312 271.362 273.406 271.753 273.493 272.136C273.674 272.901 273.847 273.649 274.012 274.363L274.075 274.618H273.831C271.345 274.618 269.221 274.618 267.742 274.55L266.027 274.499C265.829 274.505 265.631 274.488 265.437 274.448C265.656 274.411 265.877 274.391 266.098 274.388L267.852 274.329C269.339 274.278 271.408 274.235 273.831 274.21L273.642 274.465C273.469 273.751 273.288 273.011 273.107 272.246L272.824 271.073L272.682 270.47L272.612 270.172L272.572 270.019V269.943V269.883C272.525 269.883 272.95 270.198 272.769 270.053C269.544 270.053 266.594 270.053 264.383 270.053L264.525 269.841C264.839 271.235 265.075 272.391 265.24 273.181C265.36 273.601 265.45 274.03 265.508 274.465Z" fill="#263238"/>
<path d="M266.129 262.148C267.04 261.931 267.975 261.853 268.906 261.919C269.839 261.838 270.778 261.909 271.691 262.132C270.778 262.35 269.84 262.427 268.906 262.361C267.976 262.442 267.04 262.37 266.129 262.148Z" fill="#263238"/>
<path d="M266.192 263.134C267.111 262.917 268.054 262.84 268.993 262.905C269.931 262.829 270.874 262.897 271.793 263.109C269.937 263.41 268.049 263.41 266.192 263.109V263.134Z" fill="#263238"/>
<path d="M266.358 264.086C267.243 263.858 268.156 263.778 269.064 263.848C269.968 263.778 270.877 263.85 271.762 264.061C270.879 264.29 269.969 264.37 269.064 264.299C268.157 264.369 267.245 264.298 266.358 264.086Z" fill="#263238"/>
<path d="M266.295 271.609C267.163 271.39 268.056 271.313 268.946 271.379C269.834 271.299 270.729 271.37 271.597 271.592C270.728 271.809 269.835 271.887 268.946 271.822C268.057 271.902 267.162 271.831 266.295 271.609Z" fill="#263238"/>
<path d="M266.617 272.697C268.115 272.402 269.65 272.402 271.148 272.697C269.65 272.992 268.115 272.992 266.617 272.697Z" fill="#263238"/>
<path d="M215.358 285.846V290.513H218.19V385.041H223.995V290.513H254.809V385.041H260.615V290.513H394.293V385.016H400.107V290.513H402.616V285.846H215.358Z" fill="#263238"/>
<path d="M341.256 321.062C343.769 321.3 346.295 321.3 348.808 321.062C346.295 320.835 343.769 320.835 341.256 321.062Z" fill="#263238"/>
<path d="M286.26 322.031C286.373 322.031 286.465 321.982 286.465 321.92C286.465 321.859 286.373 321.81 286.26 321.81C286.147 321.81 286.056 321.859 286.056 321.92C286.056 321.982 286.147 322.031 286.26 322.031Z" fill="#455A64"/>
<path d="M323.257 237.889L301.577 214.089L301.105 211.539C301.018 211.072 300.924 210.545 300.837 209.941C300.744 209.247 300.757 208.54 300.876 207.85C300.99 206.988 301.216 206.147 301.545 205.351C301.907 204.663 301.325 203.83 300.719 204.119C300.113 204.408 299.067 206.269 298.839 208.845C298.611 211.42 296.581 207.995 295.826 206.771C295.071 205.547 292.554 201.866 292.026 201.824C291.24 201.756 291.067 202.674 291.846 203.864C292.624 205.054 294.756 208.879 294.158 209.278C293.566 209.168 292.956 209.264 292.417 209.552C291.878 209.841 291.438 210.308 291.161 210.885C290.61 212.015 290.005 213.63 290.5 214.37C291.574 215.769 292.73 217.092 293.962 218.331L294.685 219.002C294.685 219.002 313.447 248.378 317.538 249.339C320.079 249.925 359.397 253.453 359.397 253.453L362.362 241.748L323.257 237.889Z" fill="#B78876"/>
<path d="M290.28 213.843L292.286 215.925C292.509 216.18 292.776 216.385 293.073 216.529C293.218 216.596 293.378 216.618 293.534 216.591C293.69 216.563 293.835 216.489 293.954 216.376C294.036 216.255 294.09 216.115 294.111 215.967C294.131 215.819 294.118 215.667 294.072 215.526C293.961 215.243 293.804 214.984 293.608 214.761L291.657 212.211" fill="#B78876"/>
<path d="M291.657 212.202C291.704 212.16 292.074 212.559 292.648 213.248C292.97 213.639 293.301 214.038 293.639 214.463C293.857 214.706 294.044 214.977 294.198 215.271C294.291 215.457 294.335 215.667 294.325 215.879C294.316 216.09 294.252 216.294 294.143 216.469C294.007 216.632 293.829 216.745 293.632 216.793C293.435 216.842 293.228 216.824 293.041 216.741C292.742 216.607 292.474 216.404 292.255 216.146L291.208 214.99C290.618 214.327 290.272 213.894 290.312 213.843C290.716 214.092 291.084 214.405 291.405 214.769L292.514 215.849C292.7 216.059 292.925 216.225 293.175 216.333C293.283 216.38 293.402 216.392 293.516 216.368C293.63 216.344 293.736 216.285 293.82 216.197C293.88 216.085 293.912 215.958 293.912 215.828C293.912 215.698 293.88 215.57 293.82 215.458C293.685 215.193 293.524 214.945 293.34 214.718C293.018 214.285 292.711 213.868 292.412 213.443C292.104 213.073 291.849 212.655 291.657 212.202Z" fill="#AA6550"/>
<path d="M291.735 212.33L293.741 214.412C293.963 214.667 294.231 214.869 294.528 215.007C294.672 215.081 294.833 215.106 294.991 215.079C295.148 215.052 295.294 214.973 295.409 214.854C295.493 214.735 295.547 214.594 295.568 214.446C295.589 214.297 295.575 214.146 295.527 214.004C295.415 213.72 295.258 213.458 295.063 213.231L293.112 210.681" fill="#B78876"/>
<path d="M293.081 210.681C293.128 210.681 293.497 211.046 294.072 211.735L295.063 212.942C295.28 213.184 295.468 213.455 295.621 213.749C295.715 213.937 295.759 214.149 295.749 214.361C295.739 214.574 295.676 214.78 295.566 214.956C295.431 215.119 295.253 215.232 295.055 215.28C294.858 215.329 294.652 215.311 294.465 215.228C294.166 215.094 293.897 214.891 293.678 214.633L292.64 213.477C292.292 213.143 291.99 212.757 291.743 212.33C292.146 212.578 292.515 212.887 292.837 213.248L293.946 214.336C294.132 214.546 294.357 214.711 294.607 214.82C294.715 214.867 294.833 214.879 294.948 214.855C295.062 214.831 295.168 214.772 295.252 214.684C295.312 214.57 295.343 214.442 295.343 214.31C295.343 214.179 295.312 214.05 295.252 213.936C295.117 213.673 294.953 213.427 294.764 213.205L293.844 211.93C293.529 211.561 293.272 211.139 293.081 210.681Z" fill="#AA6550"/>
<path d="M293.301 211.089L295.307 213.171C295.525 213.431 295.794 213.634 296.093 213.766C296.227 213.848 296.381 213.88 296.533 213.86C296.685 213.839 296.827 213.767 296.938 213.652C297.049 213.538 297.123 213.389 297.149 213.226C297.176 213.062 297.153 212.895 297.085 212.746C296.975 212.46 296.817 212.198 296.621 211.973C295.975 211.123 295.323 210.273 294.677 209.423" fill="#B78876"/>
<path d="M294.646 209.44C295.019 209.738 295.352 210.09 295.637 210.485L296.628 211.701C296.843 211.943 297.028 212.215 297.179 212.508C297.277 212.695 297.323 212.907 297.313 213.121C297.304 213.334 297.238 213.541 297.124 213.715C296.991 213.878 296.814 213.991 296.618 214.04C296.422 214.089 296.216 214.071 296.031 213.987C295.731 213.853 295.463 213.65 295.244 213.392L294.213 212.236C293.866 211.904 293.566 211.517 293.324 211.089C293.729 211.335 294.097 211.645 294.418 212.007L295.527 213.095C295.712 213.303 295.934 213.468 296.18 213.579C296.288 213.627 296.407 213.64 296.521 213.616C296.636 213.592 296.742 213.532 296.825 213.443C296.889 213.331 296.923 213.202 296.923 213.069C296.923 212.937 296.889 212.808 296.825 212.695C296.69 212.434 296.529 212.189 296.345 211.964L295.425 210.689C295.105 210.321 294.842 209.899 294.646 209.44Z" fill="#AA6550"/>
<path d="M296.471 214.693C296.471 214.616 296.967 214.514 297.69 214.752L297.462 214.965C297.351 214.478 297.332 213.972 297.407 213.477C297.514 212.809 297.786 212.183 298.194 211.667C298.501 211.276 298.76 211.123 298.792 211.165C298.355 211.895 298.036 212.7 297.848 213.545C297.785 213.991 297.785 214.443 297.848 214.888L297.887 215.228L297.62 215.101C296.943 214.812 296.463 214.778 296.471 214.693Z" fill="#AA6550"/>
<path d="M351.64 202.198L351.734 234.812L339.934 235.416L339.462 227.604C339.462 227.604 333.783 228.531 332.595 223.915C331.808 220.966 332.028 198.186 332.028 198.186L351.64 202.198Z" fill="#B78876"/>
<path d="M329.157 201.399C330.03 203.354 334.184 206.915 334.184 206.915L336.064 212.347C337.692 210.97 339.879 211.046 340.296 214.14C340.595 216.384 338.023 216.835 338.023 216.835C339.518 219.589 340.532 221.816 342.743 224.434C345.103 227.273 346.424 227.553 348.989 227.604H351.813C351.813 227.604 357.587 222.385 356.447 208.649C355.306 194.913 343.844 198.9 341.114 195.5C336.693 189.898 326.246 194.896 329.157 201.399Z" fill="#263238"/>
<path d="M355.77 220.15C355.306 220.215 354.835 220.192 354.378 220.082C353.119 219.794 351.954 219.148 351.003 218.212C349.642 216.788 348.493 215.145 347.597 213.341C346.495 211.395 345.292 209.134 343.27 207.621C341.248 206.108 338.817 205.844 336.748 205.385C334.863 205.111 333.062 204.369 331.486 203.218C330.441 202.381 329.696 201.18 329.377 199.818C329.255 199.327 329.236 198.813 329.322 198.313C329.288 198.813 329.328 199.315 329.44 199.801C329.78 201.127 330.526 202.29 331.556 203.099C333.127 204.219 334.914 204.937 336.78 205.198C338.841 205.649 341.264 205.938 343.364 207.451C345.465 208.964 346.629 211.284 347.722 213.231C348.609 215.025 349.741 216.665 351.081 218.093C352.013 219.023 353.151 219.676 354.385 219.988C354.722 220.067 355.064 220.113 355.408 220.124L355.77 220.15Z" fill="#455A64"/>
<path d="M356.439 208.964L355.833 208.76C355.253 208.561 354.658 208.419 354.055 208.335C353.103 208.189 352.135 208.425 351.333 208.998C351.088 209.175 350.877 209.403 350.714 209.669C350.551 209.934 350.438 210.232 350.381 210.545C350.318 210.893 350.335 211.253 350.431 211.593C350.527 211.932 350.699 212.241 350.932 212.491C351.198 212.738 351.533 212.882 351.884 212.899C352.253 212.905 352.616 212.796 352.93 212.585C353.614 212.145 354.122 211.445 354.354 210.621C354.569 209.931 354.637 209.198 354.554 208.475C354.471 207.752 354.238 207.059 353.873 206.447C353.508 205.835 353.02 205.319 352.446 204.938C351.871 204.557 351.225 204.321 350.554 204.246C349.567 204.185 348.577 204.324 347.636 204.654C346.646 205 345.634 205.264 344.607 205.445C343.542 205.598 342.463 205.598 341.398 205.445C340.327 205.307 339.282 204.995 338.298 204.518C337.807 204.302 337.364 203.975 336.999 203.558C336.634 203.142 336.355 202.646 336.182 202.104C336.039 201.568 336.03 201 336.156 200.458C336.282 199.916 336.538 199.42 336.898 199.019C337.268 198.659 337.729 198.425 338.222 198.348C338.714 198.271 339.217 198.354 339.667 198.585C340.108 198.794 340.469 199.16 340.69 199.622C340.895 200.076 340.972 200.584 340.91 201.084C340.847 201.556 340.692 202.008 340.455 202.41C340.217 202.812 339.903 203.154 339.533 203.413C338.823 203.883 338.005 204.127 337.173 204.119C336.425 204.127 335.682 204.003 334.971 203.753C333.744 203.328 332.632 202.587 331.729 201.594C331.044 200.856 330.485 199.993 330.077 199.044C329.82 198.446 329.622 197.819 329.487 197.174C329.417 196.732 329.393 196.494 329.393 196.494C329.393 196.494 329.44 196.724 329.519 197.166C329.666 197.801 329.872 198.419 330.133 199.01C330.54 199.961 331.102 200.825 331.792 201.56C332.686 202.536 333.789 203.26 335.002 203.668C335.703 203.915 336.436 204.036 337.173 204.025C337.967 204.023 338.746 203.785 339.423 203.337C339.776 203.089 340.075 202.761 340.3 202.377C340.526 201.993 340.672 201.561 340.729 201.11C340.8 200.637 340.725 200.152 340.516 199.73C340.307 199.308 339.976 198.971 339.573 198.772C339.15 198.556 338.678 198.481 338.216 198.555C337.754 198.629 337.322 198.85 336.977 199.189C336.637 199.566 336.396 200.034 336.277 200.544C336.158 201.055 336.166 201.59 336.3 202.096C336.47 202.613 336.739 203.086 337.091 203.483C337.442 203.88 337.867 204.193 338.337 204.399C339.315 204.862 340.352 205.157 341.413 205.275C342.458 205.426 343.516 205.426 344.56 205.275C345.579 205.101 346.583 204.842 347.565 204.501C348.528 204.158 349.542 204.017 350.554 204.085C351.248 204.162 351.917 204.406 352.511 204.8C353.106 205.194 353.611 205.728 353.988 206.361C354.366 206.995 354.607 207.712 354.694 208.46C354.78 209.207 354.71 209.967 354.488 210.681C354.238 211.534 353.706 212.257 352.993 212.712C352.659 212.932 352.274 213.044 351.884 213.035C351.503 213.023 351.138 212.867 350.853 212.593C350.61 212.327 350.43 212.001 350.33 211.642C350.23 211.284 350.212 210.904 350.279 210.536C350.402 209.877 350.761 209.296 351.278 208.921C352.104 208.35 353.093 208.12 354.063 208.275C354.669 208.361 355.265 208.515 355.841 208.734C356.234 208.87 356.439 208.964 356.439 208.964Z" fill="#455A64"/>
<path d="M341.476 377.077L337.637 371.747L346.834 363.902L352.537 371.637L351.994 372.164C349.571 374.476 339.502 383.766 337.401 384.659C335.057 385.653 341.476 377.077 341.476 377.077Z" fill="#319E47"/>
<g opacity="0.4">
<path d="M338.448 381.412C338.448 381.412 336.332 384.608 337.032 384.812C337.732 385.016 348.226 376.04 352.537 371.645L352.356 371.433L340.194 382.007C340.194 382.007 338.998 380.978 338.448 381.412Z" fill="white"/>
</g>
<path d="M352.498 371.297C352.456 371.354 352.408 371.405 352.356 371.45L351.923 371.866L350.311 373.371C348.934 374.629 347.022 376.346 344.867 378.19C342.711 380.035 340.729 381.658 339.282 382.806L337.551 384.166L337.079 384.523L336.906 384.633L337.063 384.497L337.519 384.115L339.219 382.721C340.65 381.548 342.625 379.916 344.78 378.071C346.936 376.227 348.855 374.527 350.24 373.286L351.884 371.824L352.332 371.424L352.498 371.297Z" fill="#263238"/>
<path d="M340.312 382.151C340.019 381.915 339.703 381.715 339.368 381.556C339.02 381.443 338.661 381.374 338.298 381.352C338.665 381.224 339.062 381.245 339.415 381.412C339.789 381.53 340.108 381.794 340.312 382.151Z" fill="#263238"/>
<path d="M341.94 378.343C341.94 378.386 341.673 378.343 341.366 378.216C341.059 378.088 340.831 377.978 340.847 377.935C340.863 377.893 341.114 377.936 341.413 378.072C341.605 378.119 341.785 378.212 341.94 378.343Z" fill="#263238"/>
<path d="M342.373 377.281C342.373 377.323 342.145 377.349 341.878 377.332C341.61 377.315 341.39 377.264 341.39 377.221C341.39 377.179 341.61 377.153 341.885 377.179C342.053 377.171 342.22 377.206 342.373 377.281Z" fill="#263238"/>
<path d="M342.153 375.947C342.153 375.947 341.988 376.193 341.72 376.423C341.453 376.652 341.225 376.813 341.201 376.779C341.177 376.745 341.374 376.533 341.634 376.303C341.893 376.074 342.129 375.913 342.153 375.947Z" fill="#263238"/>
<path d="M341.83 375.147C341.734 375.384 341.593 375.597 341.417 375.772C341.241 375.948 341.034 376.082 340.808 376.167C340.808 376.125 341.044 375.938 341.327 375.657C341.61 375.377 341.799 375.122 341.83 375.147Z" fill="#263238"/>
<path d="M340.989 377.749C340.822 377.954 340.622 378.124 340.399 378.25C340.163 378.401 339.915 378.529 339.659 378.633C339.506 378.705 339.344 378.756 339.179 378.786C339.077 378.796 338.974 378.769 338.888 378.709C338.844 378.67 338.812 378.618 338.795 378.559C338.778 378.5 338.778 378.437 338.794 378.377C338.931 378.069 339.162 377.821 339.449 377.676C339.736 377.53 340.06 377.496 340.367 377.578C340.55 377.623 340.722 377.71 340.871 377.834C340.973 377.927 341.02 377.987 341.012 377.995C340.809 377.846 340.582 377.74 340.344 377.68C340.08 377.619 339.806 377.645 339.557 377.757C339.263 377.871 339.022 378.106 338.888 378.412C338.888 378.565 338.975 378.658 339.132 378.633C339.282 378.602 339.429 378.559 339.573 378.505C339.825 378.405 340.072 378.288 340.312 378.157C340.753 377.919 340.973 377.723 340.989 377.749Z" fill="#263238"/>
<path d="M340.863 377.91C340.863 377.91 340.65 377.833 340.469 377.527C340.365 377.342 340.303 377.132 340.288 376.915C340.272 376.779 340.286 376.641 340.33 376.512C340.374 376.384 340.446 376.268 340.54 376.176C340.61 376.137 340.692 376.129 340.767 376.155C340.842 376.18 340.905 376.237 340.941 376.312C341.003 376.427 341.04 376.554 341.052 376.686C341.075 376.892 341.075 377.1 341.052 377.306C341.045 377.501 340.993 377.691 340.902 377.859C340.902 377.859 340.902 377.638 340.949 377.298C340.971 377.1 340.971 376.901 340.949 376.703C340.949 376.499 340.808 376.21 340.642 376.312C340.57 376.39 340.515 376.485 340.482 376.59C340.45 376.694 340.44 376.806 340.454 376.915C340.46 377.108 340.506 377.297 340.587 377.468C340.667 377.624 340.759 377.772 340.863 377.91Z" fill="#263238"/>
<path d="M350.319 368.738C350.319 368.738 350.035 368.934 349.666 369.342C349.172 369.87 348.826 370.538 348.668 371.268C348.509 371.999 348.544 372.763 348.769 373.473C348.942 374.017 349.139 374.323 349.115 374.323C349.091 374.323 349.052 374.263 348.965 374.127C348.852 373.93 348.755 373.722 348.674 373.507C348.42 372.78 348.369 371.988 348.525 371.229C348.688 370.47 349.061 369.782 349.595 369.257C349.751 369.099 349.923 368.96 350.106 368.84C350.171 368.794 350.243 368.759 350.319 368.738Z" fill="#263238"/>
<path d="M346.346 365.415C346.904 366.04 347.429 366.698 347.919 367.387C348.753 368.509 349.406 369.435 349.382 369.461C348.822 368.838 348.296 368.18 347.809 367.489C347.279 366.833 346.79 366.141 346.346 365.415Z" fill="#263238"/>
<path d="M347.274 374.425C346.919 374.915 346.503 375.349 346.039 375.717C345.607 376.124 345.128 376.47 344.615 376.745C344.615 376.745 345.221 376.235 345.952 375.589C346.684 374.943 347.25 374.391 347.274 374.425Z" fill="#263238"/>
<path d="M349.076 372.878C349.115 372.878 349.131 373.056 349.178 373.26C349.225 373.464 349.288 373.626 349.256 373.651C349.225 373.677 349.091 373.532 349.036 373.294C348.981 373.056 349.044 372.869 349.076 372.878Z" fill="#263238"/>
<path d="M349.091 371.39C349.131 371.39 349.146 371.543 349.091 371.73C349.036 371.917 349.028 372.062 348.989 372.062C348.95 372.062 348.934 371.9 348.95 371.713C348.965 371.526 349.052 371.382 349.091 371.39Z" fill="#263238"/>
<path d="M349.752 370.141C349.752 370.141 349.65 370.285 349.555 370.447C349.461 370.608 349.414 370.779 349.374 370.77C349.335 370.762 349.311 370.566 349.429 370.362C349.547 370.158 349.744 370.098 349.752 370.141Z" fill="#263238"/>
<path d="M350.303 369.35C350.303 369.35 350.303 369.469 350.303 369.563C350.303 369.656 350.177 369.725 350.145 369.708C350.114 369.691 350.145 369.588 350.145 369.486C350.145 369.384 350.271 369.333 350.303 369.35Z" fill="#263238"/>
<g opacity="0.3">
<path d="M350.114 368.483L340.808 376.167L339.95 374.952L349.728 367.795L350.114 368.483Z" fill="black"/>
</g>
<path d="M299.185 382.432V375.674L310.906 375.623L310.977 385.517L310.246 385.568C307.012 385.781 293.796 386.376 291.633 385.679C289.234 384.897 299.185 382.432 299.185 382.432Z" fill="#319E47"/>
<g opacity="0.4">
<path d="M294.323 383.826C294.323 383.826 290.831 384.922 291.271 385.526C291.712 386.129 305.093 386.087 310.993 385.526V385.246L295.385 385.458C295.385 385.458 295 383.851 294.323 383.826Z" fill="white"/>
</g>
<path d="M311.158 385.228H310.954H310.372L308.248 385.339C306.446 385.415 303.96 385.492 301.215 385.509C298.469 385.526 295.976 385.509 294.174 385.415L292.05 385.33H291.468H291.263H292.05H294.182C295.976 385.33 298.469 385.39 301.215 385.381C303.96 385.373 306.446 385.305 308.24 385.254L310.372 385.194H311.158V385.228Z" fill="#263238"/>
<path d="M295.37 385.645C295.272 385.264 295.135 384.896 294.961 384.548C294.751 384.235 294.508 383.95 294.237 383.698C294.602 383.842 294.904 384.127 295.087 384.497C295.306 384.831 295.406 385.238 295.37 385.645Z" fill="#263238"/>
<path d="M298.815 383.733C298.815 383.733 298.619 383.537 298.446 383.248C298.273 382.959 298.162 382.704 298.194 382.687C298.225 382.67 298.391 382.874 298.564 383.171C298.737 383.469 298.847 383.716 298.815 383.733Z" fill="#263238"/>
<path d="M299.767 383.188C299.767 383.188 299.555 383.086 299.35 382.891C299.146 382.695 299.004 382.517 299.028 382.483C299.051 382.449 299.24 382.585 299.445 382.78C299.649 382.976 299.791 383.154 299.767 383.188Z" fill="#263238"/>
<path d="M300.357 381.99C300.165 382.071 299.957 382.1 299.752 382.075C299.545 382.105 299.335 382.082 299.138 382.007C299.332 381.931 299.538 381.902 299.744 381.922C299.95 381.897 300.16 381.92 300.357 381.99Z" fill="#263238"/>
<path d="M300.562 381.148C300.358 381.29 300.12 381.364 299.877 381.361C299.641 381.408 299.396 381.375 299.177 381.267C299.406 381.224 299.638 381.204 299.87 381.208C300.098 381.166 300.33 381.147 300.562 381.148Z" fill="#263238"/>
<path d="M298.414 382.636C298.154 382.686 297.888 382.686 297.628 382.636C297.36 382.602 297.097 382.539 296.841 382.449C296.682 382.403 296.529 382.338 296.385 382.253C296.296 382.195 296.229 382.105 296.196 381.998C296.184 381.938 296.189 381.875 296.21 381.818C296.231 381.76 296.267 381.711 296.314 381.675C296.6 381.521 296.926 381.479 297.238 381.557C297.549 381.634 297.826 381.827 298.021 382.1C298.137 382.261 298.221 382.446 298.265 382.645C298.28 382.717 298.28 382.793 298.265 382.865C298.188 382.613 298.071 382.377 297.919 382.168C297.747 381.956 297.523 381.8 297.274 381.718C297.127 381.665 296.972 381.644 296.818 381.657C296.664 381.671 296.514 381.717 296.377 381.795C296.259 381.888 296.306 382.041 296.44 382.126C296.574 382.207 296.716 382.27 296.864 382.313C297.12 382.411 297.383 382.485 297.651 382.534C298.147 382.611 298.414 382.61 298.414 382.636Z" fill="#263238"/>
<path d="M298.217 382.67C298.13 382.499 298.099 382.301 298.131 382.109C298.153 381.896 298.223 381.691 298.335 381.514C298.4 381.395 298.49 381.296 298.599 381.223C298.707 381.15 298.83 381.107 298.957 381.097C298.995 381.105 299.032 381.12 299.065 381.143C299.098 381.166 299.126 381.195 299.148 381.23C299.17 381.265 299.186 381.305 299.193 381.346C299.201 381.387 299.201 381.43 299.193 381.471C299.175 381.602 299.132 381.726 299.067 381.837C298.969 382.017 298.85 382.183 298.713 382.33C298.477 382.576 298.296 382.678 298.28 382.661C298.265 382.644 298.43 382.517 298.642 382.253C298.762 382.104 298.867 381.941 298.957 381.769C299.059 381.59 299.122 381.284 298.957 381.25C298.792 381.216 298.579 381.429 298.469 381.59C298.362 381.749 298.289 381.933 298.257 382.126C298.235 382.306 298.222 382.488 298.217 382.67Z" fill="#263238"/>
<path d="M310.899 381.76C310.899 381.76 310.568 381.76 310.033 381.76C309.347 381.856 308.697 382.149 308.153 382.61C307.614 383.084 307.208 383.711 306.981 384.421C306.893 384.72 306.819 385.023 306.761 385.33C306.745 385.246 306.745 385.16 306.761 385.075C306.775 384.842 306.815 384.611 306.879 384.387C307.095 383.646 307.505 382.987 308.059 382.491C308.62 382.001 309.306 381.705 310.025 381.641C310.24 381.614 310.456 381.614 310.67 381.641C310.754 381.662 310.832 381.703 310.899 381.76Z" fill="#263238"/>
<path d="M309.663 376.499C309.751 377.363 309.791 378.231 309.781 379.1C309.825 379.966 309.825 380.835 309.781 381.701C309.694 380.837 309.657 379.969 309.671 379.1C309.623 378.234 309.62 377.365 309.663 376.499Z" fill="#263238"/>
<path d="M305.227 384.2C304.667 384.34 304.094 384.403 303.52 384.387C302.945 384.418 302.369 384.372 301.805 384.251C301.805 384.208 302.591 384.251 303.52 384.251C304.448 384.251 305.227 384.2 305.227 384.2Z" fill="#263238"/>
<path d="M307.587 384.2C307.587 384.2 307.532 384.378 307.453 384.565C307.374 384.752 307.327 384.922 307.288 384.922C307.248 384.922 307.233 384.718 307.288 384.506C307.343 384.293 307.532 384.2 307.587 384.2Z" fill="#263238"/>
<path d="M308.421 383.027C308.421 383.027 308.373 383.188 308.255 383.316C308.137 383.443 308.012 383.537 307.98 383.512C307.949 383.486 308.027 383.341 308.153 383.214C308.279 383.086 308.373 382.993 308.421 383.027Z" fill="#263238"/>
<path d="M309.656 382.5C309.656 382.5 309.49 382.5 309.317 382.61C309.144 382.721 309.026 382.78 308.995 382.746C308.963 382.712 309.058 382.542 309.278 382.466C309.498 382.389 309.671 382.449 309.656 382.5Z" fill="#263238"/>
<path d="M310.537 382.228C310.537 382.27 310.482 382.338 310.387 382.381C310.293 382.423 310.198 382.423 310.183 382.381C310.167 382.338 310.238 382.279 310.332 382.236C310.427 382.194 310.521 382.194 310.537 382.228Z" fill="#263238"/>
<g opacity="0.3">
<path d="M310.993 381.25L299.177 381.267L299.185 379.737L310.946 379.661L310.993 381.25Z" fill="black"/>
</g>
<path d="M328.111 265.744L323.391 281.044C322.124 285.166 318.789 285.872 314.737 285.872H288.707V279.548L312.558 275.867L318.238 260.176L328.111 265.744Z" fill="#B78876"/>
<path d="M285.82 278.197L283.751 277.142C283.751 277.142 281.517 272.476 281.005 272.663C280.494 272.85 280.337 274.219 281.233 276.369L278.488 275.519C278.488 275.519 272.517 278.494 272.785 278.919C272.865 279.122 272.986 279.304 273.139 279.45C273.293 279.597 273.474 279.704 273.671 279.765C273.868 279.827 274.074 279.839 274.276 279.803C274.478 279.767 274.67 279.683 274.838 279.557C276.136 278.834 277.835 277.992 277.835 277.992L281.052 278.987L276.907 279.557L272.973 283.39C273.317 283.666 273.736 283.809 274.164 283.797C274.592 283.784 275.004 283.617 275.333 283.322L285.56 285.651L288.707 285.838V279.514L285.82 278.197Z" fill="#B78876"/>
<path d="M275.388 283.297C275.436 283.297 275.624 283.008 275.986 282.574C276.2 282.328 276.45 282.121 276.726 281.962C277.069 281.785 277.44 281.679 277.819 281.648C278.847 281.579 279.865 281.391 280.856 281.087C279.826 281.049 278.796 281.123 277.78 281.308C277.359 281.344 276.949 281.474 276.576 281.69C276.271 281.873 276.003 282.122 275.79 282.421C275.594 282.675 275.457 282.975 275.388 283.297Z" fill="#AA6550"/>
<path d="M276.977 283.738C277.017 283.738 277.048 283.509 277.331 283.441C277.615 283.373 278.079 283.33 278.559 283.279C279.155 283.267 279.75 283.202 280.337 283.084C279.756 282.865 279.132 282.812 278.527 282.931C278.093 282.972 277.665 283.069 277.253 283.22C277.182 283.248 277.117 283.294 277.064 283.353C277.011 283.411 276.971 283.482 276.946 283.56C276.907 283.679 276.954 283.738 276.977 283.738Z" fill="#AA6550"/>
<path d="M330.321 262.412L328.315 269.764L315.571 263.5C316.036 261.961 318.144 255.11 322.172 244.239C323.273 241.257 325.067 238.631 327.381 236.615C329.694 234.6 332.449 233.262 335.38 232.73C339.408 231.943 343.488 231.511 347.581 231.438C354.732 231.523 365.249 236.351 366.658 243.916C367.743 249.696 366.697 259.896 366.697 272.289L365.8 295.995L329.181 297.33L330.321 262.412Z" fill="#319E47"/>
<g opacity="0.3">
<path d="M366.657 266.832C362.205 267.818 357.627 266.832 353.087 266.534C350.334 266.356 347.282 266.033 345.103 267.86C343.38 269.314 342.688 271.753 342.184 274.048C340.288 282.82 339.942 288.694 339.517 297.687L361.544 299.132L366.657 266.832Z" fill="black"/>
</g>
<path d="M329.385 236.716C329.385 236.716 329.755 236.776 330.361 237.031C331.206 237.427 331.935 238.064 332.469 238.875C333.248 240.09 333.685 241.521 333.728 242.998C333.778 244.815 333.649 246.633 333.342 248.421C332.823 251.691 332.14 254.929 331.297 258.12C330.998 259.31 330.746 260.287 330.557 261.035C330.449 261.387 330.37 261.748 330.321 262.114C330.469 261.779 330.588 261.429 330.675 261.069C330.88 260.389 331.171 259.411 331.509 258.187C332.427 255.005 333.144 251.759 333.657 248.472C333.966 246.659 334.087 244.814 334.019 242.973C333.958 241.442 333.482 239.964 332.65 238.723C332.076 237.895 331.296 237.261 330.4 236.895C330.157 236.809 329.906 236.746 329.653 236.708C329.48 236.708 329.385 236.699 329.385 236.716Z" fill="#263238"/>
<path d="M315.973 261.655C316.542 262.078 317.141 262.451 317.766 262.769C318.899 263.406 320.48 264.248 322.258 265.115C324.036 265.982 325.672 266.704 326.868 267.197C327.499 267.501 328.154 267.74 328.827 267.911C328.221 267.553 327.592 267.241 326.947 266.976C325.782 266.424 324.162 265.667 322.392 264.8C320.622 263.933 319.025 263.1 317.868 262.548C317.258 262.2 316.624 261.901 315.973 261.655Z" fill="#263238"/>
<path d="M310.136 299.132C307.136 300.9 304.899 303.869 303.903 307.4C302.907 310.932 303.233 314.744 304.81 318.019L336.693 377.145L351.396 367.548L326.648 314.168L344.56 301.512" fill="#263238"/>
<path d="M348.942 296.199L305.187 297.899C301.773 298.03 298.542 299.603 296.189 302.279C293.835 304.955 292.547 308.522 292.601 312.213L294.418 379.729H312.818L312.204 315.894L348.942 314.848V296.199Z" fill="#263238"/>
<path d="M312.204 318.129C312.241 318.337 312.26 318.547 312.259 318.758C312.259 319.212 312.283 319.807 312.33 320.543C312.385 322.099 312.44 324.351 312.495 327.139C312.606 332.707 312.676 340.399 312.716 348.891C312.755 357.382 312.794 365.041 312.818 370.642C312.818 373.396 312.818 375.632 312.857 377.238C312.857 377.986 312.857 378.581 312.857 379.032C312.876 379.241 312.876 379.452 312.857 379.661C312.821 379.454 312.803 379.243 312.802 379.032C312.802 378.581 312.763 377.986 312.731 377.238C312.676 375.683 312.621 373.43 312.566 370.651C312.456 365.083 312.385 357.391 312.346 348.891C312.307 340.391 312.267 332.741 312.244 327.139C312.244 324.394 312.244 322.158 312.244 320.552V318.75C312.212 318.545 312.199 318.337 312.204 318.129Z" fill="#455A64"/>
<path d="M367.893 253.359H354.653C352.095 253.359 349.642 254.457 347.833 256.412C346.025 258.366 345.008 261.017 345.008 263.78V313.65H318.6C316.829 313.65 315.13 314.41 313.877 315.764C312.625 317.117 311.921 318.953 311.921 320.866H372.298C373.718 320.803 375.061 320.148 376.045 319.039C377.029 317.93 377.578 316.453 377.576 314.916V263.78C377.576 262.408 377.326 261.05 376.839 259.783C376.351 258.516 375.638 257.365 374.738 256.397C373.838 255.428 372.77 254.662 371.595 254.141C370.421 253.619 369.162 253.354 367.893 253.359Z" fill="#455A64"/>
<path d="M348.855 255C348.965 255 349.06 269.662 349.06 287.75C349.06 305.839 348.965 320.501 348.855 320.501C348.745 320.501 348.651 305.839 348.651 287.75C348.651 269.662 348.745 255 348.855 255Z" fill="#263238"/>
<path d="M347.18 373.269V320.926H342.877V373.269C340.249 378.862 334.074 382.619 326.553 385.747H364.911C357.147 382.33 350.067 379.703 347.18 373.269Z" fill="#455A64"/>
<path d="M104.839 366.486L104.965 366.18L105.35 365.288C105.815 364.138 106.194 362.95 106.483 361.735C107.387 357.207 107.352 352.519 106.381 348.007C105.778 344.881 104.99 341.801 104.021 338.785C103.022 335.512 101.866 332.044 100.874 328.287C99.8076 324.369 99.2931 320.3 99.3482 316.217C99.4898 311.967 100.662 307.717 101.944 303.467C103.226 299.217 104.556 295.069 104.957 290.887C105.398 286.867 104.649 282.799 102.817 279.267C101.118 275.867 98.9785 272.978 97.3737 269.977C95.874 267.193 94.7683 264.181 94.0933 261.043C93.1307 256.497 93.061 251.783 93.8887 247.205C94.1823 245.532 94.6304 243.895 95.2261 242.318C95.2069 242.428 95.1806 242.535 95.1474 242.641C95.0766 242.87 94.9901 243.177 94.8721 243.576C94.5523 244.779 94.2898 245.999 94.0854 247.231C93.3164 251.779 93.4235 256.449 94.4001 260.95C95.0841 264.051 96.1924 267.025 97.6883 269.773C99.2617 272.74 101.441 275.63 103.195 279.064C105.072 282.661 105.843 286.81 105.398 290.913C104.996 295.163 103.659 299.345 102.377 303.586C101.095 307.828 99.9382 312.086 99.7887 316.242C99.7343 320.284 100.238 324.312 101.283 328.193C102.22 331.925 103.36 335.402 104.351 338.683C105.312 341.715 106.085 344.813 106.664 347.956C107.626 352.507 107.626 357.234 106.664 361.786C106.349 363.006 105.93 364.192 105.413 365.33C105.232 365.695 105.099 365.984 104.989 366.18C104.952 366.289 104.902 366.392 104.839 366.486Z" fill="#263238"/>
<path d="M99.5999 272.91C99.5999 272.91 96.3431 261.664 102.18 255.06C102.226 255.006 102.284 254.968 102.349 254.948C102.414 254.929 102.482 254.929 102.547 254.95C102.611 254.97 102.669 255.009 102.714 255.063C102.759 255.117 102.79 255.184 102.802 255.255C103.108 257.125 103.502 262.786 99.5999 272.91Z" fill="#319E47"/>
<path d="M101.551 258.825C101.542 259.523 101.468 260.217 101.331 260.899C101.11 262.327 100.859 264.01 100.544 265.863C100.229 267.716 100.025 269.399 99.8202 270.827C99.76 271.519 99.6442 272.205 99.474 272.876C99.4138 272.179 99.4323 271.477 99.5291 270.785C99.6392 269.501 99.8438 267.733 100.143 265.795C100.442 263.857 100.748 262.106 101.008 260.84C101.113 260.147 101.295 259.47 101.551 258.825Z" fill="#263238"/>
<path d="M103.423 299.447C103.423 299.447 105.413 287.861 113.429 284.997C113.492 284.972 113.561 284.966 113.626 284.982C113.692 284.997 113.752 285.032 113.799 285.083C113.847 285.134 113.881 285.198 113.896 285.268C113.911 285.339 113.908 285.413 113.886 285.481C113.359 287.3 111.258 292.468 103.423 299.447Z" fill="#319E47"/>
<path d="M111.243 287.98C110.933 288.586 110.567 289.155 110.149 289.68L107.349 293.692L104.556 297.704C104.208 298.292 103.808 298.841 103.36 299.345C103.612 298.699 103.934 298.088 104.32 297.525C104.973 296.446 105.893 294.976 107.018 293.42C108.143 291.865 109.158 290.47 109.921 289.484C110.306 288.929 110.749 288.424 111.243 287.98Z" fill="#263238"/>
<path d="M101.252 328.516C101.252 328.516 100.048 316.803 106.94 311.516C106.994 311.474 107.058 311.448 107.125 311.443C107.192 311.438 107.259 311.453 107.319 311.486C107.379 311.52 107.428 311.571 107.463 311.633C107.497 311.695 107.515 311.767 107.514 311.839C107.49 313.752 106.877 319.387 101.252 328.516Z" fill="#319E47"/>
<path d="M105.657 315.095C105.526 315.778 105.331 316.444 105.075 317.084L103.502 321.802C102.904 323.57 102.369 325.202 101.928 326.528C101.748 327.195 101.514 327.843 101.228 328.465C101.292 327.769 101.434 327.084 101.653 326.426C101.983 325.185 102.503 323.493 103.132 321.649C103.761 319.804 104.383 318.155 104.855 316.974C105.054 316.316 105.323 315.685 105.657 315.095Z" fill="#263238"/>
<path d="M107.294 357.765C107.294 357.765 106.507 346.01 113.54 341.02C113.594 340.978 113.659 340.953 113.726 340.949C113.794 340.946 113.86 340.963 113.919 340.998C113.978 341.034 114.026 341.087 114.057 341.151C114.089 341.215 114.103 341.288 114.098 341.36C114.012 343.247 113.209 348.849 107.294 357.765Z" fill="#319E47"/>
<path d="M112.139 344.513C111.983 345.193 111.764 345.853 111.486 346.485C110.983 347.828 110.385 349.401 109.732 351.135C109.079 352.869 108.481 354.45 107.978 355.793C107.774 356.457 107.511 357.097 107.191 357.705C107.285 357.013 107.451 356.334 107.687 355.683C108.057 354.459 108.631 352.792 109.331 350.973C110.031 349.154 110.692 347.523 111.203 346.358C111.449 345.706 111.763 345.087 112.139 344.513Z" fill="#263238"/>
<path d="M94.9192 263.032C94.9192 263.032 85.2511 257.55 85.0544 248.455C85.0514 248.382 85.0672 248.31 85.1 248.247C85.1328 248.183 85.1814 248.131 85.2402 248.095C85.2991 248.06 85.3659 248.043 85.4331 248.047C85.5003 248.05 85.5654 248.074 85.6208 248.115C87.0604 249.186 91.041 252.892 94.9192 263.032Z" fill="#319E47"/>
<path d="M87.0684 251.6C87.5197 252.102 87.923 252.651 88.272 253.24L90.9938 257.312L93.7314 261.375C94.1483 261.902 94.5171 262.471 94.8328 263.075C94.3325 262.63 93.8859 262.119 93.5033 261.553C92.7166 260.567 91.7254 259.157 90.6634 257.559C89.6014 255.961 88.681 254.49 88.036 253.402C87.6516 252.843 87.327 252.238 87.0684 251.6Z" fill="#263238"/>
<path d="M105.303 287.189C105.303 287.189 95.344 282.379 94.6439 273.284C94.6363 273.212 94.6477 273.139 94.6768 273.074C94.7059 273.009 94.7515 272.954 94.8084 272.915C94.8652 272.877 94.9309 272.857 94.9979 272.857C95.0649 272.858 95.1303 272.879 95.1867 272.918C96.6814 273.895 100.859 277.321 105.303 287.189Z" fill="#319E47"/>
<path d="M96.823 276.25C97.2991 276.719 97.7312 277.237 98.1131 277.797L101.063 281.69C102.172 283.135 103.171 284.444 104.021 285.566C104.465 286.069 104.865 286.615 105.217 287.198C104.696 286.784 104.224 286.305 103.809 285.77C103.022 284.835 101.897 283.492 100.748 281.962C99.5999 280.432 98.593 279.029 97.885 277.992C97.4719 277.456 97.1157 276.872 96.823 276.25Z" fill="#263238"/>
<path d="M99.5684 314.143C99.5684 314.143 92.7323 304.954 95.9419 296.514C95.9653 296.446 96.006 296.387 96.0593 296.343C96.1127 296.299 96.1764 296.273 96.2431 296.267C96.3098 296.26 96.3768 296.275 96.4363 296.308C96.4958 296.341 96.5453 296.392 96.5791 296.454C97.4995 298.061 99.7808 303.169 99.5684 314.143Z" fill="#319E47"/>
<path d="M96.6184 300.254C96.8458 300.909 97.0118 301.586 97.114 302.277C97.4051 303.688 97.7355 305.354 98.1052 307.19C98.475 309.026 98.8132 310.675 99.1043 312.095C99.2887 312.763 99.4151 313.449 99.4819 314.143C99.1859 313.519 98.9664 312.856 98.829 312.171C98.4907 310.93 98.0895 309.205 97.704 307.275C97.3186 305.346 97.0196 303.603 96.8308 302.337C96.6881 301.653 96.6168 300.955 96.6184 300.254Z" fill="#263238"/>
<path d="M106.342 345.857C106.342 345.857 96.4611 340.85 95.9025 331.755C95.8985 331.684 95.9127 331.612 95.9435 331.549C95.9744 331.486 96.0207 331.433 96.0775 331.396C96.1343 331.359 96.1994 331.34 96.2656 331.34C96.3319 331.341 96.3968 331.361 96.4532 331.398C97.9321 332.401 102.062 335.903 106.342 345.857Z" fill="#319E47"/>
<path d="M98.0344 334.789C98.5029 335.271 98.927 335.801 99.301 336.371L102.196 340.306C103.274 341.776 104.257 343.103 105.091 344.233C105.527 344.762 105.919 345.33 106.263 345.933C105.749 345.505 105.281 345.014 104.871 344.471C104.084 343.519 102.998 342.159 101.873 340.612C100.748 339.065 99.7651 337.645 99.0728 336.591C98.6638 336.036 98.3154 335.431 98.0344 334.789Z" fill="#263238"/>
<path d="M126.024 299.506C126.024 299.506 126.024 299.6 126.024 299.77C126.024 299.94 126.024 300.22 126.024 300.526C125.993 301.229 125.953 302.181 125.906 303.382C125.78 305.932 125.599 309.4 125.387 313.582C124.679 317.832 122.673 322.567 119.967 327.182C117.984 330.582 115.915 333.642 114.122 336.532C112.493 339.03 111.029 341.649 109.74 344.369C108.89 346.21 108.202 348.134 107.687 350.115C107.514 350.82 107.38 351.364 107.309 351.738C107.276 351.933 107.226 352.124 107.16 352.308C107.161 352.111 107.182 351.914 107.223 351.722C107.278 351.339 107.38 350.786 107.53 350.073C107.994 348.059 108.648 346.103 109.48 344.233C110.738 341.479 112.184 338.831 113.807 336.311C115.585 333.429 117.654 330.361 119.621 326.961C122.311 322.396 124.341 317.738 125.041 313.539C125.308 309.349 125.536 305.889 125.702 303.339C125.788 302.149 125.859 301.197 125.914 300.492C125.914 300.194 125.969 299.948 125.985 299.744C125.989 299.663 126.002 299.583 126.024 299.506Z" fill="#263238"/>
<path d="M120.14 326.315C120.14 326.315 124.325 315.435 119.062 308.303C119.023 308.245 118.969 308.199 118.906 308.172C118.844 308.146 118.776 308.138 118.71 308.152C118.644 308.165 118.583 308.198 118.534 308.248C118.485 308.297 118.45 308.361 118.433 308.431C118 310.25 117.103 315.851 120.14 326.315Z" fill="#319E47"/>
<path d="M119.385 312.095C119.563 312.765 119.674 313.455 119.715 314.151C119.864 315.435 120.03 317.203 120.156 319.166C120.281 321.13 120.352 322.915 120.344 324.199C120.381 324.898 120.344 325.599 120.234 326.289C120.115 325.606 120.057 324.911 120.061 324.215C119.967 322.77 119.864 321.071 119.746 319.201C119.628 317.331 119.518 315.631 119.424 314.186C119.341 313.492 119.328 312.791 119.385 312.095Z" fill="#263238"/>
<g opacity="0.3">
<path d="M120.14 326.315C120.14 326.315 124.325 315.435 119.062 308.303C119.023 308.245 118.969 308.199 118.906 308.172C118.844 308.146 118.776 308.138 118.71 308.152C118.644 308.165 118.583 308.198 118.534 308.248C118.485 308.297 118.45 308.361 118.433 308.431C118 310.25 117.103 315.851 120.14 326.315Z" fill="black"/>
</g>
<path d="M107.183 352.546C107.183 352.546 110.535 341.335 104.753 334.696C104.707 334.643 104.65 334.604 104.585 334.584C104.521 334.564 104.453 334.564 104.389 334.584C104.324 334.603 104.266 334.641 104.221 334.694C104.175 334.747 104.144 334.812 104.131 334.883C103.84 336.728 103.36 342.38 107.183 352.546Z" fill="#319E47"/>
<path d="M105.35 338.445C105.584 339.096 105.748 339.775 105.838 340.467C106.082 341.725 106.381 343.477 106.625 345.423C106.869 347.37 107.097 349.138 107.191 350.421C107.271 351.115 107.271 351.818 107.191 352.512C107.028 351.838 106.92 351.15 106.869 350.455C106.672 349.027 106.436 347.344 106.184 345.491C105.933 343.638 105.689 341.946 105.484 340.518C105.375 339.834 105.33 339.139 105.35 338.445Z" fill="#263238"/>
<g opacity="0.3">
<path d="M107.183 352.546C107.183 352.546 110.535 341.335 104.753 334.696C104.707 334.643 104.65 334.604 104.585 334.584C104.521 334.564 104.453 334.564 104.389 334.584C104.324 334.603 104.266 334.641 104.221 334.694C104.175 334.747 104.144 334.812 104.131 334.883C103.84 336.728 103.36 342.38 107.183 352.546Z" fill="black"/>
</g>
<path d="M125.473 313.012C125.473 313.012 134.41 306.255 133.505 297.185C133.499 297.114 133.474 297.046 133.434 296.989C133.394 296.932 133.34 296.888 133.278 296.861C133.216 296.835 133.149 296.828 133.084 296.84C133.018 296.852 132.957 296.883 132.907 296.93C131.609 298.197 128.109 302.421 125.473 313.012Z" fill="#319E47"/>
<g opacity="0.3">
<path d="M125.473 313.012C125.473 313.012 134.41 306.255 133.505 297.185C133.499 297.114 133.474 297.046 133.434 296.989C133.394 296.932 133.34 296.888 133.278 296.861C133.216 296.835 133.149 296.828 133.084 296.84C133.018 296.852 132.957 296.883 132.907 296.93C131.609 298.197 128.109 302.421 125.473 313.012Z" fill="black"/>
</g>
<path d="M131.893 300.568C131.709 301.239 131.459 301.886 131.145 302.498C130.642 303.662 129.902 305.26 129.037 306.986C128.172 308.711 127.338 310.259 126.677 311.347C126.369 311.964 125.988 312.535 125.544 313.047C125.792 312.403 126.09 311.783 126.433 311.193C127.078 309.927 127.826 308.439 128.659 306.79C129.493 305.141 130.233 303.646 130.878 302.371C131.156 301.733 131.497 301.129 131.893 300.568Z" fill="#263238"/>
<path d="M110.786 341.428C110.786 341.428 121.564 339.609 124.451 331.041C124.475 330.973 124.481 330.9 124.469 330.829C124.457 330.758 124.427 330.692 124.382 330.638C124.337 330.584 124.279 330.545 124.215 330.525C124.151 330.504 124.083 330.503 124.018 330.522C122.335 331.049 117.465 333.2 110.786 341.428Z" fill="#319E47"/>
<g opacity="0.3">
<path d="M110.786 341.428C110.786 341.428 121.564 339.609 124.451 331.041C124.475 330.973 124.481 330.9 124.469 330.829C124.457 330.758 124.427 330.692 124.382 330.638C124.337 330.584 124.279 330.545 124.215 330.525C124.151 330.504 124.083 330.503 124.018 330.522C122.335 331.049 117.465 333.2 110.786 341.428Z" fill="black"/>
</g>
<path d="M121.619 333.311C121.183 333.83 120.695 334.295 120.163 334.696C119.235 335.495 117.921 336.574 116.435 337.713C114.948 338.852 113.579 339.838 112.564 340.518C112.033 340.921 111.457 341.25 110.849 341.496C111.334 341.026 111.861 340.61 112.423 340.255L116.214 337.357L120.006 334.441C120.509 334.009 121.049 333.631 121.619 333.311Z" fill="#263238"/>
<path d="M100.505 362.865L97.3579 385.73H116.954L114.413 362.865H100.505Z" fill="#455A64"/>
<path d="M115.192 369.946C112.575 370.168 109.949 370.242 107.325 370.167C104.701 370.242 102.075 370.168 99.4583 369.946C102.075 369.728 104.701 369.654 107.325 369.725C109.949 369.654 112.575 369.728 115.192 369.946Z" fill="#263238"/>
<path d="M115.585 371.764C112.868 371.988 110.143 372.062 107.419 371.986C104.698 372.062 101.976 371.989 99.2616 371.764C99.2616 371.645 102.912 371.543 107.419 371.543C111.927 371.543 115.585 371.645 115.585 371.764Z" fill="#263238"/>
</svg>
